<svg xmlns="http://www.w3.org/2000/svg" viewBox="0 0 129.79 128.36"><title>bitterSweet</title><g id="Capa_2" data-name="Capa 2"><g id="Capa_1-2" data-name="Capa 1"><path d="M128.42,69.71a1.29,1.29,0,0,0,1.37,1.21V68.31C128.88,68.47,128.38,69,128.42,69.71Z" style="fill:#fff"/><path d="M47.18,4.35c.63-.31.76-.87.45-2C46.24,1.55,45.3,2,45.26,3.58,46,4.54,46.44,4.71,47.18,4.35Z" style="fill:#fff"/><path d="M120,93.21a1.29,1.29,0,0,0-1.52,1,1.6,1.6,0,0,0,.58,1.49c.54.35,1.17.11,1.92-.75C121,93.84,120.73,93.36,120,93.21Z" style="fill:#fff"/><path d="M31.37,113.14c-.61-.45-1.14-.42-1.9.37l-.19,1,.8.93a1.43,1.43,0,0,0,1.78-.87A1.19,1.19,0,0,0,31.37,113.14Z" style="fill:#fff"/><path d="M98.84,113.57c-1.09-.06-1.59.17-1.84.82s-.07,1,.69,1.58a1.6,1.6,0,0,0,1.62-.44A1.47,1.47,0,0,0,98.84,113.57Z" style="fill:#fff"/><path d="M72.73,2.56a1.73,1.73,0,0,0,1.76-.74c.06-1.07,0-1.17-.67-1.69H72.76C71.64,1.08,71.64,1.52,72.73,2.56Z" style="fill:#fff"/><path d="M124.27,41.45l.69-.77c0-1.21-.33-1.67-1.29-1.65s-1.23.51-1.13,1.82A1.46,1.46,0,0,0,124.27,41.45Z" style="fill:#fff"/><path d="M69.39,124.86c-.65.39-.72,1-.58,1.76l.63.61a1.45,1.45,0,0,0,1.76-.8C71.27,125.07,70.87,124.72,69.39,124.86Z" style="fill:#fff"/><path d="M119.2,49.49c-.54-1.84-1-3.7-1.64-5.53s-1.25-3.59-2-5.33A56.88,56.88,0,0,0,113,33.49c-.92-1.65-2-3.21-3-4.81l.08-.13a11.24,11.24,0,0,1,1.09.3,12.48,12.48,0,0,0,4.78,1,4.07,4.07,0,0,0,3.15-1.35,1.72,1.72,0,0,0,.16-2.19A3,3,0,0,0,117.4,25a17.4,17.4,0,0,0-3-.45c-2.19-.08-4.39-.06-6.58-.06-.45,0-.9.08-1.33.11A54.59,54.59,0,0,0,96.2,16.46,63.38,63.38,0,0,0,84,11.17c.38-.22.59-.36.81-.48.67-.36,1.38-.66,2-1.07.84-.55,1.63-1.18,2.43-1.8a4.47,4.47,0,0,0,1.9-3,8,8,0,0,0-.06-1.43L90,2.23a14.86,14.86,0,0,0-2.1.36c-.42.13-.75.55-1.15.79a24.86,24.86,0,0,0-4.14,3.86c-.9.89-1.65,1.92-2.47,2.89a1.33,1.33,0,0,1-.28,0c-1.68-.29-3.35-.6-5-.86-1.3-.2-2.61-.36-3.92-.5-.84-.09-1.68-.13-2.53-.15-1.87-.05-3.75-.14-5.62-.1-1.31,0-2.62.25-3.94.37-.35,0-.71,0-1.06,0l-.18-.29a2.63,2.63,0,0,0,.54-.28,13.65,13.65,0,0,0,3.15-3.92,5.61,5.61,0,0,0,.4-3A.92.92,0,0,0,61.53,1,2.18,2.18,0,0,0,58.31.5a11.43,11.43,0,0,0-2.9,3.68c-1,1.66-1.79,3.42-2.67,5.14a1.42,1.42,0,0,1-1,.89,16.16,16.16,0,0,0-1.76.51c-1.5.52-3,1-4.48,1.59-.85.32-1.65.76-2.47,1.14s-1.78.74-2.62,1.2c-1.52.82-3,1.69-4.49,2.58-1,.62-2,1.31-3,2L30.8,20.61l-.13-.08a4.59,4.59,0,0,1,.08-.63,19.44,19.44,0,0,0,.78-5.18,4.9,4.9,0,0,0-1-3.1,2,2,0,0,0-3.38,0A3.88,3.88,0,0,0,26.42,14c0,1.44,0,2.88.13,4.31.08,1.18.26,2.35.4,3.52.06.56.12,1.12.19,1.72A54.66,54.66,0,0,0,11.76,44.07c-.49.13-.55-.25-.72-.46s-.22-.39-.36-.56c-.67-.8-1.32-1.62-2-2.39A6.87,6.87,0,0,0,5.06,38.3a6.17,6.17,0,0,0-2.16.08c-.56.09-.84.62-1.05,1a3,3,0,0,0,1.07,3,30.21,30.21,0,0,0,3,2.45c1.35.92,2.78,1.72,4.17,2.58a1.45,1.45,0,0,1,.3.3c-.17.57-.34,1-.45,1.53q-.54,2.31-1,4.64A11.13,11.13,0,0,0,8.76,55c-.17,1.58-.42,3.16-.48,4.74s0,3.2.12,4.79c.06,1.06.22,2.12.33,3.19,0,.35,0,.7.08,1.13a3,3,0,0,1-.43-.18A19.61,19.61,0,0,0,5.17,67a5.21,5.21,0,0,0-3.52-.28A1.93,1.93,0,0,0,0,68.8a2.73,2.73,0,0,0,1.55,2.1A24.64,24.64,0,0,0,3.9,72c.65.27,1.3.53,2,.74,1.32.41,2.64.78,4,1.18A64.35,64.35,0,0,0,21,96.45a3.12,3.12,0,0,1-.57,0c-.58-.13-1.14-.33-1.72-.42a4.31,4.31,0,0,0-4.1,1.42,6.24,6.24,0,0,1,0,.69,2.05,2.05,0,0,0,1.33,2.15,9.6,9.6,0,0,0,3.23,1.11c1.57.24,3.14.51,4.71.74.81.12,1.62.2,2.23.27.58.55,1,.95,1.45,1.37s.92,1.05,1.44,1.5c.88.76,1.78,1.49,2.73,2.16a45.8,45.8,0,0,0,5.66,3.86c1.37.69,2.66,1.54,4,2.26a32.93,32.93,0,0,0,6.54,2.62c.78.22,1.55.48,2.34.68,1.09.28,2.18.56,3.29.79.92.19,1.87.28,2.8.44a1.5,1.5,0,0,1,.42.21c-.9,1.09-1.79,2.12-2.61,3.19a6.75,6.75,0,0,0-1.75,4.62c.11,1.7,1.3,2.69,3,2a3.79,3.79,0,0,0,1.56-1.48,27.56,27.56,0,0,0,1.86-3.41c.68-1.48,1.26-3,1.92-4.6.21,0,.5,0,.79,0a68.36,68.36,0,0,0,9-.28c1.6-.22,3.21-.4,4.78-.74,1.93-.42,3.85-.92,5.74-1.5,1.38-.42,2.7-1,4.05-1.55a2.74,2.74,0,0,1,.68,0c-.17.42-.31.72-.42,1a16,16,0,0,0-.88,5.85,4.32,4.32,0,0,0,1.28,3,2,2,0,0,0,1.12.54,2.29,2.29,0,0,0,2.29-1.66,11.81,11.81,0,0,0,.28-1.54,27.51,27.51,0,0,0-.12-6.68c-.09-.74-.13-1.49-.2-2.25a57.64,57.64,0,0,0,9.52-6,72.48,72.48,0,0,0,8.18-7.63,9.55,9.55,0,0,1,.06,1.49,11.7,11.7,0,0,0,.55,4.24,4.81,4.81,0,0,0,1.89,2.59,2.07,2.07,0,0,0,2.4-.24,3.26,3.26,0,0,0,.74-3c-.15-1.05-.5-2.07-.74-3.11A27.63,27.63,0,0,0,110,96.26a1.59,1.59,0,0,1,.11-1.68c1.1-1.58,2.14-3.2,3.14-4.84a25.4,25.4,0,0,0,1.28-2.55c.86-1.84,1.77-3.67,2.52-5.56.55-1.41.87-2.91,1.31-4.36a3.4,3.4,0,0,1,.45-.7,3.49,3.49,0,0,1,.37.47c.23.46.42.94.67,1.4a21.73,21.73,0,0,0,1.41,2.46,15.22,15.22,0,0,0,1.83,2,3.71,3.71,0,0,0,3.1,1.08,1.87,1.87,0,0,0,1.6-1.88,7.8,7.8,0,0,0-.7-2,11.63,11.63,0,0,0-2.24-2.66c-.53-.55-1.13-1-1.69-1.56s-.95-.92-1.44-1.36c-.72-.65-1.46-1.28-2.21-1.93a89.88,89.88,0,0,0,.94-9.28c.14-3.09-.39-6.13-.43-9.36.24.19.34.25.42.34.77.73,1.5,1.52,2.33,2.19a9.21,9.21,0,0,0,3.72,2.06,3,3,0,0,0,1.81.06l1.45-.55V55.25C126.77,52.34,122.84,51.15,119.2,49.49Zm-.79,3.11c-.81.84-1.49,1.61-2.24,2.3a14.87,14.87,0,0,1-2,1.54,5.21,5.21,0,0,1-1.28.42l-.55-.58a3.47,3.47,0,0,1,1.84-2.62c1-.71,2.13-1.35,3.21-2,.17-.1.36-.18.65-.32ZM108.23,25.93a.81.81,0,0,1,.23-.09c1.44-.05,2.87-.16,4.31-.13a16.09,16.09,0,0,1,4.74.83.78.78,0,0,1,.57,1,2,2,0,0,1-1.88.93,10.75,10.75,0,0,1-4-.73c-.9-.35-1.84-.6-2.74-.95a11.92,11.92,0,0,1-1.31-.68Zm-1.8.8.61.5c.31.8-.25,1.39-.45,2a12.43,12.43,0,0,1-1,2.44,4.24,4.24,0,0,1-1.56,2,3.39,3.39,0,0,1-.55.16l-.43-.43a4.81,4.81,0,0,1,1-3.55c.58-.94,1.24-1.84,1.88-2.74A2.36,2.36,0,0,1,106.43,26.72ZM83.28,8.49c.81-.92,1.62-1.84,2.51-2.68A21.38,21.38,0,0,1,88.1,4,2.83,2.83,0,0,1,89,3.71a.83.83,0,0,1,.91,1.09,3.79,3.79,0,0,1-1.28,1.88,24.89,24.89,0,0,1-3.93,2.54,26.28,26.28,0,0,1-2.63,1.19l-.16-.16C82.36,9.67,82.79,9,83.28,8.49Zm-2,3.55,1.27.22c.54,1.09,1.14,2.12,1.56,3.22a16.67,16.67,0,0,1,.67,2.77c.15.78-.55,1.12-1.12.68a3.54,3.54,0,0,1-1.09-1.25,18,18,0,0,1-1.35-5.25A1.84,1.84,0,0,1,81.32,12ZM54.48,8.62c.72-1.44,1.4-2.9,2.22-4.28a7.31,7.31,0,0,1,2.38-2.58A4.68,4.68,0,0,1,60,1.43l.46.7c.06,1.74-1,2.82-2,3.88s-2.21,2.1-3.34,3.12a1.85,1.85,0,0,1-.92.4A5.9,5.9,0,0,1,54.48,8.62Zm.59,2.6c.52.58,1,1.19,1.59,1.75a10.54,10.54,0,0,1,2,3.23,5.49,5.49,0,0,1,.21,1.46,2.29,2.29,0,0,1-2.31-1.11c-.95-1.46-1.76-3-2.62-4.52a1.61,1.61,0,0,1-.07-.55Zm-23.77,12A15.86,15.86,0,0,1,35.75,25a10.07,10.07,0,0,1,1.09,1l-.63.79c-1.78.1-5.44-1.42-6.89-2.84C29.78,23,30.48,23,31.29,23.25Zm-3.67-7.58a8.59,8.59,0,0,1,.55-2.86,1.09,1.09,0,0,1,.56-.58.8.8,0,0,1,.93.41,2.91,2.91,0,0,1,.47,1.53,16.56,16.56,0,0,1-.46,4.46c-.29,1.24-.73,2.45-1.11,3.67h-.15a10.11,10.11,0,0,1-.34-1.49A44.7,44.7,0,0,1,27.62,15.67ZM12.67,45.43a17.76,17.76,0,0,1,4.1-2.88,3.33,3.33,0,0,1,2.39-.41,1.59,1.59,0,0,1-.8,1.92,18.93,18.93,0,0,1-2.52,1.45c-1,.49-2.12.88-3.2,1.29a4.36,4.36,0,0,1-.92.1A7,7,0,0,1,12.67,45.43Zm-3.08.21c-1.05-.63-2.12-1.25-3.13-2A8.93,8.93,0,0,1,3.32,40.5v-.68l.79-.36a4.38,4.38,0,0,1,2.61,1.3,23.85,23.85,0,0,1,3.22,3.69c.32.44.65.86,1,1.3a1.4,1.4,0,0,1,.11.38A2.72,2.72,0,0,1,9.59,45.64Zm-.18,26.7c-.53-.11-1-.18-1.49-.32-.89-.25-1.77-.54-2.65-.82a8.81,8.81,0,0,1-3.4-1.86,2.44,2.44,0,0,1-.4-.75,1.5,1.5,0,0,1,2-.76,10.07,10.07,0,0,1,3.06,1.43c.68.47,1.46.8,2.1,1.31A1.63,1.63,0,0,1,9.41,72.34Zm10.47,28c-.93-.27-1.85-.59-2.76-.93a1.7,1.7,0,0,1-1.18-1.19c.66-1.16,1.75-1,2.69-.77a10.64,10.64,0,0,1,3.46,1.31,2.47,2.47,0,0,0,.51.17c.92.33,1.34,1.14,1.95,1.94A20.48,20.48,0,0,1,19.88,100.3Zm7.08.79a1.22,1.22,0,0,1-.19-1.44c.47-1,1-2,1.58-2.93.38-.66.8-1.31,1.24-1.94a2.5,2.5,0,0,1,1.5-1.15,1.18,1.18,0,0,1,.57,1.52,7.23,7.23,0,0,1-1.91,3c-.7.72-1.36,1.46-2,2.19C27.49,100.59,27.25,100.81,27,101.09ZM59,119.17c-.62,1.58-1.16,3.2-1.92,4.71a15.06,15.06,0,0,1-2,2.65c-.17.2-.51.26-.8.4a1.61,1.61,0,0,1-.61-1.52,6.33,6.33,0,0,1,.83-2A23.67,23.67,0,0,1,58,119.15a7.29,7.29,0,0,1,.93-.72l.18.11A2.33,2.33,0,0,1,59,119.17Zm.61-2.11a1.52,1.52,0,0,1-1.36-.25,18.6,18.6,0,0,1-3.72-3.91c-.4-.63-.91-1.28-.58-2.17a2.18,2.18,0,0,1,2.34,1c.78,1,1.52,2,2.22,3a21.2,21.2,0,0,1,1.11,2C59.69,116.79,59.65,116.92,59.65,117.05Zm21.92-5.88a5.89,5.89,0,0,1-2.14-1.61l.27-.61a3.75,3.75,0,0,1,3.3.44c1.2.7,2.41,1.38,3.61,2.08.24.14.46.33.8.58l-1.35.71C84.55,112.24,83,111.77,81.57,111.17Zm6.27,11.26a1.57,1.57,0,0,1-.83,1.14c-1.22-.4-1.34-1.43-1.32-2.4a14.51,14.51,0,0,1,.4-3.09c.38-1.57.88-3.11,1.36-4.74.61.38.48.92.51,1.3.16,1.74.28,3.49.29,5.24A11.66,11.66,0,0,1,87.84,122.43Zm19.32-26.3c-1.33-.1-2.64-.18-3.95-.31a12.68,12.68,0,0,1-2.12-.42,9.33,9.33,0,0,1-1.37-.63v-.68a2.47,2.47,0,0,1,2.44-.58,32.27,32.27,0,0,1,3.18.66c.67.16,1.34.38,2,.6a3.64,3.64,0,0,1,.7.47Zm3.57,6.29a20.85,20.85,0,0,1,.2,3.13c0,.29-.26.58-.39.84-1.13-.07-1.53-.76-1.81-1.6a18,18,0,0,1-.52-5.9,12,12,0,0,1,.14-1.63,2.4,2.4,0,0,1,.28-.62l.18.06A29.31,29.31,0,0,1,110.73,102.42Zm6.9-27-1.61.81a12.2,12.2,0,0,1-3.5,1.26c-.87.15-1.25,0-1.56-.57a2.14,2.14,0,0,1,1.37-1.49c.94-.36,1.92-.65,2.89-.92.8-.23,1.62-.4,2.44-.59,0,0,.08,0,.2,0Zm1.55-12c0,1.68-.22,3.36-.39,5-.1,1.08-.27,2.16-.43,3.24a5.77,5.77,0,0,1-.2.73c-1,.18-2,.3-3,.53A11.21,11.21,0,0,0,111,74.58a2.9,2.9,0,0,0-1.26,3.14c.08.44.59.81.82,1.11,2.37.39,4.25-.69,6.33-1.41a3.4,3.4,0,0,1-.08.69c-.46,1.32-.9,2.64-1.42,3.93-.59,1.47-1.19,3-1.91,4.36a47.32,47.32,0,0,1-4.12,6.94c-.16.21-.28.46-.45.75a7,7,0,0,0-.87-.45,24.73,24.73,0,0,0-4.73-1.26,9.63,9.63,0,0,0-2.7-.15,2.52,2.52,0,0,0-1.77.88,1.87,1.87,0,0,0-.11,2.27,3.17,3.17,0,0,0,2.09,1.41,17.86,17.86,0,0,0,5.21.53,2.51,2.51,0,0,1-.26.65c-.75.88-1.48,1.79-2.31,2.6-1.28,1.25-2.62,2.44-4,3.63-.93.83-1.89,1.64-2.88,2.39-.78.59-1.64,1.08-2.47,1.61s-1.67,1.09-2.52,1.62-1.47.9-2.21,1.33a1,1,0,0,1-1.31-.16,14.51,14.51,0,0,0-3.25-2.11,17.55,17.55,0,0,0-3.39-1.42,2.72,2.72,0,0,0-2.93.88,2,2,0,0,0-.12,2,4.14,4.14,0,0,0,1.46,1.5,17.47,17.47,0,0,0,4.17,1.69,43.75,43.75,0,0,1-7.44,2.4,48.81,48.81,0,0,1-7.73,1.22,46,46,0,0,1-7.72.12,9,9,0,0,0-1.35-3.11c-.4-.66-.82-1.31-1.23-2a7,7,0,0,0-2.75-2.61,2.4,2.4,0,0,0-3.38.84,1.81,1.81,0,0,0-.09,1.11,7.47,7.47,0,0,0,1.87,3.1c.51.57,1,1.15,1.55,1.8-.2.07-.29.14-.36.12L52.56,116c-.53-.11-1.06-.23-1.59-.37s-1.17-.35-1.74-.56c-1.61-.6-3.23-1.19-4.82-1.85a23.91,23.91,0,0,1-3.74-1.89c-1-.66-2.19-1.15-3.24-1.81-1.23-.77-2.39-1.63-3.59-2.45a5.11,5.11,0,0,0-.62-.32l-5.3-4.58,1-1.08c.86-1,1.74-1.9,2.55-2.9a13.27,13.27,0,0,0,1.22-1.88A3.13,3.13,0,0,0,33,93.85a1.9,1.9,0,0,0-2.29-1.4,3.13,3.13,0,0,0-1.75,1,16.72,16.72,0,0,0-2.53,3.77c-.29.54-.59,1.07-.86,1.56a.92.92,0,0,1-1-.34c-.65-.73-1.33-1.44-1.92-2.22-1.09-1.43-2.14-2.9-3.17-4.38a27.36,27.36,0,0,1-1.75-2.76c-1-1.93-2-3.89-3-5.85-.51-1-1-2.07-1.41-3.15-.47-1.23-.83-2.49-1.23-3.75-.21-.66-.4-1.32-.62-2a5.5,5.5,0,0,0,2.86-1.45,31.82,31.82,0,0,0,3.85-3.56,4.13,4.13,0,0,0,.51-.8L19,68l.18,0c.08.29.17.58.23.88A8.22,8.22,0,0,0,20.47,72,7.51,7.51,0,0,0,25,75.19a7.85,7.85,0,0,0,3.77-.07,7.26,7.26,0,0,0,3.27-2c.15-.14.17-.41.25-.62a7,7,0,0,1,0-9,4.44,4.44,0,0,0-2.2-2,17.8,17.8,0,0,0-2.79-1c0-.21,0-.44,0-.66-.13-1.93-.28-3.86-.4-5.79,0-.61,0-1.23,0-1.89l-.43-.07,0-.27c.24-.27.37-.52-.09-.69-.06-.55-.32-1.12.07-1.71a2.78,2.78,0,0,1,.36.34c.64.92,1.25,1.85,1.91,2.76C29.81,54,30.88,55.58,32,57c1.31,1.66,2.71,3.26,4.07,4.88l-.65.5A6.7,6.7,0,0,0,33.08,66a7.07,7.07,0,0,0,3.13,8.13A7.12,7.12,0,0,0,47,67.44a7.11,7.11,0,0,0-5.17-6.31,8.29,8.29,0,0,0-4.06,0c-.55-.61-1.13-1.19-1.64-1.83q-2.4-3-4.75-6.11c-.42-.55-.8-1.14-1.19-1.71l.11-.17.62.13a20.87,20.87,0,0,0,5.42.76,11.35,11.35,0,0,0,4.08-1.15c-.24-.19-.4-.3-.54-.43-.46-.41-.93-.81-1.36-1.24-.74-.74-1.43-1.53-2.17-2.27A9.8,9.8,0,0,0,28,44.25a3.28,3.28,0,0,0-1.89.72,1,1,0,0,1-.29.1c-.35-.49-.66-1-1-1.46a.9.9,0,0,0-1.16-.27.86.86,0,0,0-.39,1c.1.42.18.84.27,1.26-.06.11-.18.23-.16.33.18,1,.38,1.91.59,2.86,0,0,.15.07.23.1l0,.28c-.27.19-.25.34.08.42l.06.54a2.18,2.18,0,0,0-.17.68,43.36,43.36,0,0,0,.44,4.34,42.78,42.78,0,0,1,.37,4.9c0,.2,0,.41,0,.65a3.23,3.23,0,0,1-.55.29,7.11,7.11,0,0,0-3.69,2.58,11.23,11.23,0,0,0-1.1,2.25c-.18.42-.15.43-.58.55L18.29,65a16.26,16.26,0,0,0-1.92,0,2.58,2.58,0,0,0-1,.46,13.69,13.69,0,0,0-3.54,3.81c-.31.43-.65.84-1.07,1.37a6.19,6.19,0,0,1-.27-.77,49.63,49.63,0,0,1-.81-11.3A41.29,41.29,0,0,1,11.4,48.27a12,12,0,0,0,5.26-1.48,8.13,8.13,0,0,0,3.51-2.62A2.62,2.62,0,0,0,20.06,41a2,2,0,0,0-2-.39A8.57,8.57,0,0,0,15.09,42a10.51,10.51,0,0,1-1.67,1c3.3-7.35,8.5-13.13,14.63-18.2a21.74,21.74,0,0,0,4.86,2.67,6.66,6.66,0,0,0,3.39.58c.52-.05,1-.45,1.74-1.3A2.36,2.36,0,0,0,36.81,24a15.21,15.21,0,0,0-3.43-1.48c-.48-.18-1-.33-1.61-.53.4-.31.67-.56,1-.76,1.71-1.13,3.4-2.28,5.14-3.35a38.94,38.94,0,0,1,5.88-3c1.81-.73,3.64-1.41,5.47-2.07.85-.31,1.71-.56,2.58-.79.62-.17.78,0,1,.66.34.91.78,1.78,1.21,2.66a10.4,10.4,0,0,0,2.27,3,3.3,3.3,0,0,0,3.21.55,1.72,1.72,0,0,0,.81-2.12,9.39,9.39,0,0,0-1.8-3.5q-.7-.88-1.38-1.78a4.83,4.83,0,0,1-.29-.52,65.25,65.25,0,0,1,22.85.65c.12.87.19,1.64.33,2.39a14.57,14.57,0,0,0,1.36,4.39,4.13,4.13,0,0,0,1.46,1.75,2.35,2.35,0,0,0,2.59.06,2.08,2.08,0,0,0,.72-2.34,13.39,13.39,0,0,0-1.43-4.16,3.8,3.8,0,0,1-.21-.79,44.57,44.57,0,0,1,11.29,5,40.14,40.14,0,0,1,9.5,7.73c-.56.81-1.14,1.59-1.65,2.42A19.75,19.75,0,0,0,102,30.9a6.86,6.86,0,0,0-.38,2.47c0,.87,1,1.6,1.84,1.69a2.63,2.63,0,0,0,2.47-1.31,14.08,14.08,0,0,0,1.79-3.58c.14-.39,0-.87.59-1.2.55.72,1.14,1.43,1.66,2.19.68,1,1.33,2,1.94,3,.48.82.88,1.69,1.31,2.54.34.69.7,1.36,1,2.07.53,1.28,1.07,2.55,1.52,3.86.62,1.84,1.17,3.7,1.72,5.56a14,14,0,0,1,.29,1.64c-.86.45-1.65.83-2.4,1.28a14.14,14.14,0,0,0-3.51,2.78,2.78,2.78,0,0,0,.44,4.32,3.44,3.44,0,0,0,2.29-.59,19.62,19.62,0,0,0,3.65-2.86l.32-.26c.09.15.22.27.23.4.11,1.25.23,2.49.29,3.74C119.13,60.27,119.23,61.87,119.18,63.47ZM11.56,72.86l.38-1.54c1.34-1.69,2.55-3.72,4.57-5.1l1,.15a2.46,2.46,0,0,1-.43,2.13,15.78,15.78,0,0,1-4.8,4.18A2.68,2.68,0,0,1,11.56,72.86Zm109.1,2.34c1.06,1,2.13,1.91,3.16,2.89a11,11,0,0,1,2.28,3,1.28,1.28,0,0,1,0,1.51,2.17,2.17,0,0,1-2-.66,11.74,11.74,0,0,1-2.68-3.62c-.55-1-1.11-2.06-1.65-3.1-.17-.32-.29-.67-.44-1l.08-.09C119.8,74.45,120.24,74.82,120.66,75.2ZM128.48,57a2.7,2.7,0,0,1-2.93-.33,19.29,19.29,0,0,1-3.67-3.09c-.65-.69-1.32-1.36-2.07-2.13.23,0,.34-.07.42,0,1.49.6,3,1.16,4.46,1.83a10.15,10.15,0,0,1,3.43,2.43A1.28,1.28,0,0,1,128.48,57Z" style="fill:#fff"/><path d="M4.84,79.48a1.47,1.47,0,0,0-1.48,1,1.19,1.19,0,0,0,.69,1.46c.64.37,1.09.18,1.82-.78C5.94,80.16,5.62,79.67,4.84,79.48Z" style="fill:#fff"/><path d="M.44,52.91a1.28,1.28,0,0,0,2.14-.39l.13-.93c-1-1.09-1.44-1.14-2.25-.3C-.14,51.91-.16,52.44.44,52.91Z" style="fill:#fff"/><path d="M104.12,14l1.24-.77a1.52,1.52,0,0,0-.69-1.85c-1-.08-1.64.25-1.81,1S103.17,13.63,104.12,14Z" style="fill:#fff"/><path d="M18.45,22.51c1-.82,1.15-1.15.69-2A1.16,1.16,0,0,0,17.86,20a1.46,1.46,0,0,0-1,1.49C17,22.25,17.45,22.54,18.45,22.51Z" style="fill:#fff"/><path d="M71.35,72.38l-2.8-9.17H66.66l-2.92,9.27-2.38-9.25H59.1l3.52,11.63h2l2.89-8.8,2.78,8.84h2c1.24-3.89,2.53-7.74,3.73-11.67H73.89Z" style="fill:#fff"/><path d="M56.68,67.32A8.83,8.83,0,0,0,54,65.73a8,8,0,0,1-2.69-1.47,2.27,2.27,0,0,1,.66-3.75,3.62,3.62,0,0,1,2.14-.3c.85.14,1.68.38,2.62.61l.56-1.7c-2.37-1-4.62-1.18-6.83.05a4.11,4.11,0,0,0-.64,6.69,15.71,15.71,0,0,0,2.29,1.35c.76.4,1.59.7,2.33,1.13a2.37,2.37,0,0,1,1.18,1.53,2.7,2.7,0,0,1-2.54,3.4,7.09,7.09,0,0,1-3.87-.69c-.2-.09-.4-.17-.64-.27L48,74.07a4.9,4.9,0,0,0,.61.35,8.67,8.67,0,0,0,6.17.3A4.5,4.5,0,0,0,56.68,67.32Z" style="fill:#fff"/><path d="M54.33,56.39a3.64,3.64,0,0,0,1.5-5.65,12.35,12.35,0,0,0-1.66-1.28l.37-.25.44-.32a3.09,3.09,0,0,0,.76-3.9,3.42,3.42,0,0,0-2.3-1.61,12.6,12.6,0,0,0-4-.14c-.43,0-.85.1-1.32.16V56.8c.78.06,1.55.15,2.32.16A10.05,10.05,0,0,0,54.33,56.39ZM49.89,44.72a4.64,4.64,0,0,1,3.61.4,2,2,0,0,1-.34,3.41,5.16,5.16,0,0,1-3.27.33Zm0,5.68a5.37,5.37,0,0,1,3.95.69,2.4,2.4,0,0,1-.44,4,6.56,6.56,0,0,1-3.51.37Z" style="fill:#fff"/><path d="M107.3,51.48l-1.13-1L104.48,53c-1.29-1.36-2.5-2.6-3.67-3.88a3.76,3.76,0,0,1-.91-2,1.91,1.91,0,0,1,1.92-2.35,4.45,4.45,0,0,1,1.4.24,11.47,11.47,0,0,1,1.4.68V44a8.22,8.22,0,0,0-1.28-.63,4.22,4.22,0,0,0-3.94.45,3.85,3.85,0,0,0-1,4.6l.32.75c-.4.32-.76.59-1.1.89a4.05,4.05,0,0,0-1,4.7c1.05,2.25,4.27,2.7,6,1.83.64-.33,1.24-.76,2-1.21L106,56.81a12.25,12.25,0,0,0,2.31-.15l-2.57-2.45Zm-5.46,3.76a3,3,0,0,1-.87.18,2.39,2.39,0,0,1-2.7-1.72,2.69,2.69,0,0,1,1.4-3.19l3.78,3.61A2.86,2.86,0,0,1,101.84,55.23Z" style="fill:#fff"/><path d="M86.35,72.86l-1,.27a7.07,7.07,0,0,1-3.52.14,3.42,3.42,0,0,1-2.59-3.76h8a7.76,7.76,0,0,0-.21-3.12c-1-3.69-5.09-4.28-7.62-2.52-2.71,1.89-3,6.47-1.57,8.78A5,5,0,0,0,81.68,75a10.13,10.13,0,0,0,5-.61Zm-3.87-8.35c1.6.06,2.78,1.26,2.71,3.33h-6A3.31,3.31,0,0,1,82.48,64.51Z" style="fill:#fff"/><path d="M91.24,64c-2.12,1.69-2.73,5.32-1.67,7.89a4.94,4.94,0,0,0,4.24,3.13,9.75,9.75,0,0,0,4.92-.64l-.33-1.48c-1,.18-1.87.39-2.72.47a4,4,0,0,1-3.52-1.16,3.77,3.77,0,0,1-1-2.74c2.77,0,5.45,0,8.16,0A6.41,6.41,0,0,0,98,64.33,5,5,0,0,0,91.24,64Zm6,3.79H91.3a3.34,3.34,0,0,1,2.85-3.31,2.79,2.79,0,0,1,3.07,2.64A6.45,6.45,0,0,1,97.23,67.83Z" style="fill:#fff"/><path d="M104.19,74.89a5,5,0,0,0,3.19,0V73.25c-.43,0-.79,0-1.15,0a1.41,1.41,0,0,1-1.6-1.41,5.43,5.43,0,0,1,0-.68q0-2.81,0-5.63c0-.22,0-.44.06-.73h2.91V63.18h-3V59.84l-2.15.56v2.78H100.7V64.9h1.74c0,.32,0,.57,0,.81,0,2.06,0,4.12,0,6.18A2.93,2.93,0,0,0,104.19,74.89Z" style="fill:#fff"/><path d="M79.12,56.62a7.17,7.17,0,0,0,5.17-.15L84,55.2a6.65,6.65,0,0,1-3.61.3,2.58,2.58,0,0,1-1.94-3h6.29a4.75,4.75,0,0,0-1.06-4.12,4,4,0,0,0-6.08.54A5.78,5.78,0,0,0,76.84,54,3.75,3.75,0,0,0,79.12,56.62Zm.53-7.72a2.1,2.1,0,0,1,2.4,0,2.46,2.46,0,0,1,1,2.3H78.34A2.83,2.83,0,0,1,79.65,48.9Z" style="fill:#fff"/><path d="M71,49.82c0,1.67,0,3.34.07,5,.08,2,2.14,2.7,3.94,1.86l-.06-1.17c-.21,0-.38,0-.56,0-1.15.08-1.54-.17-1.6-1.32-.09-1.57-.06-3.15-.08-4.73,0-.15,0-.31,0-.57H75V47.5H73.8l-1.17,0V44.86l-1.69.43v2.18l-1.34.07v1.33l1.35.06C71,49.29,71,49.55,71,49.82Z" style="fill:#fff"/><path d="M64.16,49.71c0,1.42,0,2.84,0,4.26a10.13,10.13,0,0,0,.11,1.23,2,2,0,0,0,1.61,1.74,3.5,3.5,0,0,0,2.25-.16V55.56h-.89a1.1,1.1,0,0,1-1.29-1,3.62,3.62,0,0,1-.1-.81c0-1.4,0-2.79,0-4.19,0-.22,0-.44.06-.73h2.26V47.46H65.84V44.84l-1.66.44v2.18l-1.43.08v1.32l1.37.07C64.13,49.22,64.16,49.47,64.16,49.71Z" style="fill:#fff"/><path d="M89,56.42c0-1.65,0-3.29.06-4.94a2.41,2.41,0,0,1,2.69-2.53s.08,0,.13-.07V47.36c-1.44-.24-2.31.52-3.06,1.75l-.1-1.6h-1.4v9.24H89C89,56.6,89,56.51,89,56.42Z" style="fill:#fff"/><path d="M58.85,56.75H60.5V47.53H58.85Z" style="fill:#fff"/><path d="M89.69,80.61l.28-.19a1.4,1.4,0,0,0,.74-1.55,1.21,1.21,0,0,0-1.19-1.12c-1-.07-2,0-3,0v5.11h1v-2a1,1,0,0,1,1.16.42l1.11,1.59H91.2Zm-2.13-.85v-1c.91-.36,1.67-.2,2,.41C89.39,79.9,89.07,80,87.56,79.76Z" style="fill:#fff"/><path d="M78,80.59h2.48l-.05-1h-2.5l.08-1h2.56v-.94c-1.3,0-2.54,0-3.8,0v5.16h3.94v-.9H78Z" style="fill:#fff"/><path d="M61.7,81.93H58.92V80.6h2.51v-1H58.94V78.57H61.6V77.7H57.8v5.15H61.7Z" style="fill:#fff"/><path d="M41.55,79.79c-.46-.14-.92-.27-1.36-.45-.16-.07-.27-.27-.41-.43.81-.61,1.19-.53,1.93.36l.81-.07a1.15,1.15,0,0,0-.77-1.41,4.93,4.93,0,0,0-1.62-.16,1.42,1.42,0,0,0-1.4,1.28,1.44,1.44,0,0,0,1,1.51c.45.17.93.25,1.37.43a2.33,2.33,0,0,1,.54.41.91.91,0,0,1-.88.73c-.73.09-1-.47-1.28-.95l-.95.09c.13,1.15.65,1.7,1.64,1.79a4.71,4.71,0,0,0,1.1,0,1.55,1.55,0,0,0,1.46-1.46A1.49,1.49,0,0,0,41.55,79.79Z" style="fill:#fff"/><path d="M107,82.84h1.2l-2.07-5.17h-1.17l-2,5.16h1.16l.45-1.1h1.94Zm-2.1-2.12.54-1.47.21,0,.52,1.45Z" style="fill:#fff"/><path d="M31.37,77.69H30.18l-2,5.14,1.14.06.49-1.16h1.92l.54,1.17,1.14-.07Zm-1.23,3,.51-1.48h.19l.57,1.49Z" style="fill:#fff"/><path d="M22.65,77.82a12.14,12.14,0,0,0-3-.18v5.21h1.06V81c.66-.05,1.21-.05,1.74-.14a1.35,1.35,0,0,0,1.12-1.29C23.6,78.61,23.33,78,22.65,77.82Zm-2,2.09V78.68c1.06-.22,1.43-.08,1.74.6C22.13,80,21.8,80.16,20.69,79.91Z" style="fill:#fff"/><path d="M48.14,77.66v.92l1.45.09v4.15h1.18V78.66l1.45-.08v-.93C50.83,77.64,49.49,77.63,48.14,77.66Z" style="fill:#fff"/><path d="M68.6,77.76h-1v5.07h3.56V82H68.6Z" style="fill:#fff"/><path d="M96.86,76.37a3,3,0,0,0-.36.91c0,1.71,0,3.43,0,5.14a2.38,2.38,0,0,0,.07.4h1V77.78l-.52-.3.9-1.11Z" style="fill:#fff"/><path d="M21.93,85.85l-.93.81-.6-.79-.46.3c0,.58,0,1.11,0,1.63s-.2,1.07.34,1.53a10,10,0,0,0,.26-2.48l.45.73.5-.56c.27.8-.17,1.63.3,2.31h.3a29.87,29.87,0,0,0,0-3.35Z" style="fill:#fff"/><path d="M59.63,46a1,1,0,0,0,1.14-1,1.08,1.08,0,0,0-2.16-.11A1,1,0,0,0,59.63,46Z" style="fill:#fff"/><path d="M77.86,86.5c0,.94,0,1.73,0,2.51,0,.06.16.12.35.26l.09-1.91.23,0L79,88.39c.57-.2.13-1,.87-1a9,9,0,0,0,0,1c0,.27-.18.64.36.82V86.51L79,87Z" style="fill:#fff"/><path d="M48.74,86.8V90c.64,0,.4-.5.55-.8.89-.72,1.06-1.08.81-1.68A1.27,1.27,0,0,0,48.74,86.8Zm.55,1.83-.13-.06V87.39l.13-.09.51.66Z" style="fill:#fff"/><path d="M85.09,86.94l.55.34-.87.54c-.15,1,.36,1.42,1.39,1.13V86.62C85.74,86.62,85.33,86.43,85.09,86.94Zm.38,1.59-.4-.3.5-.33,0,.56Z" style="fill:#fff"/><path d="M66.52,87.08l.64.23c-.53.32-1,.46-1,1,.28.63.49.76,1.45.82V86.54l-1,.3Zm0,1.27.6-.49.05.85Z" style="fill:#fff"/><path d="M60.41,86.83v2.34l.23,0c.4-.51-.06-1.26.3-1.82.74.44.07,1.31.62,1.82a1.69,1.69,0,0,0,.07-1.91A.94.94,0,0,0,60.41,86.83Z" style="fill:#fff"/><path d="M55.51,87.38c-.93.47-1,.58-.88,1.38a1.33,1.33,0,0,0,1.31.39V86.71l-.86,0C54.82,87.28,55.29,87.23,55.51,87.38Zm-.14,1.29-.45-.33.56-.4,0,.64Z" style="fill:#fff"/><path d="M108,86.59c-.86-.23-1.21-.18-1.57.27l.82.26L106.48,89c.61,0,1.13.24,1.7-.33l-.95-.3Z" style="fill:#fff"/><path d="M26.89,87.17l.62.24c-.38.4-1.12.36-1.09,1.17a1.22,1.22,0,0,0,1.44.6V86.82A.76.76,0,0,0,26.89,87.17Zm.41,1.63-.42-.35.55-.44,0,.73Z" style="fill:#fff"/><path d="M90.45,86.83l.42.34c0,1.73.09,1.83.76,1.81l-.25-1.76.45-.37-.6-1Z" style="fill:#fff"/><path d="M38.51,88.9c-.42-.7,0-1.42-.38-2a8.64,8.64,0,0,0,0,1.85c0,.36.36.5.84.31A3.92,3.92,0,0,0,39,86.89C38.6,87.47,39.12,88.25,38.51,88.9Z" style="fill:#fff"/><path d="M96.07,86.66c.19.8-.22,1.65.24,2.39h.27l.11-1.67.56-.25C97,86.61,96.62,86.54,96.07,86.66Z" style="fill:#fff"/><path d="M33.62,87.13l-.28-.38c-1.07.41-1.2,1-1,1.75.16.54.59.74,1.28.57l-.74-.64C32.52,87.75,33,87.42,33.62,87.13Z" style="fill:#fff"/><path d="M101.61,86.94q0,.82,0,1.65c0,.28.08.49.49.45V86.51C101.68,86.44,101.61,86.66,101.61,86.94Z" style="fill:#fff"/><path d="M44.14,86.73l-.62.36.26,1.47-.27.61c.88-.1.91-.26.54-1.62l.24-.73Z" style="fill:#fff"/><path d="M101.6,86l.55.25C102.12,85.74,102,85.56,101.6,86Z" style="fill:#fff"/></g></g></svg>