<svg xmlns="http://www.w3.org/2000/svg" viewBox="0 0 127.95 129.35"><title>burgerKing</title><g id="Capa_2" data-name="Capa 2"><g id="Capa_1-2" data-name="Capa 1"><path d="M113.3,84.05l10.85,5.9a65.09,65.09,0,0,1-15.93,22.52A61.69,61.69,0,0,1,74,128.69C42.89,133,16.62,116,5.61,90.84A64.46,64.46,0,0,1,21.43,16.52,62.33,62.33,0,0,1,44.91,3.07,66.57,66.57,0,0,1,71.15.29,58.5,58.5,0,0,1,82.74,2.56l0,.14-1-.2A66.42,66.42,0,0,0,64.16,1.4,63.45,63.45,0,0,0,41.3,7.17Q17.77,18.3,9.68,43.09a60.1,60.1,0,0,0-2.8,16.36,59.83,59.83,0,0,0,4.21,25,51.6,51.6,0,0,0,6.11,11,2.21,2.21,0,0,1,.45,1.41c0,2.78,0,5.55,0,8.33,0,.16,0,.32,0,.55l.6-.23c1.71-.73,3.43-1.45,5.13-2.2a.74.74,0,0,1,.92.16A55.56,55.56,0,0,0,52,117.15a61.28,61.28,0,0,0,15.76,1,49.5,49.5,0,0,0,30.15-12.61,61.37,61.37,0,0,0,14.84-20.22Z" style="fill:#fff"/><path d="M63.43,110.13a46,46,0,0,1-18.82-3.83,14.36,14.36,0,0,1-5-3.44,4.1,4.1,0,0,1-.28-.34,1.31,1.31,0,0,1,.59-2.18c1.88-.79,3.77-1.58,5.67-2.32,11.58-4.54,23.4-8.39,35.31-12,8.21-2.46,16.46-4.75,24.8-6.72a3.78,3.78,0,0,1,.81-.1,1.12,1.12,0,0,1,1.28,1.18,6.52,6.52,0,0,1-.3,1.87A34.23,34.23,0,0,1,99,96.08a45.79,45.79,0,0,1-19.9,11.67A52.89,52.89,0,0,1,63.43,110.13Zm19.83-6.23c.12,0,.16,0,.19,0,.43-.19.87-.37,1.3-.57a34.7,34.7,0,0,0,16.67-16.21,3.65,3.65,0,0,0,.36-1.08,1.5,1.5,0,0,0-1.91-1.66,2.25,2.25,0,0,0-1.49,1.55,36,36,0,0,1-12.45,16.11C85.08,102.69,84.19,103.26,83.26,103.89Zm-.08.07,0,0V104h0S83.18,104,83.18,104Zm-.24.15,0,0h0Z" style="fill:#fff"/><path d="M70,6.51a43.86,43.86,0,0,1,17.75,3.83,22.16,22.16,0,0,1,7.11,5,12.44,12.44,0,0,1,1.21,1.55A1.24,1.24,0,0,1,95.22,19c-3.83.74-7.68,1.42-11.5,2.19a359.34,359.34,0,0,0-38.83,10Q36.3,34,27.73,36.77l-.37.11c-1,.27-1.64-.18-1.51-1.22a17.37,17.37,0,0,1,.78-3.4A34.81,34.81,0,0,1,40.15,14.7a45.11,45.11,0,0,1,17.42-7A64.48,64.48,0,0,1,70,6.51ZM66.81,8.11c.9.11,1.8.21,2.7.34a28.54,28.54,0,0,1,8.83,2.61,10.2,10.2,0,0,1,3.56,2.67,2.72,2.72,0,0,1,0,3.71,15.82,15.82,0,0,1-1.79,1.65c.3-.06.7-.13,1.09-.24a45,45,0,0,0,4.36-1.25,2.16,2.16,0,0,0,1-3.63,9,9,0,0,0-1.91-1.78,20.84,20.84,0,0,0-6.37-2.83A33.15,33.15,0,0,0,66.81,8.11ZM46.61,12.6c-.22.11-.45.21-.67.33a32.52,32.52,0,0,0-13.5,13.86,10.58,10.58,0,0,0-1.24,3.83,1.14,1.14,0,1,0,2.25.38,31.56,31.56,0,0,1,7.8-13.62A41.36,41.36,0,0,1,46.61,12.6Z" style="fill:#fff"/><path d="M87.67,49.43c0,.26,0,.38,0,.51q0,13.56,0,27.12a4.81,4.81,0,0,1-3.21,4.64,5.05,5.05,0,0,1-5.79-1.36L76.58,77.9,69.73,70a1.33,1.33,0,0,0-.5-.38c0,.2,0,.4,0,.6,0,3.36.06,6.72,0,10.08A13.08,13.08,0,0,1,69,82.9a4.77,4.77,0,0,1-2.26,3.16c-2,1.23-4.31,1.64-6.51,2.54,0-.3,0-.5,0-.7q0-15.31,0-30.63c0-.49.13-.7.6-.82,1.71-.46,3.38-1.06,5.1-1.44a4.23,4.23,0,0,1,4.37,1.36l8.17,9.44a1.45,1.45,0,0,0,.47.4c0-.18,0-.37,0-.55,0-3.1,0-6.21,0-9.31a8.43,8.43,0,0,1,.17-1.58,4.9,4.9,0,0,1,3.53-4C84.26,50.26,85.93,49.88,87.67,49.43Z" style="fill:#fff"/><path d="M19,103.86c0-.29,0-.49,0-.69q0-15.29,0-30.57a.72.72,0,0,1,.52-.8c2.87-1.17,5.73-2.36,8.6-3.54l.59-.23V79l.13,0c.12-.19.24-.37.36-.57Q33,72,36.77,65.53a4.7,4.7,0,0,1,6.9-1.38,3.94,3.94,0,0,1,.92,5.42c-.81,1.34-1.67,2.66-2.51,4l-4.28,6.75-.3.49.42.44,6,6.06a4.9,4.9,0,0,1-1.39,8.11,5.36,5.36,0,0,1-6.36-1.26c-2.32-2.43-4.61-4.89-6.92-7.33l-.66-.69c0,.33,0,.5,0,.68,0,3.07,0,6.14,0,9.2a12,12,0,0,1-.13,1.69A4,4,0,0,1,25.87,101c-2.06.84-4.1,1.72-6.16,2.58Z" style="fill:#fff"/><path d="M108.51,64.2c-.65.15-1.19.29-1.74.4-2,.38-3.12-.46-3.25-2.48-.07-1.06,0-2.12,0-3.18,0-.34.21-.36.45-.41l10.59-2.29,2.5-.54c0,.2,0,.35,0,.51,0,3.4,0,6.8,0,10.19a13.55,13.55,0,0,1-.36,2.87,6.91,6.91,0,0,1-2.84,4.1,18.42,18.42,0,0,1-15.14,3.34,11.13,11.13,0,0,1-9.06-9,19.77,19.77,0,0,1,2-14.22,17.13,17.13,0,0,1,10.58-8.14,19.7,19.7,0,0,1,11.44-.13c.28.08.55.19.83.29a4.14,4.14,0,0,1,1.86,6.34,3.38,3.38,0,0,1-3.58,1.32c-1.08-.19-2.15-.45-3.23-.54a11.47,11.47,0,0,0-5.48.78,8.3,8.3,0,0,0-5.13,6.79,11.49,11.49,0,0,0,.17,4.68c.81,3.29,3.2,4.76,6.51,4a9.23,9.23,0,0,0,2-.79,1.64,1.64,0,0,0,.91-1.68C108.48,65.64,108.51,64.95,108.51,64.2Z" style="fill:#fff"/><path d="M47.15,93.15c0-.27,0-.45,0-.63q0-12.87,0-25.75a11.43,11.43,0,0,1,.54-3.83,5.94,5.94,0,0,1,3.81-3.67c1.78-.65,3.59-1.21,5.39-1.8a2.06,2.06,0,0,1,.38,0c0,.25,0,.46,0,.68q0,13,0,25.91a14.71,14.71,0,0,1-.19,2.45,5.23,5.23,0,0,1-3.05,4c-1.67.77-3.41,1.37-5.13,2C48.34,92.76,47.77,92.94,47.15,93.15Z" style="fill:#fff"/><path d="M26.16,54.14A13.71,13.71,0,0,1,28,55a4.57,4.57,0,0,1,1.81,4.74,7.14,7.14,0,0,1-3.14,5.06,21.55,21.55,0,0,1-3.51,2c-2.87,1.29-5.79,2.49-8.7,3.72l-.47.17c0-.26,0-.45,0-.65q0-11,0-21.91a.74.74,0,0,1,.55-.84c2.16-.83,4.3-1.71,6.46-2.55a9.61,9.61,0,0,1,3.63-.72A4.29,4.29,0,0,1,29,49.22a7.22,7.22,0,0,1-2.36,4.45Zm-6.24,9.44a24.39,24.39,0,0,0,2.46-1.45,3.19,3.19,0,0,0,1.26-3,1.78,1.78,0,0,0-2.23-1.73,5,5,0,0,0-1.2.36.54.54,0,0,0-.28.39C19.91,59.86,19.92,61.62,19.92,63.58Zm-.06-9.33a4.43,4.43,0,0,0,3.06-2.54,2.12,2.12,0,0,0-.29-2.5c-.74-.66-1.61-.33-2.43,0,0,0-.08,0-.1,0s-.23.25-.23.37C19.86,51.14,19.86,52.65,19.86,54.25Z" style="fill:#fff"/><path d="M72.94,37.52l8.65-2v.59c0,2.47,0,4.93,0,7.4A5,5,0,0,1,79.31,48a12.29,12.29,0,0,1-8.78,2.16,7.14,7.14,0,0,1-6.15-5.24,13.73,13.73,0,0,1,1.91-12.47,11.32,11.32,0,0,1,8.2-4.61,12,12,0,0,1,4.36.11,5.36,5.36,0,0,1,1,.33,2.61,2.61,0,0,1,1.55,3.24,2.53,2.53,0,0,1-2.89,1.87c-.56,0-1.12-.14-1.69-.18-3.69-.28-6,2-6.62,5.38a9.07,9.07,0,0,0,.09,4,3.35,3.35,0,0,0,5.11,2.1,1.38,1.38,0,0,0,.78-1.33c0-.67,0-1.35,0-2.12l-1.22.25a1.51,1.51,0,0,1-2-1.45C72.89,39.23,72.94,38.39,72.94,37.52Z" style="fill:#fff"/><path d="M47.7,57.39c0-.26,0-.44,0-.61q0-10.3,0-20.6a.65.65,0,0,1,.55-.77c2.52-.73,5-1.53,7.55-2.22a6.87,6.87,0,0,1,4.1.15A4.38,4.38,0,0,1,63,37.51a8.37,8.37,0,0,1-3,6.7l-.45.4s0,.06,0,0c.58.64,1.13,1.27,1.72,1.86s1.24,1.19,1.85,1.79a3.06,3.06,0,0,1,.23,4.17,3.17,3.17,0,0,1-4.22.47,5.69,5.69,0,0,1-.69-.63l-4.23-4.37a4.79,4.79,0,0,1-.36-.48l-.16.08c0,.19,0,.37,0,.56,0,1.57,0,3.14,0,4.71A3.25,3.25,0,0,1,51.42,56C50.23,56.55,49,56.93,47.7,57.39ZM53.55,44.1a7.37,7.37,0,0,0,3-2.95,3.51,3.51,0,0,0,.35-2.07,1.41,1.41,0,0,0-1.48-1.37,10.52,10.52,0,0,0-1.4.18c-.37.05-.5.24-.49.63,0,.89,0,1.78,0,2.68S53.55,43,53.55,44.1Z" style="fill:#fff"/><path d="M30.36,49c0-2.41,0-4.82,0-7.23a.6.6,0,0,1,.49-.7c1-.31,2-.74,3.07-1a1.77,1.77,0,0,1,2.3,1.68,7.16,7.16,0,0,1,0,.87c0,3.69,0,7.38,0,11.07a5.31,5.31,0,0,0,.16,1.4,1.32,1.32,0,0,0,1.67,1c1.27-.26,2-1.21,2.12-2.83,0-.45,0-.91,0-1.37,0-4.46,0-8.91,0-13.37a.67.67,0,0,1,.55-.78c.89-.26,1.76-.61,2.66-.84,1.57-.39,2.59.36,2.6,2,0,4.56.09,9.13-.07,13.69-.15,4.31-2.45,7.08-6.63,8.48a9.51,9.51,0,0,1-4.4.6,5,5,0,0,1-4.48-4.41,11.87,11.87,0,0,1-.13-1.8c0-2.14,0-4.27,0-6.41Z" style="fill:#fff"/><path d="M97,44.36c0-.29,0-.47,0-.65Q97,33.87,97,24c0-.48.13-.65.62-.72,2.56-.38,5.11-.84,7.68-1.21a6.48,6.48,0,0,1,3.73.62,5.28,5.28,0,0,1,2.6,6.7A7.36,7.36,0,0,1,109,33l-.53.39c.14.17.26.32.38.47L112,37.39c1.26,1.42,1.26,3.15,0,4.23a3,3,0,0,1-4.47-.41l-4.34-5.08-.44-.48c0,.84,0,1.56,0,2.28,0,1,0,2,0,3A2.56,2.56,0,0,1,101,43.42C99.72,43.83,98.4,44,97,44.36Zm5.68-12a5.85,5.85,0,0,0,3-2.48,3,3,0,0,0,.32-2,1.34,1.34,0,0,0-1.15-1.23,9.57,9.57,0,0,0-1.89,0c-.1,0-.25.25-.25.38C102.71,28.81,102.72,30.54,102.72,32.38Z" style="fill:#fff"/><path d="M83,47.4c0-.26,0-.44,0-.62q0-10,0-19.95c0-.41.07-.61.52-.7,3.85-.76,7.69-1.55,11.53-2.32.14,0,.28,0,.53-.06a15,15,0,0,1-.23,3.61,1.87,1.87,0,0,1-1.53,1.26c-1.52.33-3,.66-4.55,1-.34.07-.46.19-.45.53,0,.91,0,1.82,0,2.8L95,31.6c-.05,1.14,0,2.2-.18,3.23a1.7,1.7,0,0,1-1.5,1.35c-1.35.31-2.71.6-4.06.88-.35.07-.49.19-.48.57,0,1.18,0,2.37,0,3.62l7-1.52a35.6,35.6,0,0,1-.27,3.56,2.18,2.18,0,0,1-1.9,1.67l-6.3,1.43Z" style="fill:#fff"/><path d="M116.41,80.5a5.77,5.77,0,1,1,5.75,5.64A5.56,5.56,0,0,1,116.41,80.5Zm10,0a4.24,4.24,0,1,0-4.27,4.41A4.24,4.24,0,0,0,126.41,80.52Z" style="fill:#fff"/><path d="M83.18,104s0,0,0,0h0v-.06Z" style="fill:#fff"/><polygon points="82.94 104.12 82.92 104.08 82.96 104.08 82.94 104.12" style="fill:#fff"/><path d="M121.2,83.61H120V77.25c1.19.07,2.37.07,3.53.23.89.13,1.28.76,1.27,1.71a1.48,1.48,0,0,1-1.3,1.63l-.3.11,1.64,2.71c-.34,0-.59,0-.84,0a.62.62,0,0,1-.69-.39c-.32-.61-.71-1.19-1-1.81A.76.76,0,0,0,121.2,81Zm0-3.69c.56,0,1.08,0,1.6,0a.72.72,0,0,0,.72-.75.69.69,0,0,0-.66-.78c-.53-.07-1.07-.08-1.65-.12Z" style="fill:#fff"/></g></g></svg>