<svg xmlns="http://www.w3.org/2000/svg" viewBox="0 0 199.25 57.72"><title>dosBocas</title><g id="Capa_2" data-name="Capa 2"><g id="Capa_1-2" data-name="Capa 1"><path d="M99.86,45.65a5.82,5.82,0,0,1,3.72,4.26,5.3,5.3,0,0,1-3.24,6.26,12.79,12.79,0,0,1-4.28,1c-4.43.13-8.87,0-13.47,0V35c3,0,6,0,9,0,1.87,0,3.74.11,5.59.31a7.12,7.12,0,0,1,2.46.82,5.27,5.27,0,0,1,.85,9Zm-11,6.91c2.17,0,4.2,0,6.24,0a2.64,2.64,0,0,0,.88-.23,1.88,1.88,0,0,0,1.29-2,1.8,1.8,0,0,0-1.43-1.81c-2.3-.58-4.63-.24-7-.28Zm0-8.89c1.93,0,3.75.09,5.56,0a1.93,1.93,0,0,0,0-3.85c-1.84-.2-3.69-.21-5.61-.31Z" style="fill:#fff"/><path d="M0,57.24V35.18A1.36,1.36,0,0,1,.39,35c3.83,0,7.67-.12,11.5.07A11.11,11.11,0,0,1,21.11,40a11,11,0,0,1-7.78,17,68.65,68.65,0,0,1-7.95.27C3.64,57.27,1.9,57.24,0,57.24ZM6.37,40V52.07c1.76,0,3.42.13,5.05,0,3-.29,4.91-2.56,5-5.7s-1.67-5.58-4.61-6A52.81,52.81,0,0,0,6.37,40Z" style="fill:#fff"/><path d="M118.67,57.68c-3.83.1-7.27-.92-9.92-3.78a11.06,11.06,0,0,1-2.36-11.56c1.38-4.28,4.61-6.64,8.93-7.51s8.51-.05,11.84,3.19a11.61,11.61,0,0,1-8.48,19.66Zm5-9.89c.8-2.56-.36-5.93-2.61-7.14A5.91,5.91,0,0,0,113.53,42a6.9,6.9,0,0,0,.14,8.46,5.88,5.88,0,0,0,7.59,1A6.28,6.28,0,0,0,123.69,47.79Z" style="fill:#fff"/><path d="M36.7,34.54c5.91,0,10.32,2.79,12.1,7.17a11.52,11.52,0,0,1-9.21,15.81,14.12,14.12,0,0,1-9-1.49c-6.48-3.61-6.86-11.53-4-16C29.09,36.07,32.9,34.71,36.7,34.54ZM31.32,46.09c0,3.63,2.44,6.29,5.87,6.33s6-2.57,6-6.2a6,6,0,1,0-11.89-.14Z" style="fill:#fff"/><path d="M162.23,52.94l-1.76,4.27H154l9.82-22.15h6.29l9.79,22.09h-6.62l-1.75-4.22Zm7.39-4.74-2.76-6.86-2.75,6.86Z" style="fill:#fff"/><path d="M198.31,36.55,196.45,41a40.17,40.17,0,0,0-4.63-1.34,12.22,12.22,0,0,0-3.61.1,1.72,1.72,0,0,0-1.53,1.57c-.09.93.67,1.29,1.38,1.5,1.66.49,3.36.89,5,1.35a20,20,0,0,1,2.48.81c4.87,2.07,4.26,7.55,1.95,9.88a9.2,9.2,0,0,1-5.31,2.58,19.69,19.69,0,0,1-10-1.07A22.38,22.38,0,0,1,180,55.29l2-4.7c1.09.48,2.1,1,3.14,1.36a11.68,11.68,0,0,0,5.89.63,1.82,1.82,0,0,0,1-.35c.38-.36.88-.85.88-1.27A1.73,1.73,0,0,0,192,49.7a20.09,20.09,0,0,0-3.09-1c-1.21-.33-2.46-.55-3.66-.91-3.1-.93-4.71-2.8-4.88-5.57a6.7,6.7,0,0,1,4-6.57,14.68,14.68,0,0,1,7.8-1A13.84,13.84,0,0,1,198.31,36.55Z" style="fill:#fff"/><path d="M69.59,36.57,67.74,41A45.93,45.93,0,0,0,63,39.67a11.21,11.21,0,0,0-3.36.08A1.73,1.73,0,0,0,58,41.32c-.09,1.06.7,1.42,1.53,1.65,1.93.53,3.87,1,5.8,1.52a10.28,10.28,0,0,1,1.83.67c4.77,2.34,3.91,8,1.13,10.24a9.69,9.69,0,0,1-4.85,2.09,19.51,19.51,0,0,1-10.36-1.25c-.59-.25-1.14-.59-1.83-.95l2.12-4.75a14,14,0,0,0,6.89,2.17,11.46,11.46,0,0,0,2.58-.23A1.57,1.57,0,0,0,64.26,51,1.52,1.52,0,0,0,63,49.51c-1.28-.41-2.59-.73-3.89-1.08-1-.28-2-.5-3-.84-2.42-.85-4.17-2.31-4.41-5.08A6.25,6.25,0,0,1,55.24,36a13.29,13.29,0,0,1,4.08-1.23,16.84,16.84,0,0,1,9,1.1,6.41,6.41,0,0,1,.7.34C69.17,36.26,69.34,36.39,69.59,36.57Z" style="fill:#fff"/><path d="M150.41,42.44c-3.92-3.19-7.3-3.44-9.81-.8a6.91,6.91,0,0,0-.11,8.87c2.36,2.66,5.85,2.43,9.92-.73l4,3.66a10.17,10.17,0,0,1-5.52,3.7,14.33,14.33,0,0,1-9.09-.34,11.47,11.47,0,0,1,2.19-22c4.11-.69,8-.25,11.25,2.67.38.34.71.74,1.16,1.23Z" style="fill:#fff"/><path d="M102.57,18.4V4.8h1.85V22.33l-1.54.07L91.94,8.62l-.24.09v13.6h-2V4.81l1.56-.08,10.93,13.75Z" style="fill:#fff"/><path d="M41.09,16.39l4.17,5.9H43.12l-3.87-5.41H33.18v5.4h-2V4.75c1.26,0,2.46,0,3.66,0a34,34,0,0,1,5.45.3c4.41.87,5.44,4.85,4.22,8.26A5.41,5.41,0,0,1,41.09,16.39Zm-7.91-1.26c2,0,3.84.05,5.69,0a5.45,5.45,0,0,0,2-.57,3.83,3.83,0,0,0,2.23-3.93,3.72,3.72,0,0,0-2.58-3.7c-2.39-.81-4.85-.36-7.33-.37Z" style="fill:#fff"/><path d="M127.08,4.94a85.65,85.65,0,0,1,8.67.06,5.38,5.38,0,0,1,5.06,5c.36,2.85-.82,4.92-3.59,6.28a3.09,3.09,0,0,0-.29.2l4.13,5.86h-2.13L135,16.86h-6.1v5.45h-1.86ZM129,6.62v8.69c2.28-.13,4.46-.1,6.59-.42s3.31-2,3.28-4.2-1.2-3.78-3.33-4A60.53,60.53,0,0,0,129,6.62Z" style="fill:#fff"/><path d="M112.18,12.6h9v1.7h-9v6.32h9.91l1.6,1.32c-.26.21-.44.48-.62.48-4.26,0-8.52,0-12.87,0V4.79h12V6.47h-10Z" style="fill:#fff"/><path d="M49.44,22.33V4.81h12V6.45H51.35v6.12h9V14.3h-9v6.42H61.82v1.61Z" style="fill:#fff"/><path d="M149.8,22.42l8.09-17.63h2l8,17.51h-2l-2.07-4.48h-9.7L152,22.42ZM155,16h8l-4-8.85-.28,0Z" style="fill:#fff"/><path d="M66.17,4.76H78.36V6.48H68.28v6.62h9l.08,1.79h-9v7.48H66.17Z" style="fill:#fff"/><path d="M145.26,4.8h1.8V22.32h-1.8Z" style="fill:#fff"/><path d="M82.11,4.74h1.82V22.33l-1.82.13Z" style="fill:#fff"/><path d="M150.25.46c-1.79,1-3,3.14-5.64,2.72a32.16,32.16,0,0,1,3.32-3c.53-.37,1.47-.14,2.22-.19Z" style="fill:#fff"/></g></g></svg>