<svg xmlns="http://www.w3.org/2000/svg" viewBox="0 0 199.45 49.87"><title>grupoNicxa</title><g id="Capa_2" data-name="Capa 2"><g id="Capa_1-2" data-name="Capa 1"><path d="M134.4,49.6a10.56,10.56,0,0,1,.52-1.16c1.37-2.17,2.72-4.37,4.17-6.49a1.82,1.82,0,0,0,0-2.38c-1.49-2.2-2.9-4.46-4.34-6.7a3.94,3.94,0,0,1-.19-.43,2.62,2.62,0,0,1,.64-.19,30.14,30.14,0,0,1,3.28,0,2,2,0,0,1,1.28.72c1,1.32,1.89,2.71,2.84,4.07a7.44,7.44,0,0,0,.6.64c.51-.73,1-1.38,1.43-2,.66-1,1.31-2,2-2.94.13-.18.33-.43.51-.44,1.49,0,3,0,4.67,0a13.06,13.06,0,0,1-.6,1.21c-1.4,2.19-2.84,4.36-4.21,6.57a1.48,1.48,0,0,0-.11,1.27c1.56,2.51,3.2,5,4.83,7.44.07.11.22.17.45.34.39-1,.76-1.83,1.1-2.72,1.7-4.4,3.41-8.81,5.09-13.22a1.24,1.24,0,0,1,1.45-.93,38.49,38.49,0,0,0,3.91,0,1.21,1.21,0,0,1,1.34.87q2.12,5.45,4.27,10.89c.58,1.48,1.18,3,1.76,4.44.12.3.22.6.37,1a3.61,3.61,0,0,1-.72.17c-1.15,0-2.31,0-3.46,0a1,1,0,0,1-1.12-.8,5.47,5.47,0,0,0-.27-.66c-.72-1.73-.72-1.73-2.56-1.73-1.45,0-2.9,0-4.35,0a1,1,0,0,0-1.08.8c-.79,2.4-.81,2.41-3.37,2.38-.75,0-1.5-.21-2.25-.26-.23,0-.47.23-.7.23-1.36,0-2.72.05-4.08,0-.29,0-.62-.43-.82-.72-.95-1.36-1.86-2.74-2.79-4.1-.19-.28-.41-.55-.73-1-.77,1.14-1.49,2.14-2.13,3.18-1.67,2.69-1.65,2.69-4.76,2.69Zm27.3-12.55-.35,0-1.92,5.44h4.34Z" style="fill:#fff"/><path d="M97.2,40.14v9.31H93.05V32.39c1.18,0,2.3,0,3.41,0,.23,0,.49.3.66.52q3.28,4.3,6.54,8.62c.15.2.33.38.65.76,0-.55.07-.86.07-1.16,0-2.58,0-5.15,0-7.73,0-.78.25-1.07,1-1s1.6,0,2.4,0c.56,0,.82.2.81.77q0,7.77,0,15.54a4.71,4.71,0,0,1-.15.78c-1.15,0-2.27.05-3.37,0-.31,0-.64-.4-.86-.69-2-2.65-4-5.33-6-8-.2-.27-.43-.51-.65-.76Z" style="fill:#fff"/><path d="M13.29,42.52H9.46c-.59,0-1.16,0-1.15-.83s.47-1,1.16-1c2.1,0,4.2,0,6.3-.06a7.33,7.33,0,0,1,.93.12c0,2,0,4,0,5.91a1.25,1.25,0,0,1-.66.85A16,16,0,0,1,5.07,48.9a6.11,6.11,0,0,1-4.6-4.6,10.69,10.69,0,0,1,.78-8.25,6.74,6.74,0,0,1,4.55-3.23c3.06-.79,6-.11,9,.62.43.11.95.15.81.8s-.39,1.19-1.15,1.09c-1-.13-1.91-.44-2.87-.5a13.38,13.38,0,0,0-3.67.09c-2.45.55-3.41,2.52-3.77,4.76a7,7,0,0,0,1.13,5.58A4.1,4.1,0,0,0,8.49,47a8.32,8.32,0,0,0,4-.56,1.16,1.16,0,0,0,.83-1.2C13.27,44.42,13.29,43.56,13.29,42.52Z" style="fill:#fff"/><path d="M133.44,33.72c-.38.93-.7,1.84-1.15,2.69-.09.17-.69.14-1,.09-1.34-.19-2.67-.54-4-.61-2.53-.14-4,1-4.48,3.47a6.35,6.35,0,0,0,.56,4.57,3.8,3.8,0,0,0,3.22,2,10.8,10.8,0,0,0,5.08-1c.22-.09.43-.19.66-.27a1.71,1.71,0,0,1,.43,0c.38.81.83,1.66,1.16,2.56a1,1,0,0,1-.4.83,12.08,12.08,0,0,1-10.32,1.05A6.76,6.76,0,0,1,119,45a11.18,11.18,0,0,1-.29-7.31,7.35,7.35,0,0,1,6.08-5.41,13.06,13.06,0,0,1,7.8,1C132.87,33.36,133.09,33.52,133.44,33.72Z" style="fill:#fff"/><path d="M20.19,49.07V33a2.32,2.32,0,0,1,.57-.16c2.87.06,5.74,0,8.59.22,3.4.26,5.22,2.74,4.85,6.12a4.59,4.59,0,0,1-3.31,4.15,4.74,4.74,0,0,0-.61.35c.63.85,1.22,1.68,1.83,2.49s1.2,1.6,1.89,2.51a2.56,2.56,0,0,1-.77.4,7.56,7.56,0,0,1-2.12,0,2.41,2.41,0,0,1-1.22-.88A35.75,35.75,0,0,1,27.55,45a2.07,2.07,0,0,0-2.21-1.08,14.33,14.33,0,0,1-1.65,0c0,1.37,0,2.67,0,4,0,.92-.36,1.23-1.19,1.21S21.1,49.07,20.19,49.07Zm3.58-7c.4,0,.69,0,1,0A27.62,27.62,0,0,0,27.95,42a3.53,3.53,0,0,0,3-3.31c.11-1.79-.78-3.4-2.38-3.7a34.93,34.93,0,0,0-4.74-.26Z" style="fill:#fff"/><path d="M40.5,32.81c0,2.39,0,4.61,0,6.83a31.32,31.32,0,0,0,.23,3.8A4.06,4.06,0,0,0,45.66,47a3.88,3.88,0,0,0,2.9-3,9.2,9.2,0,0,0,.35-2.53c0-2.52,0-5,0-7.55,0-.32,0-.64,0-1.08h3.26c0,1,0,1.94,0,2.94,0,2.1,0,4.2-.08,6.31a7.82,7.82,0,0,1-1.47,4.82,5.46,5.46,0,0,1-2.06,1.61,10.1,10.1,0,0,1-8.11.05c-2.1-.88-2.89-2.75-3.22-4.78a30.73,30.73,0,0,1-.19-4.51c0-1.78,0-3.55,0-5.33,0-1.17,0-1.17,1.21-1.17Z" style="fill:#fff"/><path d="M80.58,32.29c1.47.4,3,.69,4.39,1.23a5.71,5.71,0,0,1,3.2,3.6,10.59,10.59,0,0,1,0,7.54,7,7,0,0,1-5.58,4.52,10,10,0,0,1-5.74-.44,6.7,6.7,0,0,1-4.37-5.85,13,13,0,0,1,.31-5.25A6.48,6.48,0,0,1,78,32.84c.82-.2,1.68-.26,2.53-.39Zm-5.19,8.52c0,.33,0,.65,0,1,.18,2.22,1,4.72,4.47,5.35a4.86,4.86,0,0,0,5.33-2.62,8.19,8.19,0,0,0,.58-5.6c-.46-1.9-1.36-3.37-3.25-4a5.19,5.19,0,0,0-5.58,1.22A5.84,5.84,0,0,0,75.39,40.81Z" style="fill:#fff"/><path d="M56.29,49.11V33c.13-.09.18-.15.23-.15,3,0,6.09-.38,9.09.32,3.31.77,4.52,3.64,4,6.88C69.05,43,67,44.25,63.89,44.6a25.92,25.92,0,0,1-3.55,0c-.7,0-.95.27-.93.95,0,.89,0,1.77,0,2.66,0,.57-.26.88-.86.88Zm3.19-6.49c1.39,0,2.69,0,4,0a3.36,3.36,0,0,0,3.21-2.81c.42-1.81-.24-3.79-1.61-4.43-1.74-.81-3.63-.54-5.58-.69Z" style="fill:#fff"/><path d="M112,49.52v-17h4a12.28,12.28,0,0,1,.15,1.34c0,4.85,0,9.71.07,14.56,0,.85-.29,1.18-1.14,1.13S113.12,49.52,112,49.52Z" style="fill:#fff"/><path d="M168.22,20.19l1.33,1.58Z" style="fill:#fff"/><path d="M166.7,14.57l.11,1.76Z" style="fill:#fff"/><path d="M166.81,12.4l-.12,1.42Z" style="fill:#fff"/><path d="M167.31,18.32l.46,1.11Z" style="fill:#fff"/><path d="M167.15,10.87l-.26.82Z" style="fill:#fff"/><path d="M166.9,17.06l.14.47Z" style="fill:#fff"/><path d="M169.57,21.79l.35.29Z" style="fill:#fff"/><path d="M170.85,22.72l.5.27Z" style="fill:#fff"/><path d="M199.37,12.37c-.3,0-.59,0-.87,0h-8.17a3.29,3.29,0,0,0-.53,0,1,1,0,0,0-.86,1.16c0,.23.52.55.85.61,1.77.31,2.09.63,1.86,2.41-.28,2.17-.66,4.33-1,6.48a3.87,3.87,0,0,1-.34.75c-.26-.44-.43-.71-.58-1-1.63-3.19-3.27-6.37-4.87-9.57a1.32,1.32,0,0,0-1.37-.86c-1.66,0-3.32,0-5,0-1.06,0-1.42.5-1.19,1.7.57.11,1.18.19,1.77.33,1.14.27,1.37.57,1.17,1.67-.3,1.66-.65,3.31-1,5-.26,1.16-.83,1.58-2,1.31a5.46,5.46,0,0,1-1.89-.9,5.77,5.77,0,0,1-2.19-3.46c-1-4.48-.6-8.78,2.14-12.63,1.45-2,3.35-3.34,6-3.13a2.61,2.61,0,0,1,2.54,1.86,18.5,18.5,0,0,1,.59,2.22c.12.62.28,1.09,1,1s1.32-.29,1.46-1.13c.23-1.46.45-2.93.75-4.37.17-.81-.1-1.13-.86-1.3A19,19,0,0,0,180.6.1a15.84,15.84,0,0,0-11.93,6.95,17.87,17.87,0,0,0-1.39,3.25l-.13.57-.26.82-.08.71-.12,1.42v.75l.11,1.76.09.73.14.47.27.79.46,1.11.45.76,1.33,1.58,0,0,.35.29.93.64.5.27.21.09a6.55,6.55,0,0,0,.73.46,10.41,10.41,0,0,0,4.6.75h1.55a1.92,1.92,0,0,1,.07.47c-.38,2.12-.72,4.25-1.19,6.35-.09.39-.63.71-1,1-.23.17-.63.12-.81.32a1.69,1.69,0,0,0-.43,1c0,.13.47.43.73.43,2.9,0,5.8,0,8.69,0a1.18,1.18,0,0,0,.86-.64c.26-.7,0-1-.94-1-1.45-.13-2-.76-1.83-2,.44-2.65.9-5.29,1.37-7.93a13,13,0,0,1,.45-1.43c.32.59.5.92.69,1.25l1.15,2,.14.31.21.39.15.32.2.4.42.84c.27.65.49,1.31.81,1.93.74,1.43,1.52,2.83,2.29,4.24l.31.58.25.41a.14.14,0,0,0,.1.11c.62.68,1.42.29,2.09.21.27,0,.57-.7.65-1.12.3-1.51.5-3,.77-4.54.69-3.9,1.41-7.79,2.11-11.68.21-1.2.43-2.32,2-2.53C199.41,13.76,199.57,13.1,199.37,12.37Z" style="fill:#fff"/></g></g></svg>