<svg xmlns="http://www.w3.org/2000/svg" viewBox="0 0 163.21 69.66"><title>holcim</title><g id="Capa_2" data-name="Capa 2"><g id="Capa_1-2" data-name="Capa 1"><path d="M58.38,52.28V40.93h5.34V69.15H58.38V56.95H46.52v12.2H40.93V40.93h5.59V52.28H58.38m24.49,6.44c0,4.32-1.53,6.43-4.49,6.43-3.13,0-4.75-2.11-4.75-6.43,0-4.15,1.61-6.27,4.75-6.27C81.35,52.45,82.88,54.57,82.88,58.73Zm5.59-.34c0-6.86-3.22-10.34-9.74-10.34a9.84,9.84,0,0,0-7.63,3.13,11.38,11.38,0,0,0-3,8.05c0,6.94,3.22,10.42,9.75,10.42a9.85,9.85,0,0,0,7.62-3.13,11.56,11.56,0,0,0,3-8.14m4.41,10.76h5.25V38.64H92.88Zm9.57-9.57C102.45,51.86,106,48,113.21,48l4.24.51a41.83,41.83,0,0,1-.51,4.75l-3.73-.68c-3.48,0-5.17,2.12-5.17,6.44,0,4,1.7,5.93,5,5.93a28.75,28.75,0,0,0,4.07-.93l.34,4.57a16.29,16.29,0,0,1-5.6,1c-6.27,0-9.4-3.39-9.4-10.08M124.4,45.84q-3.31,0-3.31-3.3c0-2.29,1.1-3.39,3.31-3.39s3.3,1.1,3.3,3.39S126.6,45.84,124.4,45.84Zm-2.63,3H127V69.15h-5.26V48.81m28.9,10.43v9.91h-5.34V56.1c0-2.46-.85-3.64-2.46-3.64a4,4,0,0,0-3.3,1.86,8.85,8.85,0,0,0-1.44,4.92v9.91h-5.34V48.81h5l-.17,3.48A6.89,6.89,0,0,1,144.39,48c3.13,0,5.09,1.44,5.76,4.24A7.12,7.12,0,0,1,156.93,48c4.15,0,6.27,2.29,6.27,6.86V69.15h-5.34V56.1c0-2.46-.85-3.64-2.46-3.64a3.85,3.85,0,0,0-3.14,1.86,7.31,7.31,0,0,0-1.61,4.92" style="fill:#fff"/><path d="M45.59,14.06A21.58,21.58,0,0,0,29.74,7.45a23,23,0,0,0-5.74.7L15.85,0,10.59,5.42l6.18,6.18a24.64,24.64,0,0,0-2.87,2.46,25.63,25.63,0,0,0-2.42,2.85L5.42,10.76,0,16l8,8A23,23,0,0,0,7.29,30,21.85,21.85,0,0,0,13.9,45.84a21.57,21.57,0,0,0,15.85,6.61V47a16.08,16.08,0,0,1-11.95-5.08,16,16,0,0,1-4.91-12c0-.36,0-.71,0-1.06L16,32l5.25-5.17h0L15.46,21a16.87,16.87,0,0,1,2.34-2.83,17.88,17.88,0,0,1,3-2.49l5.8,5.8L31.86,16l-2.95-2.95.83,0a16,16,0,0,1,12,4.91,16.43,16.43,0,0,1,4.91,12h5.59A21.65,21.65,0,0,0,45.59,14.06Z" style="fill:#fff"/></g></g></svg>