<svg xmlns="http://www.w3.org/2000/svg" viewBox="0 0 128.81 129.15"><title>kfc</title><g id="Capa_2" data-name="Capa 2"><g id="Capa_1-2" data-name="Capa 1"><path d="M64.65,0l56.88.14c.59,0,1.19,0,1.78,0A4.87,4.87,0,0,1,127,1.7a5.37,5.37,0,0,1,1.82,4.43c-.22,3-.44,6.06-.66,9.1q-.27,3.63-.55,7.26T127,29.75q-.28,3.57-.55,7.14-.33,4.27-.67,8.54l-.66,8.42q-.35,4.48-.71,9-.32,4.12-.64,8.24-.34,4.33-.69,8.66-.27,3.39-.53,6.77-.33,4.18-.67,8.36t-.68,8.36q-.35,4.3-.7,8.6-.32,3.93-.65,7.87c-.13,1.52-.22,3.05-.41,4.57a5.22,5.22,0,0,1-2.08,3.49,6.12,6.12,0,0,1-3.95,1.4q-18.55,0-37.1,0H24.1q-4.5,0-9-.07a6,6,0,0,1-5.55-4.17,8.19,8.19,0,0,1-.24-1.69Q8.85,117.61,8.4,112l-1-12.2q-.49-6.07-1-12.14t-1-12.32l-1-12.26-1-12.39q-.49-6.16-1-12.32t-1-12.45q-.49-6.29-1-12.57C.38,11,.19,8.61,0,6.25A6.1,6.1,0,0,1,3.78.47,5.86,5.86,0,0,1,6,.08L52.22,0H64.65Zm-.14,127.57v-.1h37.41c4,0,8-.07,11.94-.07a4,4,0,0,0,3.2-1.64,3.41,3.41,0,0,0,.84-1.87c.18-2,.34-3.9.5-5.85q.33-4,.65-8.05.34-4.18.68-8.36c.22-2.79.44-5.57.66-8.36s.46-5.53.68-8.3.44-5.66.66-8.48q.46-5.74.93-11.47.43-5.34.85-10.68.56-7,1.11-14.09.49-6.19,1-12.39t1-12.63c.22-2.91.38-5.82.67-8.72A4.48,4.48,0,0,0,124.53,2a3.36,3.36,0,0,0-1.3-.28q-19.68-.07-39.37-.1-25.62,0-51.25,0c-8.94,0-17.88.06-26.82.1a3.48,3.48,0,0,0-1,.12A4.5,4.5,0,0,0,1.62,6.54c.15,1.4.21,2.81.32,4.21q.26,3.42.52,6.84c.18,2.36.38,4.72.56,7.08s.36,4.68.54,7c.22,2.83.46,5.65.68,8.48s.43,5.61.66,8.42S5.37,54.2,5.6,57c.18,2.3.35,4.6.54,6.9.26,3.29.54,6.59.81,9.88.23,2.81.43,5.61.66,8.42q.52,6.41,1,12.81.37,4.51.73,9,.43,5.34.86,10.67c.22,2.76.43,5.53.67,8.29a5.34,5.34,0,0,0,.34,1.79,4.15,4.15,0,0,0,4,2.65h.67Z" style="fill:#fff"/><path d="M11.68,90.71c-.05-.49-.11-.91-.14-1.33-.26-3.33-.52-6.67-.79-10-.3-3.82-.62-7.64-.93-11.47-.23-2.87-.44-5.74-.67-8.6-.26-3.31-.54-6.63-.8-9.94-.18-2.32-.35-4.64-.54-7-.23-2.87-.46-5.73-.69-8.6C7,31.54,6.78,29.26,6.6,27q-.34-4.36-.69-8.72-.2-2.5-.39-5c-.14-2-.28-3.91-.42-5.86A2,2,0,0,1,7.22,5C8.11,5,9,5,9.91,5H33V90.77C25.85,90.76,18.78,90.79,11.68,90.71Z" style="fill:#fff"/><path d="M117.18,90.72H96c-.13-.46-.17-84.85,0-85.68.16,0,.34,0,.52,0l25.16,0a2.07,2.07,0,0,1,1.59.65,1.72,1.72,0,0,1,.52,1.38c-.19,2.44-.37,4.88-.55,7.32q-.2,2.69-.41,5.37-.48,6.19-1,12.39-.27,3.51-.54,7-.4,5.19-.81,10.37c-.14,1.77-.27,3.54-.41,5.31q-.3,3.9-.61,7.81-.47,5.92-.94,11.83c-.18,2.28-.35,4.55-.53,6.83q-.36,4.45-.73,8.9C117.25,90.37,117.21,90.53,117.18,90.72Z" style="fill:#fff"/><path d="M69.85,71h.7l2.32.09a1.63,1.63,0,0,1,.3,0c.88.21,1.11.44,1.11,1.34,0,1.18,0,2.36-.09,3.55,0,.7-.21.84-.93.81s-1.38-.12-2.08-.14c-1.2,0-2.41-.05-3.61-.07a6.35,6.35,0,0,0-.68.07,5.79,5.79,0,0,0,.11.68,37.71,37.71,0,0,1,1.29,8c.11,1.73.11,3.46.13,5.2a7.27,7.27,0,0,1-.14,1.28c-.07.41-.2.5-.61.55l-2.48.33c-.57.08-.74,0-.78-.63,0-.18,0-.37,0-.55q0-4.65.09-9.3a.28.28,0,0,0-.13-.23c-.07.18-.14.36-.2.54a70.63,70.63,0,0,1-3.25,8.18,2.93,2.93,0,0,1-.17.32c-.23.36-.36.41-.76.26s-.48-.24-.72-.33c-.57-.2-1.15-.41-1.74-.57s-.66-.26-.41-.8.43-.88.65-1.32c1.4-2.77,2.56-5.65,3.69-8.53.32-.82.66-1.63,1-2.44a4.33,4.33,0,0,0,.13-.54c-.29,0-.53,0-.76,0l-5.75.13a4.89,4.89,0,0,1-1-.11.72.72,0,0,1-.64-.77c0-.9,0-1.79,0-2.69a10.62,10.62,0,0,1,.1-1.28c.06-.51.17-.64.68-.72a14,14,0,0,1,1.4-.13A26.05,26.05,0,0,0,59.3,71c-.16-.14-.31-.28-.48-.41-1.12-.85-2.26-1.69-3.36-2.56A18.34,18.34,0,0,1,52,64.53,12.15,12.15,0,0,1,49.56,59a4.47,4.47,0,0,0-.36-1.16,14.42,14.42,0,0,1-1.23-5,3.46,3.46,0,0,0-.06-.42.42.42,0,0,0-.41-.38h-.12a2.36,2.36,0,0,1-2.44-1.74,10.72,10.72,0,0,1-.59-1.86c-.43-2.12-1.08-4.18-1.67-6.26-.34-1.22-.62-2.45-.86-3.69a6.92,6.92,0,0,1-.08-1.71,1.91,1.91,0,0,1,1.51-2c0-.23-.06-.45-.11-.65L41.44,27c0-.1,0-.2-.06-.3a2.65,2.65,0,0,1,1.12-2.88c1.35-1,1.45-1.84.69-3.35-.16-.31-.35-.6-.53-.89s-.51-.7-.32-1.18a1.87,1.87,0,0,1,1.15-1.27,8.37,8.37,0,0,1,1.44-.26c.59-.07,1.18-.08,1.77-.13a4.35,4.35,0,0,0,.59-.15,6.51,6.51,0,0,1-2.51-2.74,1.5,1.5,0,0,1,1-.29,8.06,8.06,0,0,0,2.77-.72,5.37,5.37,0,0,0,2.25-2.18,1.9,1.9,0,0,0,.2-.63,1.06,1.06,0,0,1,.57-.82c.45-.24.91-.47,1.37-.67a31.4,31.4,0,0,1,9.23-2.52,31,31,0,0,1,4.46,0,19.94,19.94,0,0,1,11,4.06,21,21,0,0,1,7.94,12,30.85,30.85,0,0,1,.63,3.36,3.07,3.07,0,0,0,1.07,2.19.78.78,0,0,1,.31.81c-.14.78-.26,1.57-.47,2.33-.31,1.14-.69,2.26-1,3.39-.17.56-.17.58.33.88A2,2,0,0,1,87.44,37a12.56,12.56,0,0,1-.38,3.39Q85.92,44.7,84.71,49A10.68,10.68,0,0,1,84,50.75,2.17,2.17,0,0,1,82.11,52c-.93.08-.93.11-1,1.08a21.4,21.4,0,0,1-1.3,6.51c-.2.56-.42,1.11-.63,1.66A13,13,0,0,1,75.94,66,39,39,0,0,1,70,70.74a2,2,0,0,0-.19.15Zm9.28-48.29.18-.06a7.06,7.06,0,0,1,.46.61,19.09,19.09,0,0,1,1.76,3.9c.4,1.22.76,2.45,1.15,3.68.08.26.11.57.4.71a.83.83,0,0,0,.4-.71c.07-.59.13-1.18.17-1.76a23.29,23.29,0,0,0-.52-7.41,15.29,15.29,0,0,0-5.51-8.8A25,25,0,0,0,71.2,9.24,18.91,18.91,0,0,0,65.62,8a24.43,24.43,0,0,0-8.28,1,11.54,11.54,0,0,0-1.69.7.79.79,0,0,0-.53.68l.66.07a6.85,6.85,0,0,1,.9.13c.33.09.38.33.09.51a7.07,7.07,0,0,1-.82.4c-.9.44-1.83.81-2.68,1.33A24.72,24.72,0,0,0,51,14.48a.82.82,0,0,0-.37.71l.74-.24c.56-.2,1.11-.42,1.67-.59a12.17,12.17,0,0,1,6.34-.42,12.55,12.55,0,0,1,6.52,4c.35.37.32.57,0,.94s-.5.43-.73.65a.9.9,0,0,1-1.17.14,10,10,0,0,0-3.38-1,6.56,6.56,0,0,0-6.17,2.2A11.14,11.14,0,0,0,52,25.25c-.39,1.37-.68,2.77-1,4.16a1.43,1.43,0,0,1-.85,1.1,2.33,2.33,0,0,0-1.43,2.82c.17,0,.35,0,.53,0,.92,0,1.84,0,2.75,0,1.84,0,3.67,0,5.51.07A5.94,5.94,0,0,1,61.64,35c.13.12.29.23.43.34a1.32,1.32,0,0,0,1.2.26,2.69,2.69,0,0,1,1.2-.11,2.39,2.39,0,0,0,2.35-.65,3.77,3.77,0,0,1,.4-.29,5.06,5.06,0,0,1,2.54-1c1.08-.09,2.15-.18,3.23-.2a42,42,0,0,1,7.76.29,3.92,3.92,0,0,0,.56,0,5.05,5.05,0,0,0,0-.78,10.64,10.64,0,0,0-2.07-5.6,1.32,1.32,0,0,1-.29-.91c0-.86,0-1.71,0-2.57C79,23.41,79.09,23.08,79.13,22.74ZM82,40.85a5.35,5.35,0,0,1-.11-.82c0-.82.07-1.63.08-2.45a5.37,5.37,0,0,0-.1-1.09c-.08-.41-.25-.51-.65-.44s-.51.14-.77.2a1.32,1.32,0,0,0-1.06,1.13c-.13.68-.29,1.36-.44,2a11.11,11.11,0,0,1-.88,2.66,3.46,3.46,0,0,1-2.24,1.85,7.61,7.61,0,0,1-1.2.24,1.75,1.75,0,0,1-.71-.1.56.56,0,0,1-.35-.59c0-.28.19-.39.41-.47s.4-.08.59-.15a13.8,13.8,0,0,0,1.56-.67A1.79,1.79,0,0,0,77,41c.12-.45,0-.6-.4-.72a5.25,5.25,0,0,0-.72-.14.9.9,0,0,1-.77-.52A1.22,1.22,0,0,0,73.85,39a7.58,7.58,0,0,0-1,.12,7.63,7.63,0,0,1-4.72-.55c-.19-.09-.39-.23-.66,0,.08.22.16.44.23.67.14.42,0,.65-.37.92a.7.7,0,0,1-1,0,2.79,2.79,0,0,1-.54-.8c-.19-.43-.29-.89-.45-1.33a1.08,1.08,0,0,0-1.13-.84c-.55,0-.84.21-1,.86a12.5,12.5,0,0,0-.35,1.73,9.73,9.73,0,0,1-.88,3.23,5.78,5.78,0,0,0-.43,1.21,2.55,2.55,0,0,0,.88,2.8,4.53,4.53,0,0,0,1.77.94,5.37,5.37,0,0,0,4.39-1,.91.91,0,0,0,.36-1c-.05-.3-.14-.6-.18-.9s.1-.62.54-.56a2.17,2.17,0,0,1,.41.11,4.2,4.2,0,0,1,1.93,1.35c.37.46.72.94,1.07,1.42a6.49,6.49,0,0,0,2.44,2.26,1.38,1.38,0,0,1,.8,1.22A14,14,0,0,1,76,52.43a5.21,5.21,0,0,1-1.29,3.48,2.94,2.94,0,0,0-.64,1.37c-.13.53-.24,1.08-.4,1.6a2.61,2.61,0,0,1-.37.76c-.24.33-.48.3-.62-.08a4.32,4.32,0,0,1-.2-1c-.05-.42-.05-.86-.1-1.28a1.46,1.46,0,0,0-2-1.32c-.32.08-.63.18-.94.28a10,10,0,0,1-3.31.49c-.75,0-1.51-.09-2.26-.07a7.64,7.64,0,0,0-1.5.24c-.22.05-.5.16-.51.46s.27.38.49.47a2.45,2.45,0,0,1,.51.2,1.7,1.7,0,0,1,.59.58,3,3,0,0,1,.09,1.92c0,.06-.11.1-.17.16-.52-.36-.57-1.12-1.2-1.36-.28.17-.26.41-.22.66a6.59,6.59,0,0,1-.16,2.79c-.14.53-.29,1.06-.43,1.59a4.64,4.64,0,0,0,.36,3.5,12.86,12.86,0,0,0,2.74,3.57,4.91,4.91,0,0,0,.94.67c.51.28.72.18.81-.37a5.14,5.14,0,0,1,1.29-2.66,3.19,3.19,0,0,0,.89-2.46,6.28,6.28,0,0,1,.07-.93,3,3,0,0,1,.54.35,1.42,1.42,0,0,0,1.68.29,10.67,10.67,0,0,0,4.47-3,15.55,15.55,0,0,0,3.39-6.5,19.28,19.28,0,0,0,.66-4.65,4.65,4.65,0,0,1,1-2.63c.29-.41.39-.43.88-.29a1,1,0,0,0,1.39-.52,7.22,7.22,0,0,0,.68-1.57c.52-1.82,1-3.66,1.48-5.49.25-1,.48-2,.67-3a3.48,3.48,0,0,0,0-1.21,1,1,0,0,0-1-.8.91.91,0,0,0-.85.68,2.86,2.86,0,0,0-.14,1.5A1.72,1.72,0,0,1,82,40.85ZM45.45,34.26c.82-.21,1.11-.52,1.18-1.22,0-.43.08-.85.11-1.28A23.41,23.41,0,0,1,47.84,26a4.42,4.42,0,0,1,1.45-2.21A5.43,5.43,0,0,0,50.73,22a9.51,9.51,0,0,1,5-4.61c.2-.08.38-.2.63-.33a1.79,1.79,0,0,0-1.4-.34,8.73,8.73,0,0,0-3.05.84c-.45.2-.89.41-1.34.59a18.68,18.68,0,0,1-4.79,1.19c-.87.1-.89.17-.53,1a13.51,13.51,0,0,1,.5,1.31,2.35,2.35,0,0,1-.38,2.31,8,8,0,0,0-.8,1.23,8.53,8.53,0,0,0-.58,1.4A4.14,4.14,0,0,0,44,28.75c.37,1.63.79,3.25,1.19,4.87A5.37,5.37,0,0,0,45.45,34.26ZM60,39a2.91,2.91,0,0,0-.54,0,7.4,7.4,0,0,1-2.86-.05,3.53,3.53,0,0,0-3.74,1.21c-.42.5-.73.49-1.28.12-.22-.15-.41-.34-.64-.47a.44.44,0,0,0-.72.39,1.81,1.81,0,0,0,.26.79,3.46,3.46,0,0,0,1.34,1.22c.18.1.36.18.54.29a.61.61,0,0,1,.14,1.06.68.68,0,0,1-.8.1c-.44-.17-.86-.37-1.3-.54-.68-.25-.91-.05-.8.67a1,1,0,0,0,0,.18c.32.92.6,1.86,1,2.77a3.91,3.91,0,0,0,.75,1.11,1.44,1.44,0,0,0,1.56.44A4.43,4.43,0,0,0,54,47.83a14.88,14.88,0,0,1,2.64-1.41.94.94,0,0,0,.55-.61c.16-.44.36-.86.54-1.29,0-.09.05-.18.1-.35h-.89a5.83,5.83,0,0,1-.79-.05c-.42-.07-.52-.21-.52-.61s.1-.47.52-.53.65-.07,1-.13A4.42,4.42,0,0,0,59.23,42a1.16,1.16,0,0,0,.45-1.46.92.92,0,0,1,.18-1.25S59.91,39.16,60,39ZM73.35,51.77l-.57-.35a6.14,6.14,0,0,1-.94-.56c-.47-.41-.9-.88-1.34-1.33-.28-.29-.54-.61-.83-.9a.67.67,0,0,0-.83-.19,10.25,10.25,0,0,0-2.37,1.36,2.62,2.62,0,0,1-2,.69,5.57,5.57,0,0,1-3.08-1,1.74,1.74,0,0,0-1.74-.2,11,11,0,0,0-1.2.59c-.9.51-1.8,1-2.7,1.56a4.72,4.72,0,0,0-.5.4,2.48,2.48,0,0,0,.48.39,5.82,5.82,0,0,0,1.25.46,11.78,11.78,0,0,0,6.2-.51,3.14,3.14,0,0,1,2.09-.08l.82.25a11.41,11.41,0,0,0,4.72.43,12.35,12.35,0,0,0,1.85-.38A.8.8,0,0,0,73.35,51.77ZM56.76,58a5.75,5.75,0,0,0-.46.6c-.16.28-.28.59-.43.88-.27.53-.53.56-.87.06a5.31,5.31,0,0,1-.52-1,19.84,19.84,0,0,1-1.11-4.69c-.09-.67-.13-1.34-.22-2a.71.71,0,0,0-1-.65,2.24,2.24,0,0,0-.67.28,2.62,2.62,0,0,0-1.2,1.77,4.32,4.32,0,0,0,.06,1.88,14.08,14.08,0,0,0,4.37,7.34,6.55,6.55,0,0,0,1.76,1.07,3.53,3.53,0,0,0,1.37.19c.47,0,.59-.21.52-.68a1.7,1.7,0,0,0-.05-.24c-.43-1.38-.86-2.76-1.29-4.14A5.79,5.79,0,0,0,56.76,58ZM46.56,46.08a1.66,1.66,0,0,0,.14-1.19c-.19-1.25-.41-2.49-.61-3.73a4.53,4.53,0,0,1,0-2.64.84.84,0,0,0,0-.3,1.27,1.27,0,0,0-1-1.37,1.07,1.07,0,0,0-1.18,1.06A5,5,0,0,0,44,39.59c.32,1.41.72,2.8,1.09,4.19.11.41.2.83.34,1.23A1.49,1.49,0,0,0,46.56,46.08Zm11.76-9.27a2.32,2.32,0,0,0-.16-.49,1.63,1.63,0,0,0-1.09-.72,3,3,0,0,0-2,.33c-.76.39-1.49.83-2.22,1.27a3.25,3.25,0,0,0-.48.43.67.67,0,0,0,.86.26,12,12,0,0,0,1.36-.52,5.79,5.79,0,0,1,3-.57C57.8,36.83,58,36.81,58.32,36.81Zm10,17.59v-.19a5.55,5.55,0,0,0-.57-.12A36.14,36.14,0,0,0,62,54a4.91,4.91,0,0,0-.71.16,2,2,0,0,0,1.61.93,19.27,19.27,0,0,0,4.61-.42A9.27,9.27,0,0,0,68.37,54.4Zm8-16.17c-.95-.75-1.83-1.5-2.77-2.16a2,2,0,0,0-1.16-.26,3.24,3.24,0,0,0-1.79.72,1.89,1.89,0,0,0-.29.38,1.9,1.9,0,0,0,1.21,0,3.08,3.08,0,0,1,2.57.63,8.94,8.94,0,0,0,1.43.79A.61.61,0,0,0,76.4,38.22Zm-1.57-2.75a4,4,0,0,0,2.35,1.77.62.62,0,0,0,.67-.69,1.15,1.15,0,0,0-1-1.14,16.8,16.8,0,0,0-1.82,0C75,35.38,74.89,35.44,74.83,35.47ZM49.76,36.82c0,.51.34.73.8.47.76-.43,1.5-.91,2.23-1.39.1-.06.2-.25.18-.33a.43.43,0,0,0-.33-.2,4.45,4.45,0,0,0-1.87.22A1.61,1.61,0,0,0,49.76,36.82Zm8.91,8.52a2.09,2.09,0,0,0,.55,1.57c.19.18.42.4.69.28s.25-.49.19-.76a2.84,2.84,0,0,1,0-1.74c.09-.24,0-.39-.24-.49a.56.56,0,0,0-.8.2A6.2,6.2,0,0,0,58.68,45.35ZM81.13,35c-.12-.17-.17-.31-.25-.34a6.6,6.6,0,0,0-1.12-.25.39.39,0,0,0-.45.45c0,.26.23.5.47.46C80.21,35.23,80.64,35.1,81.13,35Zm-32.3.27c.36,0,.62-.18.62-.45a.49.49,0,0,0-.61-.44,5.91,5.91,0,0,0-.94.22.39.39,0,0,0-.19.26c0,.05.11.17.19.19C48.21,35.13,48.53,35.18,48.83,35.25Z" style="fill:#fff"/><path d="M45.83,107.92c.17.28.29.52.45.73q2.78,3.77,5.57,7.52a15.59,15.59,0,0,0,1.09,1.24,2.3,2.3,0,0,0,1.51.73l.3,0c.64.12.81.32.68,1-.09.44-.23.86-.35,1.3a.45.45,0,0,1-.44.35c-.16,0-.33,0-.49,0-2,0-3.92,0-5.87-.11A6.23,6.23,0,0,1,44,118.83a16.15,16.15,0,0,1-2.41-3.15c-.86-1.43-1.68-2.89-2.52-4.34l-.45-.76a2.25,2.25,0,0,0-.2.42c-.37,1.8-.72,3.6-1.09,5.39a1.18,1.18,0,0,0,.52,1.27,3.16,3.16,0,0,0,.52.31.65.65,0,0,1,.41.74c-.09.52-.19,1-.29,1.56a.56.56,0,0,1-.52.45,9.27,9.27,0,0,1-1.09.11H27.94a7.43,7.43,0,0,1-1.28-.12c-.43-.08-.54-.27-.47-.7a3.68,3.68,0,0,1,.13-.53c.29-.91.08-1.19,1.33-1.5a2.14,2.14,0,0,0,1.16-1,5.79,5.79,0,0,0,.89-2.13q1.36-6.28,2.69-12.56a1.68,1.68,0,0,0-1-2c-.7-.39-.72-.42-.57-1.21.07-.38.18-.75.27-1.13a.55.55,0,0,1,.56-.47l.37,0,9.61,0a3.34,3.34,0,0,1,.79.09c.35.09.45.23.39.58a9.21,9.21,0,0,1-.35,1.42,1.31,1.31,0,0,1-.47.52c-.21.16-.47.25-.69.4a1.71,1.71,0,0,0-.76,1q-.7,3.07-1.39,6.14a1.73,1.73,0,0,0,0,.3c.18-.12.32-.2.44-.3l7.14-6a5.51,5.51,0,0,0,.67-.63c.29-.34.25-.54-.12-.8l-.21-.13a.72.72,0,0,1-.38-.82c.07-.42.15-.84.25-1.26s.16-.49.62-.53,1-.05,1.47,0l7.65,0a3.37,3.37,0,0,1,.72.1.43.43,0,0,1,.35.55c-.1.48-.22,1-.35,1.42a.71.71,0,0,1-.64.5c-.26,0-.52.08-.78.14a5.19,5.19,0,0,0-2.13,1c-2.47,2-5,4.06-7.43,6.09C46.24,107.54,46.07,107.71,45.83,107.92Z" style="fill:#fff"/><path d="M66.51,111.89c-.26,1.3-.51,2.51-.75,3.73,0,.2,0,.41,0,.61a1.57,1.57,0,0,0,.93,1.69c.58.3.6.38.47,1-.09.46-.22.91-.32,1.37a.53.53,0,0,1-.56.45c-.67,0-1.35.1-2,.09-2.2,0-4.41-.06-6.61-.1a6.74,6.74,0,0,1-.73-.1A10.39,10.39,0,0,1,57,119.6c.8-3.73,1.62-7.45,2.42-11.18q.63-2.93,1.23-5.87a4,4,0,0,0,.08-.91,1.53,1.53,0,0,0-.88-1.24c-.82-.52-.83-.51-.63-1.45.3-1.43.3-1.43,1.75-1.43l17.76,0c.35,0,.69,0,1,0,.52,0,.61.15.5.66-.32,1.47-.66,2.95-1,4.42-.09.38-.2.75-.28,1.13a.58.58,0,0,1-.63.54c-.57,0-1.14,0-1.71,0s-.57-.16-.6-.61c0-.26,0-.53,0-.8a1.45,1.45,0,0,0-1.55-1.54c-1.35-.05-2.69-.05-4-.07H68.86l-1.33,6.17c.43,0,.79.07,1.15.07l5.63,0c1.07,0,1.15.11.93,1.13-.18.84-.39,1.67-.6,2.5-.14.53-.15.55-.7.57-1.82,0-3.63.05-5.45.07Z" style="fill:#fff"/><path d="M93.24,121.2a22,22,0,0,1-7.16-.85,12.16,12.16,0,0,1-3.88-2,8.59,8.59,0,0,1-3.32-5.8,12.5,12.5,0,0,1,3.61-10.91A13.94,13.94,0,0,1,88,98.32a24.61,24.61,0,0,1,9.35-1.15,24,24,0,0,1,4.29.65,4.16,4.16,0,0,1,.41.11c.44.16.55.29.53.77a6.89,6.89,0,0,1-.15,1.15c-.26,1.24-.55,2.47-.83,3.7,0,.14-.07.28-.11.41-.22.75-.34.85-1.1.87a11.51,11.51,0,0,1-1.22,0c-.45,0-.56-.17-.63-.6,0-.28,0-.57-.1-.85a2.75,2.75,0,0,0-1.75-2.12,5.49,5.49,0,0,0-3.37-.15A7.62,7.62,0,0,0,88,105.25a9.92,9.92,0,0,0-1.15,5.26A6.16,6.16,0,0,0,91,116.19a11,11,0,0,0,5.6.55c.89-.11,1.76-.34,2.64-.51.22,0,.44-.11.66-.14.54-.07.76.09.69.63-.13.93-.32,1.85-.51,2.76a1,1,0,0,1-.85.79c-.84.18-1.67.4-2.51.52C95.41,121,94.07,121.1,93.24,121.2Z" style="fill:#fff"/></g></g></svg>