<svg xmlns="http://www.w3.org/2000/svg" viewBox="0 0 171.78 69.17"><title>Macuspana</title><g id="Capa_2" data-name="Capa 2"><g id="Capa_1-2" data-name="Capa 1"><path d="M22.44,29.22l-2.78.14-1.15.73,9,8.79c0,1-.85,2,.42,2.35.08-.08.27-.16.29-.27.21-1.19.39-2.38.57-3.57l.11-1.65a5.3,5.3,0,0,0-.69-1.51Q26.17,32,23.95,29.92A5.38,5.38,0,0,0,22.44,29.22Z" style="fill:#fff"/><path d="M29.92,32.68l2.66-6-7.23,2c1.25,1.35,2.49,2.71,3.77,4C29.24,32.87,29.65,32.71,29.92,32.68Z" style="fill:#fff"/><path d="M53.15,54.24l.59,0C52.3,52,50.25,50.35,48,48.4l.13,1.73.42.59c1.72.23,2.4,1.78,3.5,2.79Z" style="fill:#fff"/><path d="M39.87,38.71l-.39-.09-.84,2.21c-1,.94-.53,1.65.54,2.45l.15-1.75h0l.46-1.22Z" style="fill:#fff"/><path d="M43,66.9l2,1.8.4.46.12-.41C45.23,67.82,44.71,67.13,43,66.9Z" style="fill:#fff"/><path d="M2.84,7.83c1.26-.06,1.76,1,2.53,1.69C6.81,10.76,8.24,12,9.67,13.25l5.88,6.13,3.54,3.49.2,0h.2l1.86-.39C23.59,22,26,22.06,28,21c-.9-.86-1.73-1.61-2.51-2.41-2.19-2.21-4.36-4.43-6.54-6.65l-.53-.48-1.06-.74a14.33,14.33,0,0,0-4.68-5.18L12,5l0,0-.55-.47-.11-.11L7,0,3.91.92l-.33,2.7c-.21.15-.61.94-1.38.21L0,4.77C.48,5.94-.64,7.26.63,7.64,1.58,8,2.26,6.6,2.84,7.83Z" style="fill:#fff"/><path d="M94.64,46.84a7.15,7.15,0,0,1-5.84,2c-4.63-.75-9.26-1.54-13.89-2.3-5.43-.89-10.71-.66-15.67,2.07-.57.31-1.17.55-1.91.89-.24-.65-.64-1.18-.59-1.67.78-7.46,3.19-14.51,5.55-21.58-1.17-1.65-2.55-2.88-5-2.6-5.73,6.67-10.21,14.1-12.51,22.83a9.9,9.9,0,0,1,0-3.05c.57-3.94,2.23-7.5,3.95-11,1-2,1.89-4,2.79-5.85-1.43-2-2.93-3.37-5.58-2.91-5.39,5.79-10.18,12-12.31,20-.4-7.28,3.68-12.87,6.95-18.56-.59-2.08-2.11-2.92-3.81-3.9-2.48.47-5.1,1-7.73,1.48-4,.8-8.05,1.78-12.24,1.6-2.32-.1-4.49-.48-6.3-2.28,0,2.85,1,4.33,3.31,5.36a11.37,11.37,0,0,0,6.51.72,74.28,74.28,0,0,0,13.59-3.5c.68-.25,1.42-.36,2.25-.57-1.77,3.54-3.52,6.8-5,10.15-1.61,3.55-1.19,7.31-.9,10.84a7.12,7.12,0,0,0,4.93,2.36c1.29-8.81,6.48-15.38,12.07-21.75a10.52,10.52,0,0,1-.82,2.33c-1.17,2.52-2.46,5-3.52,7.54-1.72,4.14-2.69,8.38-1.07,12.82,1.58.58,2.9,1.7,4.7,1.22C48,40.42,52.39,32.91,58.12,26a1.23,1.23,0,0,1,0,.87c-1.69,5.27-4,10.36-4.74,15.91-.46,3.49-.28,6.89,2,9.82l2.93.37a7.35,7.35,0,0,1,1-1c4.72-3.41,10.11-3.43,15.5-2.73,3.87.5,7.65,1.74,11.51,2.36,2.59.41,5.26,1.38,8,0C95.93,50.18,95.76,48.57,94.64,46.84Z" style="fill:#fff"/><path d="M60.33,41.14c-.17.94.59,2.14,1.16,3.08s1.59,1,2.71.53l2.87-4.16c.2,2.38.65,4,3.31,4.47l1.91-2.47L75.07,45c2.36-.4,2.36-.4,4.59-2.3l1.85,2.25h2.17l3.07-5.06v3.62l2.13,1.66c3-1.74,3.86-5.08,6.41-7l.54,2.32L93,42.32l.38,2.34a3,3,0,0,0,4-1.48,2.77,2.77,0,0,1,3-1.58c-.79,3.84-2,7.47-1.92,11.39l2.38,1.34c.15-1.3.23-2.22.38-3.13.55-3.51,1.06-7,2.87-10.2a3.59,3.59,0,0,0,2.7,3.81c2,.73,3.41-.65,5.09-1.91L113.32,45l2.12-.21c1.26-1.22,1.38-3.1,3.11-3.82l.16,2.6,2.22,1.58,2.61-2.36L124.77,45c2.6-5.25,5.19-8.35,7.83-9.31-.34,2.71-2.59,4.91-1.63,8.05l2,1.37,2.65-2.25L137,45l2.22-.18,3-4.27.38,3.22,2.25,1.29c2.32-1.86,3.73-4.23,5.24-6.69l-1.27-1c-1.63,2-2.35,4.34-4.53,6.11,0-3.23,1.67-5.59,2.31-8.41l-2-2-.74,1.16-2.49-.71c-2.9.26-4.29,2.23-5.28,4.66-1.06,2.59-1.86,3.71-3.67,4.95l3.83-8.35c-1.46-1.79-3.17-2-4.65-1.2s-2.37,2-3.56,3.1l-.11-2.12c-.63-.4-1.25-.8-1.87-1.18,0,0-.16,0-.32.09-.28,3.86-2.42,6.83-4.77,9.79-.26-.33-.48-.51-.45-.61.71-2.46,1.45-4.92,2.24-7.55L121.08,33a3.63,3.63,0,0,1-2.65.76,3.86,3.86,0,0,0-4.34,1.44c-.76,1-1.21,2.15-1.88,3.18-.88,1.35-1.8,2.69-2.81,3.95a2,2,0,0,1-2.67.61c2.9-2.05,5.13-4.4,4.93-8.33l-2.08-1.77-3.12,1.07a2.38,2.38,0,0,0-2.7-1.57,24.9,24.9,0,0,0-1.28,3.28,6.21,6.21,0,0,1-4,4.4A6,6,0,0,1,99,33.81l-1.55-2.06a34.54,34.54,0,0,0-2.57,2.95c-1.68,2.45-3.25,5-4.9,7.46a6.52,6.52,0,0,1-1,1,10.15,10.15,0,0,1,.67-4c.45-1.35,1-2.68,1.5-4.2l-2.32-2.05c-1.14,2.87-5.17,9.08-6.68,10.24.14-3.48,3.29-6,2.77-9.7l-2.48-.12c-.54,4.71-3.77,9.16-7.22,9.81-.09-3.32,1.47-5.7,3.8-8,.26,1.09-1,2.17.55,2.71A3.46,3.46,0,0,0,80.19,34l-2-1.15a6.58,6.58,0,0,0-4.3,3.73c-1,1.77-2,3.51-3,5.23a7.82,7.82,0,0,1-1.23,1.26A9.81,9.81,0,0,1,70.07,39c.4-1.26,1-2.45,1.57-3.78l-2.29-2.16-.8,1.16-2.26-.76c-1.81.25-3.29.86-4,2.32A20.19,20.19,0,0,0,60.33,41.14Zm33.81,2.71-.34-.49,1.28-.76.24.37Zm48-7.94c-.08,1.51-2.43,5.64-4.11,7.23C137.32,39.15,138.73,36.67,142.12,35.91Zm-23.39,0a31.32,31.32,0,0,1-4.46,7.2C114,38.35,115.08,36.55,118.74,35.9ZM106.43,34Zm-1.11,3.86A10.31,10.31,0,0,1,109.19,35a7.7,7.7,0,0,1-5,5.86A3.51,3.51,0,0,1,105.32,37.85ZM67.65,36.11l-4.48,7.33C61.65,39.75,64.18,35.73,67.65,36.11Z" style="fill:#fff"/><path d="M167.32,28.65l-2.87.45-3.48-1L158,27l-.53-.35-.61-.23-.56-.43-.7-.74-.42-2.44L155,18.3l-.42-1.86-.16-1.58-1-7,3.68-4.32-1-2.1-3.81,4.7c-1.72-.84-3.4-1.47-5.31-.9l-1.17,1.56-2.34.49h0c-1.64-.29-3.44.7-5-.62-.25-.83-.47-1.65-.74-2.46s-.55-1.58-.92-2.64c-2.58,6-2.81,6.31-6.07,7.93L128,8,126.21,5.9l-3.5,2.44-.37,4.75,2.18,1,.56,2.83-5.57,10.6-2.21-.61.88,5.6c2.36-1.8,3.88-.61,5.3.83l1.29-1.6c1.9-.57,2.91.55,4,1.58l2.61-1.67c2.16-.2,4.22,0,5.61,1.6a31.32,31.32,0,0,1,3.18-1.06c1.47-.32,3-.49,4.46-.72a6.77,6.77,0,0,1,3.71,4.06A3.34,3.34,0,0,1,151.59,39l-3.46,5.33c-1.17,1-2.19,2.19-3.87,2.32l-.71-.33-.62-.18L141.67,45c-1.15.61-2.11,1.47-3.13,1.55s-2.29-.58-3.33-.88l-2.67.9a4.86,4.86,0,0,1-3.61-5c-2.14,1.12-1.43,4.18-4,5l-1.87-.86-3.16,1.19c-.7,1-2.5,1.64-1.62,3.71l4,.18,4.46,2.81-.22,1.69-1.45.33,2.21,1,1.94.35,1.07-2.13,4-.19c1,.4.51,1.18.51,1.84l-1.84,2.37-2.62.18-.08,1,1.15,1.14q0,.26,0,.53l.63,1.14v0l.49.65.9,1.14,2.87-4a17.64,17.64,0,0,0,2.39.35c1.45,0,3,.66,4.35-.33l.53-.22.52-.4,0,0,.75-.48,4.57-2.73.49-.31.46-.49.13-.54.48-1.19a.55.55,0,0,0,.1-.54l.48-1.2a.54.54,0,0,0,.1-.54l.43-1.19.17-2.8c.17-.81-.67-1.88.61-2.41a1,1,0,0,0,.51-.12l6.78.79,1.33-1.85h0l.51-.6,0-.05.44-.49.75-.72.61-.44c.59-.3,1.17-.62,1.76-.91a12.51,12.51,0,0,1,3.09-1.38,10.64,10.64,0,0,1,3.1.37ZM143.87,7.27a5.83,5.83,0,0,0,1.15.1A5.81,5.81,0,0,1,143.87,7.27Z" style="fill:#fff"/><path d="M48.35,63.8l-.53-.67-.82-1,.71-3-3.81.28h0l0,0-.16-2-.91-1-1.26-.16c-1.47-.6-1.87-2.09-3.1-2.19L33.49,49a4.94,4.94,0,0,1-.52-.17h0l-.59-.42L31.76,48,30,47.27l-.61-.5-1.19-4a16.3,16.3,0,0,1-2.27-1.51c-2.37-2.19-4.67-4.45-7-6.69L18.4,34l0,0-.55-.54,0,0-.55-.54,0,0-.54-.54,0,0h0L14.81,30a8.6,8.6,0,0,0-1.6-1.19,7.86,7.86,0,0,1-4.65-5.84l.72-2.82h1.2l3.88,2.32,1.6-.11a2.16,2.16,0,0,0-.27-.65c-2.75-2.77-5.5-5.54-8.29-8.27a7.33,7.33,0,0,0-1.66-.93l-3.51-4-1,.13c.75,2,2.59,2.67,3.86,3.92l-2.38,1.7a10.5,10.5,0,0,0,4,7.15,2,2,0,0,1,.31.47c-1.56.18-.59,2-1.64,2.4l.75,2.64-2.15-.55L2.3,26.14l-.16.44L4,28.11A93.37,93.37,0,0,0,16.05,40.45l4.08,3.94c.64.71,1.23,1.46,1.92,2.12q5.07,4.9,10.17,9.76l7,6.68c1.09,1.32,2.11,2.73,4,3.12L40,62.88l-1.32-1.69-6.94-7A3.8,3.8,0,0,1,29.37,52l-2.78-2.46c2,.24,2.69,1,2.93,2.33a2.23,2.23,0,0,1,2.23,2.38l1.56-.42,2.49,2.14.58-.6,1.16,1.21L48,65.8a3.41,3.41,0,0,0,2.39,1.81l-1.42-2.08ZM23.4,46,23,45.51l.36.48Zm1.73,1.84-.81-.72.2-.33,1,.53Zm6.34,4h0l.28-.46Z" style="fill:#fff"/><path d="M35.87,56h0Z" style="fill:#fff"/><path d="M35.77,56l.07,0,0-.07h0l0,0Z" style="fill:#fff"/><path d="M36.9,46.61a10.6,10.6,0,0,1-1.06,1.84l-.63,1.11-.12-.06.08.12.06-.05,3.86,3.54.7.61,0,0c1.7-.38,2,1.45,3.66,2.14l1.26.16.91,1,1.7-1.74c.83-1.08,2-.32,3-.55l-3.49-3.61A8.5,8.5,0,0,1,40,48.49c-.41-3.23-.41-3.23-2.5-4.7A24.33,24.33,0,0,1,36.9,46.61Z" style="fill:#fff"/><path d="M35.09,49.49Z" style="fill:#fff"/><path d="M35.09,49.5Z" style="fill:#fff"/><path d="M48.52,51.29V50.8l-.38.34Z" style="fill:#fff"/><path d="M48.52,50.8l0,0,0,0h0Z" style="fill:#fff"/><path d="M49.1,51.92l.1.06-.05-.1-.59-.57h0v.05Z" style="fill:#fff"/><path d="M49.19,52c.1.06.15.09,0,0h0C49.26,52.11,49.24,52.06,49.19,52Z" style="fill:#fff"/><polygon points="65.31 20.64 66.62 20.64 66.62 22.12 67.41 22.12 67.41 18.6 66.62 18.6 66.62 19.95 65.31 19.95 65.31 18.6 64.51 18.6 64.51 22.12 65.31 22.12 65.31 20.64" style="fill:#fff"/><path d="M69,22.17a.48.48,0,1,0-.46-.48A.45.45,0,0,0,69,22.17Z" style="fill:#fff"/><path d="M72.89,21.21h1l.27.9H75L73.94,18.6h-1l-1.07,3.51h.82Zm.32-1.34c.06-.2.11-.47.16-.68h0c.05.21.11.47.18.68l.22.75H73Z" style="fill:#fff"/><path d="M76.33,22.12h.79V20.65l1.16-2h-.89l-.35.84c-.1.25-.19.45-.27.67h0c-.09-.23-.16-.42-.27-.67l-.36-.84h-.91l1.11,2.08Z" style="fill:#fff"/><path d="M80.59,22.17c.92,0,1.47-.52,1.47-1.6v-2h-.79v2c0,.62-.23.91-.65.91s-.64-.31-.64-.91v-2h-.8v2C79.18,21.68,79.7,22.17,80.59,22.17Z" style="fill:#fff"/><path d="M84,21.06c0-.57,0-1.07,0-1.53h0a13.1,13.1,0,0,0,.61,1.24l.75,1.36h.83V18.6h-.73v1a13.06,13.06,0,0,0,.07,1.47h0a10.12,10.12,0,0,0-.57-1.2l-.73-1.29h-.93v3.51H84Z" style="fill:#fff"/><polygon points="88.06 22.12 88.85 22.12 88.85 19.27 89.81 19.27 89.81 18.6 87.11 18.6 87.11 19.27 88.06 19.27 88.06 22.12" style="fill:#fff"/><path d="M91.2,21.21h1l.27.9h.86L92.24,18.6h-1l-1.07,3.51h.82Zm.32-1.34c.06-.2.11-.47.16-.68h0c.05.21.11.47.18.68l.22.75h-.78Z" style="fill:#fff"/><path d="M95,20.78c0-.44,0-1,.06-1.45h0c.08.46.2,1,.32,1.37l.38,1.36h.62l.43-1.37c.14-.41.28-.91.39-1.36h0c0,.51,0,1,0,1.44l.05,1.35h.78l-.19-3.51h-1l-.37,1.17c-.11.39-.23.86-.33,1.26h0c-.08-.41-.19-.85-.3-1.26l-.34-1.17H94.47l-.22,3.51H95Z" style="fill:#fff"/><rect x="99.25" y="18.6" width="0.8" height="3.51" style="fill:#fff"/><polygon points="103.5 21.46 102.06 21.46 102.06 20.63 103.35 20.63 103.35 19.98 102.06 19.98 102.06 19.25 103.43 19.25 103.43 18.6 101.26 18.6 101.26 22.12 103.5 22.12 103.5 21.46" style="fill:#fff"/><path d="M105.29,21.06c0-.57,0-1.07,0-1.53h0a13.1,13.1,0,0,0,.61,1.24l.75,1.36h.83V18.6h-.73v1a13.06,13.06,0,0,0,.07,1.47h0a10.21,10.21,0,0,0-.57-1.2l-.73-1.29h-.93v3.51h.73Z" style="fill:#fff"/><polygon points="109.36 22.12 110.16 22.12 110.16 19.27 111.12 19.27 111.12 18.6 108.42 18.6 108.42 19.27 109.36 19.27 109.36 22.12" style="fill:#fff"/><path d="M113.4,22.17a1.68,1.68,0,0,0,1.73-1.85,1.64,1.64,0,0,0-1.67-1.78,1.7,1.7,0,0,0-1.71,1.84A1.64,1.64,0,0,0,113.4,22.17Zm0-3c.55,0,.85.54.85,1.17s-.31,1.19-.84,1.19-.86-.49-.86-1.17S112.9,19.17,113.44,19.17Z" style="fill:#fff"/><path d="M69,25.78a1.77,1.77,0,0,1,1-.41c.57,0,.81.32.81.72,0,.57-.53,1.12-1.6,2.08l-.63.57v.69h3.47v-.94H70.24l.45-.38A3,3,0,0,0,72,26a1.52,1.52,0,0,0-1.72-1.54,2.71,2.71,0,0,0-1.6.5Z" style="fill:#fff"/><path d="M73.2,27c0,1.39.56,2.52,1.83,2.52s1.86-1,1.86-2.55c0-1.34-.51-2.51-1.82-2.51S73.2,25.57,73.2,27Zm1.85-1.67c.46,0,.69.57.69,1.66s-.24,1.67-.69,1.67-.72-.53-.71-1.66S74.63,25.32,75.05,25.32Z" style="fill:#fff"/><polygon points="80.51 29.43 80.51 24.53 79.56 24.53 78.27 25.14 78.46 25.99 79.39 25.55 79.41 25.55 79.41 29.43 80.51 29.43" style="fill:#fff"/><path d="M82.54,28.15c0,.66.57,1.36,1.81,1.36s1.88-.59,1.88-1.48a1.3,1.3,0,0,0-.9-1.22v0A1.19,1.19,0,0,0,86,25.71c0-.59-.47-1.26-1.62-1.26-1,0-1.72.55-1.72,1.38a1.19,1.19,0,0,0,.71,1.07v0A1.3,1.3,0,0,0,82.54,28.15Zm1.84-2.92a.56.56,0,0,1,.6.6.67.67,0,0,1-.5.62c-.39-.12-.69-.33-.69-.66A.55.55,0,0,1,84.38,25.23ZM84.3,27.3c.45.12.77.38.77.81a.61.61,0,0,1-.67.61A.67.67,0,0,1,83.7,28,.74.74,0,0,1,84.3,27.3Z" style="fill:#fff"/><rect x="89.2" y="27.07" width="1.97" height="0.76" style="fill:#fff"/><path d="M97.69,28.49H95.84l.45-.38A3,3,0,0,0,97.6,26a1.52,1.52,0,0,0-1.72-1.54,2.71,2.71,0,0,0-1.6.5l.32.82a1.77,1.77,0,0,1,1-.41c.56,0,.81.32.81.72,0,.57-.53,1.12-1.6,2.08l-.63.57v.69h3.47Z" style="fill:#fff"/><path d="M100.64,29.51c1.25,0,1.86-1,1.86-2.55,0-1.34-.51-2.51-1.82-2.51S98.81,25.57,98.81,27,99.37,29.51,100.64,29.51Zm0-4.19c.46,0,.69.57.69,1.66s-.24,1.67-.69,1.67S100,28.11,100,27,100.24,25.32,100.66,25.32Z" style="fill:#fff"/><path d="M107,28.49h-1.84l.45-.38a3,3,0,0,0,1.3-2.11,1.52,1.52,0,0,0-1.72-1.54,2.71,2.71,0,0,0-1.6.5l.32.82a1.77,1.77,0,0,1,1-.41c.57,0,.81.32.81.72,0,.57-.53,1.12-1.6,2.08l-.63.57v.69H107Z" style="fill:#fff"/><polygon points="110.79 29.43 110.79 24.53 109.84 24.53 108.54 25.14 108.73 25.99 109.67 25.55 109.68 25.55 109.68 29.43 110.79 29.43" style="fill:#fff"/><path d="M46.71,58.42l1.49-.09a17.5,17.5,0,0,1,1.14-2.82l-1,.08A16.21,16.21,0,0,0,46.71,58.42Z" style="fill:#fff"/><path d="M51.39,55.51l-1,.08a15.59,15.59,0,0,0-1.64,2.83l1.49-.09A17.5,17.5,0,0,1,51.39,55.51Z" style="fill:#fff"/><path d="M55.62,56a3.63,3.63,0,0,0-1.85-.41,8.62,8.62,0,0,0-1.88.19l-1.32,6.89h1.49l.52-2.77H53c.59,0,.89.26.95,1.12a11.36,11.36,0,0,0,.21,1.66h1.54a12.15,12.15,0,0,1-.27-2c-.07-.64-.25-1.11-.67-1.28v0a2.06,2.06,0,0,0,1.6-2A1.52,1.52,0,0,0,55.62,56Zm-2.19,2.77H52.8l.38-1.94a2.45,2.45,0,0,1,.58-.05c.59,0,1.07.25,1.07.81A1.26,1.26,0,0,1,53.43,58.76Z" style="fill:#fff"/><path d="M60.2,57.56l-.45,2.36c-.2,1-.72,1.64-1.23,1.64S58,61.29,58,61a4.05,4.05,0,0,1,.07-.67l.51-2.73H57.1l-.53,2.85a4.6,4.6,0,0,0-.1.94c0,1,.49,1.43,1.3,1.43a2.22,2.22,0,0,0,1.76-.95h0l-.09.83h1.32c.07-.46.15-1,.27-1.66l.66-3.44Z" style="fill:#fff"/><path d="M68.46,57.44a2.1,2.1,0,0,0-1.75,1,1.09,1.09,0,0,0-1.21-1,2.06,2.06,0,0,0-1.74.94h0l.09-.82H62.54c-.06.45-.15,1-.26,1.66l-.64,3.44h1.45l.42-2.29c.19-1,.72-1.72,1.23-1.72s.48.28.48.63a3.12,3.12,0,0,1-.07.58l-.52,2.81h1.45l.43-2.32c.2-1,.69-1.7,1.19-1.7s.51.25.51.6a3.28,3.28,0,0,1-.07.63l-.51,2.78h1.45l.55-3a5.41,5.41,0,0,0,.09-.88A1.2,1.2,0,0,0,68.46,57.44Z" style="fill:#fff"/><path d="M73.83,57.44a2,2,0,0,0-1.57.72h0l.6-2.91H71.33l-1,5.16a4.6,4.6,0,0,0-.11.93c0,.91.6,1.43,1.81,1.43a3.38,3.38,0,0,0,3.38-3.56A1.58,1.58,0,0,0,73.83,57.44Zm-1.52,4.19a.53.53,0,0,1-.57-.56,2.93,2.93,0,0,1,.05-.56l.09-.42c.18-.89.71-1.44,1.25-1.44s.67.39.67.88C73.8,60.43,73.17,61.64,72.31,61.64Z" style="fill:#fff"/><path d="M78.69,57.44a3.06,3.06,0,0,0-3,3.22,2,2,0,0,0,2.16,2.11,3,3,0,0,0,3-3.23A2,2,0,0,0,78.69,57.44ZM78,61.63c-.52,0-.81-.4-.81-1,0-.79.43-2.05,1.29-2.05.6,0,.8.5.8,1C79.29,60.43,78.83,61.63,78,61.63Z" style="fill:#fff"/><path d="M87.95,57.69a6.07,6.07,0,0,0-1.69-.25A3.44,3.44,0,0,0,82.61,61a1.58,1.58,0,0,0,1.54,1.77,1.92,1.92,0,0,0,1.71-1.13h0c0,.37-.06.71-.07,1h1.39a12.33,12.33,0,0,1,.2-2.29ZM86,59.8c-.23,1.25-.78,1.76-1.23,1.76s-.61-.34-.61-.84c0-.95.71-2.14,1.68-2.14a2.35,2.35,0,0,1,.41,0Z" style="fill:#fff"/><polygon points="87.89 62.66 89.39 62.66 90.81 55.25 89.31 55.25 87.89 62.66" style="fill:#fff"/><path d="M96.91,56A3.31,3.31,0,0,0,95,55.58a8.21,8.21,0,0,0-1.84.19l-1.3,6.89h1.47l.48-2.53a4.6,4.6,0,0,0,.62,0,3.66,3.66,0,0,0,2.24-.65,2.44,2.44,0,0,0,1-2A1.72,1.72,0,0,0,96.91,56ZM94.66,59a2.75,2.75,0,0,1-.57-.05l.4-2.08a2.66,2.66,0,0,1,.61-.05c.58,0,1.07.22,1.07.9A1.36,1.36,0,0,1,94.66,59Z" style="fill:#fff"/><path d="M101.26,57.45H101a1.91,1.91,0,0,0-1.63,1.16h0l.09-1h-1.3c-.05.44-.11,1.29-.26,2.06l-.57,3h1.5l.35-1.9c.19-1,.64-1.86,1.6-1.86H101Z" style="fill:#fff"/><path d="M104,57.44a3.06,3.06,0,0,0-3,3.22,2,2,0,0,0,2.16,2.11,3,3,0,0,0,3-3.23A2,2,0,0,0,104,57.44Zm-.68,4.18c-.52,0-.81-.4-.81-1,0-.79.43-2.05,1.29-2.05.6,0,.8.5.8,1C104.59,60.43,104.14,61.63,103.31,61.63Z" style="fill:#fff"/><path d="M109.86,57.44a3.28,3.28,0,0,0-3.42,3.36,1.68,1.68,0,0,0,1.64,1.81,1.74,1.74,0,0,0,1.46-.75h0l-.08.43A1.43,1.43,0,0,1,108,63.65a3.23,3.23,0,0,1-1.33-.28l-.34,1.15a3.68,3.68,0,0,0,1.66.32,3.17,3.17,0,0,0,2-.57A3.66,3.66,0,0,0,111,62l.77-4.2A4.76,4.76,0,0,0,109.86,57.44Zm0,2.61c-.16.87-.66,1.41-1.15,1.41s-.69-.38-.69-.89c0-1,.65-2,1.55-2a1.49,1.49,0,0,1,.54.09Z" style="fill:#fff"/><path d="M115.72,57.45h-.28a1.91,1.91,0,0,0-1.63,1.16h0l.09-1h-1.3c-.05.44-.11,1.29-.26,2.06l-.57,3h1.5l.35-1.9c.19-1,.64-1.86,1.6-1.86h.24Z" style="fill:#fff"/><path d="M120.13,59a1.57,1.57,0,0,0-1.77-1.52,3.06,3.06,0,0,0-3,3.17,2,2,0,0,0,2.21,2.15,4.38,4.38,0,0,0,1.9-.4l-.1-1.08a3.21,3.21,0,0,1-1.43.32,1.18,1.18,0,0,1-1-.4,1,1,0,0,1-.16-.52C118.87,60.74,120.13,60.27,120.13,59Zm-3.16.63a1.27,1.27,0,0,1,1.2-1.05c.34,0,.55.18.55.44C118.72,59.44,118.14,59.6,117,59.59Z" style="fill:#fff"/><path d="M122.71,58.54a2.38,2.38,0,0,1,1,.23l.35-1.06a2.8,2.8,0,0,0-1.31-.26c-1.31,0-2.24.7-2.24,1.75a1.6,1.6,0,0,0,1.08,1.36c.47.23.64.41.64.66s-.22.46-.65.46a3.32,3.32,0,0,1-1.33-.35l-.37,1.05a2.84,2.84,0,0,0,1.56.4c1.35,0,2.34-.63,2.34-1.79,0-.71-.58-1.12-1.14-1.4S122,59.2,122,59,122.32,58.54,122.71,58.54Z" style="fill:#fff"/><path d="M127.28,57.44a3.06,3.06,0,0,0-3,3.22,2,2,0,0,0,2.16,2.11,3,3,0,0,0,3-3.23A2,2,0,0,0,127.28,57.44Zm-.68,4.18c-.52,0-.81-.4-.81-1,0-.79.43-2.05,1.29-2.05.6,0,.8.5.8,1C127.88,60.43,127.42,61.63,126.6,61.63Z" style="fill:#fff"/><path d="M129.63,58.42l1-.08a15.61,15.61,0,0,0,1.64-2.83l-1.49.09A17.45,17.45,0,0,1,129.63,58.42Z" style="fill:#fff"/><path d="M134.31,55.51l-1.49.09a17.51,17.51,0,0,1-1.14,2.82l1-.08A15.57,15.57,0,0,0,134.31,55.51Z" style="fill:#fff"/></g></g></svg>