<svg xmlns="http://www.w3.org/2000/svg" viewBox="0 0 171.8 118.13"><title>medicaSanta</title><g id="Capa_2" data-name="Capa 2"><g id="Capa_1-2" data-name="Capa 1"><path d="M101.69,41l.67,0q0,8.31,0,16.61c0,.91,0,1.81.08,2.71a.84.84,0,0,0,.66.51c.21,0,.49-.36.58-.62a3.18,3.18,0,0,0,.06-1q0-8.66,0-17.33c0-.45.12-1-.1-1.32a3,3,0,0,0-1.48-1.17,1.64,1.64,0,0,0-1.41.63,12.52,12.52,0,0,0-1.12,2.78c-1.68,5.53-3.32,11.07-5.06,16.88a19.64,19.64,0,0,1-1-2.25c-1-3.31-1.85-6.65-2.82-10-.63-2.14-1.35-4.25-2.06-6.37-.1-.31-.39-.57-.5-.88a1.29,1.29,0,0,0-1.9-.81A2,2,0,0,0,85.4,41c-.06,6.23,0,12.46,0,18.69a1.4,1.4,0,0,0,.05.67c.15.24.42.57.63.56a.85.85,0,0,0,.61-.58c.06-1.92.07-3.85.07-5.77q0-6.76,0-13.52c1.93,5.16,3.4,10.36,4.92,15.56A17.15,17.15,0,0,0,93,60a2.11,2.11,0,0,0,1.55,1c.47,0,1.13-.69,1.32-1.22.89-2.52,1.65-5.08,2.44-7.63C99.44,48.46,100.56,44.75,101.69,41Z" style="fill:#fff"/><path d="M93.21,74.44c.93-5.22-1.62-6.33-4.87-6.42a15.62,15.62,0,0,0-4.51,1.05,2.55,2.55,0,0,0-1.89,2.81c0,2.68.95,4.18,3.72,5.35,1.54.65,3.12,1.23,4.61,2a3.55,3.55,0,0,1,1.91,3.92c-.23,1.71-1.65,2.07-2.9,2.38a11.37,11.37,0,0,1-3.38.06,2.65,2.65,0,0,1-2.53-2.3c-.12-.54,0-1.14-.13-1.68,0-.22-.42-.42-.68-.52-.1,0-.42.2-.47.36a4.43,4.43,0,0,0,3.86,5.51c1,0,2,.05,3.06,0,2.41-.13,4-1.34,4.51-3.36A4.91,4.91,0,0,0,91,77.92c-.89-.47-1.86-.76-2.76-1.19a28.35,28.35,0,0,1-3.85-2,3.1,3.1,0,0,1-.74-3.95c1.5-1.81,3.66-1.69,5.65-1.4,1.54.22,3.08.87,3,3C92.23,72.84,92.68,73.33,93.21,74.44Z" style="fill:#fff"/><path d="M148.64,78.19c0,1.24,0,2.49,0,3.73s0,2.72,0,4.07c0,.26.31.52.47.77.27-.26.76-.52.77-.79.07-2.15.08-4.3.05-6.45,0-1,.38-1.43,1.39-1.42q2.37,0,4.75-.08c.17,0,.38-.45.45-.72,0-.12-.23-.42-.39-.45-.44-.08-.9,0-1.35-.09l-4.62-.4c-.07-1.68-.16-3.36-.21-5,0-1.4.66-2.07,2.06-2.07,1.7,0,3.4,0,5.09-.05.28,0,.54-.49.81-.75-.25-.17-.5-.47-.76-.48-1.81-.05-3.62-.09-5.43,0-2.11.07-3,1-3.11,3.1C148.59,73.43,148.64,75.81,148.64,78.19Z" style="fill:#fff"/><path d="M152.12,49.06c-3-4-7.86-3.65-10.49.21-2.48,3.63-2.16,7.14.91,10.22,1.88,1.88,6.52,2.39,8.74.9.37-.25.5-.88.74-1.33a5.93,5.93,0,0,0-1.33,0c-1.44.38-2.62,1.45-4.4.9-4.76-1.47-5.44-5.22-3.88-9.38,1-2.73,4.24-3.79,7-2.68C150.35,48.3,151.23,48.68,152.12,49.06Z" style="fill:#fff"/><path d="M108.54,80.54h0c0,1.8,0,3.61,0,5.41,0,.28.49.55.75.82.17-.25.47-.5.48-.75,0-2.14,0-4.29.07-6.43.15-2.86,1.87-4.4,4.5-4.22,2.09.14,3.51,1.84,3.61,4.47.08,2,0,4.06.07,6.09,0,.29.47.56.72.83.18-.24.52-.49.51-.72-.11-2.67.37-5.34-.48-8-1-3-2.9-4.42-5.91-4-1.19.17-2.34,2-3.63.18-.24.31-.68.61-.69.93C108.5,76.93,108.54,78.74,108.54,80.54Z" style="fill:#fff"/><path d="M120.09,77.72h0c0,2-.13,4.08.05,6.1a6.82,6.82,0,0,0,1.22,3c.16.25,1.5.14,1.79-.22.52-.63-.25-.76-.76-1a1.71,1.71,0,0,1-.91-1.13c-.08-2.6,0-5.2,0-7.8,0-.83.36-1.25,1.21-1.24a5.73,5.73,0,0,0,1.35-.06c.26-.06.63-.34.65-.55s-.35-.68-.51-.66c-1.89.17-3.11-.28-2.76-2.56,0-.21-.51-.51-.78-.76-.16.26-.45.52-.45.79C120.08,73.65,120.09,75.68,120.09,77.72Z" style="fill:#fff"/><path d="M138.4,53.83h0c0-2,0-4,0-6,0-.27-.49-.53-.75-.8-.17.25-.5.49-.5.74,0,4.14,0,8.29,0,12.44,0,.27.49.53.76.8.17-.24.49-.49.49-.73C138.41,58.08,138.4,56,138.4,53.83Z" style="fill:#fff"/><path d="M163.5,72.67c2.94,0,2.88-2.12,3.77-3.37.18-.26,0-.76,0-1.16-.39.12-.94.11-1.13.37C165.29,69.75,164.52,71.05,163.5,72.67Z" style="fill:#fff"/><path d="M138.23,43.82c.36-.63.79-1.12.7-1.26a5.76,5.76,0,0,0-1.18-1c-.23.32-.69.71-.63.94C137.24,42.89,137.69,43.2,138.23,43.82Z" style="fill:#fff"/><path d="M101.69,41c-1.13,3.71-2.25,7.42-3.4,11.13-.79,2.55-1.55,5.11-2.44,7.63-.18.52-.85,1.2-1.32,1.22A2.11,2.11,0,0,1,93,60a17.15,17.15,0,0,1-1.35-3.42c-1.52-5.19-3-10.4-4.92-15.56q0,6.76,0,13.52c0,1.92,0,3.85-.07,5.77a.85.85,0,0,1-.61.58c-.21,0-.48-.32-.63-.56a1.4,1.4,0,0,1-.05-.67c0-6.23,0-12.46,0-18.69a2,2,0,0,1,.88-1.5,1.29,1.29,0,0,1,1.9.81c.11.31.39.57.5.88.7,2.12,1.43,4.23,2.06,6.37,1,3.31,1.86,6.64,2.82,10a19.64,19.64,0,0,0,1,2.25c1.74-5.81,3.38-11.35,5.06-16.88a12.52,12.52,0,0,1,1.12-2.78,1.64,1.64,0,0,1,1.41-.63,3,3,0,0,1,1.48,1.17c.22.31.1.87.1,1.32q0,8.66,0,17.33a3.18,3.18,0,0,1-.06,1c-.09.26-.36.61-.58.62a.84.84,0,0,1-.66-.51c-.09-.9-.08-1.81-.08-2.71q0-8.31,0-16.61Z" style="fill:#fff"/><path d="M134.36,48.85c0-3.06,0-5.77,0-8.47,0-.28.5-.54.77-.81.17.25.47.5.48.76.05,1.58,0,3.16,0,4.74,0,4.86,0,9.72,0,14.58,0,.44-.41.88-.63,1.32-.23-.31-.61-.59-.67-.92-.25-1.4-1.1-.49-1.36-.24-1.56,1.5-3.47,1.38-5.39,1.35A7.25,7.25,0,0,1,121,51.73c1.79-5.3,7-7.08,11.23-4.24ZM128,59.79c4.07,0,6.37-1.9,6.33-5.25,0-4.15-2.54-7-6.1-7a6.35,6.35,0,0,0-6.09,6.41A5.6,5.6,0,0,0,128,59.79Z" style="fill:#fff"/><path d="M112.81,54.32c-1.7,0-3.4,0-5.09,0-1.13,0-1.39.62-1.16,1.52a5.31,5.31,0,0,0,5.19,3.95c1.9,0,3.85.24,5.56-1,.18-.13.7.21,1.06.33-.09.27-.11.72-.29.8A13.27,13.27,0,0,1,115,61.08a18.7,18.7,0,0,1-3.73.05c-3.5-.14-5.88-2.76-6.21-6.28A7.53,7.53,0,0,1,111,46.31c4.11-1.07,8.79,2.66,8.46,6.37-.1,1.07-.3,1.69-1.53,1.65-1.7-.06-3.4,0-5.09,0Zm-6.24-1.58c.68.07,1.32.2,2,.2,2.81,0,5.63,0,8.44,0,1.19,0,1.17-.83.9-1.65a5.86,5.86,0,0,0-8.61-2.78A5.64,5.64,0,0,0,106.56,52.75Z" style="fill:#fff"/><path d="M165.85,80.86c-1.52,0-3,0-4.56,0-1,0-1.24.56-1,1.36a4.76,4.76,0,0,0,4.65,3.53c1.7,0,3.45.21,5-.88.16-.12.63.19.95.3-.08.25-.1.64-.26.71a11.89,11.89,0,0,1-2.77,1,16.75,16.75,0,0,1-3.34,0,5.81,5.81,0,0,1-5.56-5.62,6.74,6.74,0,0,1,5.3-7.65c3.68-1,7.87,2.39,7.57,5.71-.09,1-.27,1.52-1.37,1.48-1.52-.06-3,0-4.56,0Zm-5.59-1.41c.61.07,1.18.18,1.75.18,2.52,0,5,0,7.56,0,1.07,0,1.05-.74.81-1.48a5.24,5.24,0,0,0-7.71-2.49A5,5,0,0,0,160.26,79.44Z" style="fill:#fff"/><path d="M93.21,74.44c-.53-1.11-1-1.6-1-2.06.12-2.14-1.43-2.79-3-3-2-.29-4.14-.42-5.65,1.4a3.1,3.1,0,0,0,.74,3.95,28.35,28.35,0,0,0,3.85,2c.9.44,1.88.73,2.76,1.19a4.91,4.91,0,0,1,2.51,5.67c-.5,2-2.09,3.23-4.51,3.36-1,.05-2,0-3.06,0a4.43,4.43,0,0,1-3.86-5.51c.05-.16.37-.4.47-.36.26.1.63.3.68.52.12.54,0,1.14.13,1.68a2.65,2.65,0,0,0,2.53,2.3,11.37,11.37,0,0,0,3.38-.06c1.25-.31,2.67-.67,2.9-2.38a3.55,3.55,0,0,0-1.91-3.92c-1.48-.77-3.06-1.35-4.61-2-2.77-1.17-3.74-2.67-3.72-5.35a2.55,2.55,0,0,1,1.89-2.81A15.62,15.62,0,0,1,88.33,68C91.58,68.11,94.14,69.22,93.21,74.44Z" style="fill:#fff"/><path d="M105.79,84.9c-.71.67-1.35,1.79-2.14,1.92a13.14,13.14,0,0,1-5-.11c-2.38-.56-3.64-2.66-3.76-5.34s.39-4.92,2.79-6.34a6.34,6.34,0,0,1,7.53.25c1,.77,1.24.58,1.34-.54a.82.82,0,0,1,.66-.46.92.92,0,0,1,.53.68q0,5.57,0,11.15a.91.91,0,0,1-.57.65c-.17,0-.49-.27-.65-.5a15.21,15.21,0,0,1-.76-1.33,19.89,19.89,0,0,0,.63-4.25c-.22-3.45-2.22-5.32-5.22-5.32-2.09,0-3.73.64-4.58,2.71a6.76,6.76,0,0,0,1.12,6.63,5.09,5.09,0,0,0,5.53.88A22.32,22.32,0,0,1,105.79,84.9Z" style="fill:#fff"/><path d="M136.4,84.9c-.71.67-1.35,1.79-2.14,1.92a13.14,13.14,0,0,1-5-.11c-2.38-.56-3.64-2.66-3.76-5.34s.39-4.92,2.79-6.34a6.34,6.34,0,0,1,7.53.25c1,.77,1.24.58,1.34-.54a.82.82,0,0,1,.66-.46.92.92,0,0,1,.53.68q0,5.57,0,11.15a.91.91,0,0,1-.57.65c-.17,0-.49-.27-.65-.5a15.21,15.21,0,0,1-.76-1.33,19.89,19.89,0,0,0,.63-4.25c-.22-3.45-2.22-5.32-5.22-5.32-2.09,0-3.73.64-4.58,2.71a6.76,6.76,0,0,0,1.12,6.63,5.09,5.09,0,0,0,5.53.88A22.32,22.32,0,0,1,136.4,84.9Z" style="fill:#fff"/><path d="M166.57,58.82c-.82.78-1.55,2.07-2.48,2.22a15.18,15.18,0,0,1-5.78-.13c-2.75-.64-4.21-3.07-4.35-6.17s.45-5.68,3.23-7.33,5.93-1.81,8.71.29c1.17.89,1.43.68,1.55-.63a1,1,0,0,1,.76-.54,1.06,1.06,0,0,1,.61.79q.06,6.44,0,12.88a1,1,0,0,1-.65.75c-.19.05-.57-.32-.75-.58a17.58,17.58,0,0,1-.87-1.53,23,23,0,0,0,.72-4.91c-.26-4-2.57-6.14-6-6.14-2.41,0-4.31.74-5.29,3.14a7.81,7.81,0,0,0,1.29,7.66,5.88,5.88,0,0,0,6.39,1A25.8,25.8,0,0,1,166.57,58.82Z" style="fill:#fff"/><path d="M148.64,78.19c0-2.38,0-4.75,0-7.13.06-2.11,1-3,3.11-3.1,1.81-.06,3.62,0,5.43,0,.26,0,.51.31.76.48-.27.26-.53.74-.81.75-1.69.08-3.39.06-5.09.05-1.4,0-2.11.67-2.06,2.07.05,1.68.14,3.36.21,5l4.62.4c.45,0,.91,0,1.35.09.16,0,.42.33.39.45-.07.27-.28.72-.45.72q-2.37.11-4.75.08c-1,0-1.4.43-1.39,1.42,0,2.15,0,4.3-.05,6.45,0,.27-.5.52-.77.79-.16-.26-.46-.51-.47-.77-.06-1.36,0-2.71,0-4.07S148.64,79.43,148.64,78.19Z" style="fill:#fff"/><path d="M152.12,49.06c-.89-.37-1.78-.76-2.67-1.11-2.8-1.1-6,0-7,2.68-1.56,4.15-.88,7.91,3.88,9.38,1.77.55,3-.52,4.4-.9a5.93,5.93,0,0,1,1.33,0c-.24.45-.36,1.08-.74,1.33-2.22,1.5-6.86,1-8.74-.9-3.07-3.07-3.39-6.59-.91-10.22C144.26,45.41,149.12,45.09,152.12,49.06Z" style="fill:#fff"/><path d="M108.54,80.54c0-1.8,0-3.61,0-5.41,0-.32.45-.62.69-.93,1.29,1.84,2.44,0,3.63-.18,3-.42,5,1,5.91,4,.85,2.67.38,5.35.48,8,0,.23-.33.48-.51.72-.25-.28-.71-.55-.72-.83-.07-2,0-4.06-.07-6.09-.1-2.62-1.52-4.32-3.61-4.47-2.63-.18-4.35,1.37-4.5,4.22-.11,2.14,0,4.29-.07,6.43,0,.25-.31.5-.48.75-.26-.27-.74-.54-.75-.82-.07-1.8,0-3.61,0-5.41Z" style="fill:#fff"/><path d="M120.09,77.72c0-2,0-4.07,0-6.1,0-.27.3-.53.45-.79.27.26.81.55.78.76-.35,2.28.87,2.72,2.76,2.56.17,0,.53.45.51.66s-.39.49-.65.55a5.73,5.73,0,0,1-1.35.06c-.85,0-1.21.4-1.21,1.24,0,2.6,0,5.2,0,7.8a1.71,1.71,0,0,0,.91,1.13c.51.25,1.28.38.76,1-.3.36-1.63.47-1.79.22a6.82,6.82,0,0,1-1.22-3c-.18-2-.05-4.06-.05-6.1Z" style="fill:#fff"/><path d="M138.4,53.83c0,2.13,0,4.26,0,6.39,0,.25-.32.49-.49.73-.26-.27-.75-.53-.76-.8,0-4.14,0-8.29,0-12.44,0-.25.33-.49.5-.74.26.27.74.53.75.8.06,2,0,4,0,6Z" style="fill:#fff"/><path d="M163.5,72.67c1-1.61,1.79-2.92,2.67-4.16.18-.26.74-.25,1.13-.37,0,.39.16.89,0,1.16C166.38,70.55,166.44,72.72,163.5,72.67Z" style="fill:#fff"/><path d="M138.23,43.82c-.54-.62-1-.93-1.1-1.34-.07-.24.4-.62.63-.94a5.76,5.76,0,0,1,1.18,1C139,42.7,138.59,43.19,138.23,43.82Z" style="fill:#fff"/><path d="M169.76,76l.72,1.34-.17.14-.7-1.33Z" style="fill:#fff"/><path d="M168.42,75.3l1.34.71-.14.15-1.33-.7Z" style="fill:#fff"/><path d="M62,24.83V37.39H48.06v14H35.11V37.48H21V25H34.83V10.87a117.38,117.38,0,0,1,13-.18V24.83Z" style="fill:#fff"/><path d="M61.7,118.1,53.19,53.2,48.72,65.14H19.65c2-2,4.4-1.13,6.62-1.28s4.76,0,7.14,0H47.62L53.25,48.6l.86.05,7.77,59C64.64,74.38,67.33,41.92,70,9.47l.92,0,5,65.13,5.6-10c4.62-.79,88.06-.51,90.22.51-9.77.52-19.56.32-29.34.35-10,0-19.94,0-29.91,0H82.78L75.52,78.4l-.84-.17-4-52.15c-3.06,30.67-5.46,61.37-8.13,92.05Z" style="fill:#fff"/><path d="M30.11,10.36C36,1.23,43.1-1.77,51,1c6.43,2.24,12.2,9.23,10.9,17.72C60.74,10.25,57,4.34,48.77,3s-13.45,3.14-17,10.64c-.88-.77-1.63-1.35-2.3-2A15.3,15.3,0,0,0,11.89,9a15.48,15.48,0,0,0-7.57,16.1c1.13,6.81,5.34,11.27,10.69,15Q24.87,47,34.69,53.93c.91.64,1.69,1.47,2.75,2.4L36.3,59c-.62-.18-1-.18-1.23-.38C28.3,51.17,19.79,45.91,11.83,40,7.17,36.46,3.1,32.35,1.14,26.66c-3.23-9.36.6-18.45,9.31-21.94C17.14,2,23.07,3.86,28.31,8.48,28.9,9,29.4,9.61,30.11,10.36Z" style="fill:#fff"/></g></g></svg>