<svg xmlns="http://www.w3.org/2000/svg" viewBox="0 0 199.36 54.59"><title>pemex</title><g id="Capa_2" data-name="Capa 2"><g id="Capa_1-2" data-name="Capa 1"><path d="M20.87,22.17a.76.76,0,0,0,1-.16L37.7,0,55.34,26.38a20.13,20.13,0,0,1-.81,18.77c-4.21,6.8-12.62,11.65-23.3,8.41L0,53.88,1.13,52.1l29.13,1A12,12,0,0,1,30.74,50l-29,1.13,2.1-2.91,27,1.13a22.48,22.48,0,0,1,1-3.07l-27.35,1,2.1-2.91,25.73,1a28.15,28.15,0,0,1,1.78-2.91l-26.7,1,2.1-2.91,25.41,1a23.43,23.43,0,0,1,2.75-2.91L10.19,39.64,11,38.51,9.55,36.57,38.84,37.7c2.27-1.62,6.8-1.46,8.74.32l.81.49a16.8,16.8,0,0,1,1.94,2.75c.16.16.32.32.49,0a9.77,9.77,0,0,0,1.46-2.91l-3.72.16L47.74,38h4.85a20.63,20.63,0,0,0,.16-3.24l-43.53,1a13.15,13.15,0,0,1-.65-6.15c1.29,1.62,5.5,3.56,6.15,3.56l37.86,1a20.81,20.81,0,0,0-.65-3.07l-38.51.65A6.21,6.21,0,0,1,12,28.8l22.82.81-3.4-1.78c2.59,0,4.69-.16,7.12-.16,1.13.16,1.29,0,1.94.81.16.16.16.49.32.81,0,.32.16.49.49.65h.16c2.59,0,7.28.16,10.19.16a8.14,8.14,0,0,0-4.37-3.4L11.81,28.16a9.6,9.6,0,0,1,0-3.72c0-.16.16-.16.16,0a9.84,9.84,0,0,0,5,3.07c.16,0,.16,0,.16-.16-.16-.32-1.29-1.94-.81-1.94l26.7.65c.49,0-1.29-2.91-3.72-3.07,0,0-21.52,1.29-23.14,1.46H16a11.67,11.67,0,0,1-.32-5.34h0a11,11,0,0,0,5.18,3.07" style="fill:#fff"/><path d="M68.12,23.79H88a1.8,1.8,0,0,1,1.78,1.78v12A1.94,1.94,0,0,1,88,39.48H74.92V34.3H83.5a.7.7,0,0,0,.65-.65v-4A.7.7,0,0,0,83.5,29H73.3V45.63H68V23.79Zm26.7,0h18.61v5H99.35a.81.81,0,0,0-.81,1v2.59H112v4.85H98.55V40c0,.49.49.81,1,1h16.83a.91.91,0,0,0,.81-1v-16h5.66a2.64,2.64,0,0,1,2.1,1.78c2.59,4,4.37,8.41,7,12.46.49.65.49.65.81,0l7-12.46a2.79,2.79,0,0,1,2.27-1.78h5.34V45.63h-5.34V32.85L135.28,45c-.16.32-.32.65-.81.65h-3.88c-.49,0-.65-.49-1-.65L123,32.85V44a1.62,1.62,0,0,1-1.62,1.62H94.82A1.66,1.66,0,0,1,93,44V25.41a1.77,1.77,0,0,1,1.78-1.62Zm56.47,1.94a2,2,0,0,1,2.1-1.94h18.29v5H157.77a1.39,1.39,0,0,0-1.29,1.29v2.27h13.11v4.85H156.48V40c0,.49.65,1,1.29,1h20.87a1.22,1.22,0,0,0,.65-.16c1.46-1.78,2.91-3.4,4.37-5.18a.61.61,0,0,0,0-1l-4.53-5.18c.16.16-.49-.49-.81-.49h-3.56v-5h5.5c1.29,0,2.1,1.29,2.75,2.1l3.88,4.53c.32.49.32.49.65,0l3.88-4.69c.49-.65,1.62-1.94,2.75-1.94h5.18v5h-3.24a.65.65,0,0,0-.65.32l-4.53,5.34c-.49.49-.49.49,0,1l4.37,5.18a1.46,1.46,0,0,0,.81.16h3.24v4.69h-6.47a3.81,3.81,0,0,1-1.29-.32l-4.85-5.83L182,45.31a2.51,2.51,0,0,1-1.29.32H153.24a2,2,0,0,1-2.1-1.94v-18Z" style="fill:#fff"/></g></g></svg>