<svg xmlns="http://www.w3.org/2000/svg" viewBox="0 0 197.56 51.06"><title>pizzaHut</title><g id="Capa_2" data-name="Capa 2"><g id="Capa_1-2" data-name="Capa 1"><path d="M36.78,49.73a1.06,1.06,0,0,1,.63-1.1c1.36-.91,2.75-1.77,4-2.76A22.59,22.59,0,0,0,50.1,32.06a30.88,30.88,0,0,0,.57-7.73,25.76,25.76,0,0,0-2.57-10.46,15.11,15.11,0,0,0-4.73-5.61A27.63,27.63,0,0,0,35.58,4a30,30,0,0,0-4-.76,2.91,2.91,0,0,0-.86.12.82.82,0,0,0,.79.89c.61.1,1.23.11,1.84.19a12.68,12.68,0,0,1,3.84,1.25,22.8,22.8,0,0,1,6.62,4.55,16.45,16.45,0,0,1,4.5,8.6A45.2,45.2,0,0,1,49,26.54,20.4,20.4,0,0,1,46.37,37a26.46,26.46,0,0,1-6,7.63A26.94,26.94,0,0,1,30,49.95,28,28,0,0,1,21.21,51,21.53,21.53,0,0,1,9.39,47.24,17.44,17.44,0,0,1,4.27,41.7a16,16,0,0,1-1-2.47,1.9,1.9,0,0,1,0-.83c.07-.63.6-.84,1.06-.41a6,6,0,0,1,.81,1,32.68,32.68,0,0,0,4.08,4.69,19.11,19.11,0,0,0,7.95,4.31,15.43,15.43,0,0,0,4.15.76,1.24,1.24,0,0,0,1.21-.37,8.85,8.85,0,0,0-.92-.27,18.82,18.82,0,0,1-5.39-1.43,25.44,25.44,0,0,1-8.76-6.8,14.56,14.56,0,0,1-3.15-7.68,56,56,0,0,1-.18-8.31,18.31,18.31,0,0,1,3.64-9.94,20,20,0,0,1,9.21-7.06c.79-.31,1.58-.64,2.37-1,.19-.08.38-.19.56-.28l0-.19a6.18,6.18,0,0,0-.93.06,19.57,19.57,0,0,0-7.29,3.28A20.23,20.23,0,0,0,3.23,22c-.31,1.67-.37,3.4-.54,5.1a1.6,1.6,0,0,1,0,.42c-.11.26-.19.62-.39.73s-.63-.11-.87-.36a2.71,2.71,0,0,1-.56-1.72C0,18.64,2.82,12.6,8.37,7.71a29.45,29.45,0,0,1,11.74-6A34.67,34.67,0,0,1,31.22,0c5.06.25,9.88,1.43,14,4.6a21.85,21.85,0,0,1,6.52,8.51,25.06,25.06,0,0,1,2.35,8.45,51.12,51.12,0,0,1,0,5.33A29.5,29.5,0,0,1,53,34a19.54,19.54,0,0,1-4.29,7.64,37.66,37.66,0,0,1-8.14,7,6.93,6.93,0,0,1-3.16,1.16A4.57,4.57,0,0,1,36.78,49.73ZM11.89,31.18l.44-.06,8.4-1.79A107.6,107.6,0,0,1,31.61,27.4c2.54-.27,5.07-.56,7.61-.81,1.15-.11,2.31-.16,3.46-.24a.85.85,0,0,0,.86-.7.73.73,0,0,0-.48-.86c-.59-.28-1.19-.56-1.79-.81a44.42,44.42,0,0,0-6.64-1.93.77.77,0,0,1-.64-.6c-.22-.78-.48-1.56-.73-2.33s-.44-.85-1.18-.65c-3,.82-6,1.63-9,2.46a1.19,1.19,0,0,0-.63.46c-.56.89-1.12,1.79-1.6,2.73a2.37,2.37,0,0,1-1.18,1.11,40.73,40.73,0,0,0-6.92,4.13,11,11,0,0,0-1.12.89.72.72,0,0,0-.21.6C11.5,31,11.79,31.12,11.89,31.18Z" style="fill:#fff"/><path d="M156.29,21.74l-6.51,1.61-1.09,3c-.57,1.55-1.08,3.13-1.75,4.64a6.51,6.51,0,0,1-1.45,1.94,2.44,2.44,0,0,1-1.4.56A1.88,1.88,0,0,1,142,31.28a16.57,16.57,0,0,1,.52-3.42c.38-1.44.92-2.84,1.41-4.3l-.94-.2a4.78,4.78,0,0,1-2.24-1.08,1.35,1.35,0,0,1,.29-2.39,7.29,7.29,0,0,1,3-.72c.67-.07,1.35-.1,2-.15.55-1,1.08-2,1.64-2.92a38.68,38.68,0,0,1,4.57-6.64A8.65,8.65,0,0,1,154,8c.76-.5,1.41-.13,1.4.78a5,5,0,0,1-.31,1.75c-.75,1.91-1.57,3.79-2.36,5.69-.32.75-.65,1.49-1,2.36l6.06-.71c.33-.72.64-1.41,1-2.09a28.8,28.8,0,0,1,4-6.52,6,6,0,0,1,.88-.8,1,1,0,0,1,1.22-.14,1,1,0,0,1,.38,1.16q-.46,1.64-1,3.26c-.43,1.35-.89,2.68-1.38,4.15l1.21-.28a3.88,3.88,0,0,1,.93-.19,1,1,0,0,1,.7.31c.09.1,0,.46-.14.63a2.49,2.49,0,0,1-.71.63c-.72.42-1.45.83-2.21,1.2a1.16,1.16,0,0,0-.69.82c-.43,1.68-.86,3.36-1.33,5a8.52,8.52,0,0,1-1.38,3,2.42,2.42,0,0,1-2.68,1,1.57,1.57,0,0,1-1.12-1.28,7.57,7.57,0,0,1,.19-3.32C155.8,23.53,156.06,22.65,156.29,21.74Z" style="fill:#fff"/><path d="M129.59,26.84c-1.25.77-2.42,1.55-3.63,2.22a6.69,6.69,0,0,1-3.68.9c-.53,0-1.06-.15-1.6-.23a6.26,6.26,0,0,1-4.87,2.34c-2,.18-4.07.09-6.1.19-1.35.07-2.7.23-4,.41-.92.13-1.51-.39-1.32-1.3a5.33,5.33,0,0,1,1.7-2.9c1.8-1.64,3.66-3.2,5.51-4.79.63-.54,1.28-1.05,1.87-1.67-1,.11-1.93.25-2.9.33a24.33,24.33,0,0,1-2.51.08,2.62,2.62,0,0,1-1.85-.74,1.81,1.81,0,0,1-.55-1.69,1.33,1.33,0,0,1,1.61-1.14,7,7,0,0,0,1.66,0c1.94-.26,3.87-.57,5.8-.86a7.33,7.33,0,0,1,3.09,0,1.82,1.82,0,0,1,1.3,2.76,8.85,8.85,0,0,1-1.52,2c-1.86,1.92-3.76,3.8-5.65,5.7l-.26.3c2.72.21,5.32,1.09,8-.07-.92-2-.21-3.71.95-5.24a13.8,13.8,0,0,1,8.73-5.34,9.65,9.65,0,0,1,2-.09,3.5,3.5,0,0,0,1.57-.16A1.13,1.13,0,0,1,134.31,19a3.49,3.49,0,0,1-.14,1.23c-.24.86-.54,1.71-.8,2.57a3.53,3.53,0,0,0-.15.7,1.17,1.17,0,0,0,1.06,1.4c.35.07.72.09,1.06.17a3.3,3.3,0,0,1,.84.3.83.83,0,0,1,.11,1.52,3.12,3.12,0,0,1-.67.38,7.49,7.49,0,0,1-3.26.66A3.58,3.58,0,0,1,129.59,26.84Zm-5.45-1.33.08.19a4.52,4.52,0,0,0,.91-.17c1-.4,1.94-.84,2.91-1.25a1.46,1.46,0,0,0,1-1.16,8.77,8.77,0,0,1,.59-1.5,4.2,4.2,0,0,0,.11-.41C127.23,21.95,125.12,23,124.13,25.51Z" style="fill:#fff"/><path d="M72.26,18.41c-.6.06-1.08.14-1.55.15a1.07,1.07,0,0,1-1.22-1.1,2.3,2.3,0,0,1,1-2.07A7.57,7.57,0,0,1,73.86,14a11.17,11.17,0,0,1,7.69.83,6.83,6.83,0,0,1,3.74,7.46,8.54,8.54,0,0,1-3.4,5,13.75,13.75,0,0,1-8,2.78,5.12,5.12,0,0,1-1.59-.24,3,3,0,0,1-.8-.53c.14-.63.56-.69.94-.8,1.05-.31,2.13-.53,3.15-.92a10,10,0,0,0,4.22-2.86,3.44,3.44,0,0,0-.93-5.46,8.32,8.32,0,0,0-3.31-1c-1,4.4-3.2,8.31-5.12,12.33Q68.64,34.35,66.68,38a37.29,37.29,0,0,1-2.25,3.52,2.9,2.9,0,0,1-1,.8,1,1,0,0,1-1.53-.52,3,3,0,0,1-.21-1.16,15.7,15.7,0,0,1,1-4.66,56.66,56.66,0,0,1,7.16-14.55c.63-.9,1.33-1.74,2-2.61Z" style="fill:#fff"/><path d="M96.82,33.49c.63,0,1.26-.1,1.89-.14a32.36,32.36,0,0,1,7.5.68,14.65,14.65,0,0,0,7.56-.49l.17,0a.81.81,0,0,1,1,.34.73.73,0,0,1-.22,1,10.86,10.86,0,0,1-2,1.27,14.65,14.65,0,0,1-6.33,1c-1.86,0-3.71-.16-5.56-.18a34.27,34.27,0,0,0-9.59,1.18,4.58,4.58,0,0,1-.7.13,1.56,1.56,0,0,1-1.82-1.94,5,5,0,0,1,1.5-2.61C91.08,32.83,92,32,93,31.12q2.94-2.68,5.91-5.34a2.41,2.41,0,0,1,.46-.26l-.14-.09c-1.31.09-2.61.23-3.92.25A11.35,11.35,0,0,1,93,25.39a1.78,1.78,0,0,1-1.24-1,1.25,1.25,0,0,1,.81-1.88,3.05,3.05,0,0,1,.59-.07l9.5-.51a7,7,0,0,1,1.07,0A1.23,1.23,0,0,1,105,23.41a5.82,5.82,0,0,1-.75,2,25.3,25.3,0,0,1-3.78,4.31c-1.13,1.13-2.27,2.25-3.41,3.37l-.28.29Z" style="fill:#fff"/><path d="M181.44,17.57c-.77-.21-1.52-.36-2.22-.62a2.53,2.53,0,0,1-1-.71,1.36,1.36,0,0,1,.87-2.27,5.52,5.52,0,0,1,1.13.06l3.13.2c.83-1.1,1.55-2.11,2.32-3.07.54-.67,1.12-1.3,1.72-1.91a1.3,1.3,0,0,1,2.23,1.32,10.55,10.55,0,0,1-.69,1.58c-.24.48-.53.93-.84,1.48l.63-.06,7.19-.82a3.23,3.23,0,0,1,1.07,0c.23.05.57.28.59.45s-.24.47-.44.62a2.4,2.4,0,0,1-.77.31c-3.18.91-6.36,1.83-9.55,2.71a1.25,1.25,0,0,0-.91.74q-2.63,5.77-5.29,11.52a4.28,4.28,0,0,1-.57,1c-.46.54-1,.44-1.22-.23a4.07,4.07,0,0,1-.16-1.12,21.14,21.14,0,0,1,1.67-8.63C180.68,19.27,181.07,18.43,181.44,17.57Z" style="fill:#fff"/><path d="M167.81,25.91a18,18,0,0,0,5.79-4.17c.71-.76,1.3-1.61,2-2.4a4.1,4.1,0,0,1,.82-.78,1,1,0,0,1,1.69.79,3.7,3.7,0,0,1-.07,1.07c-.45,2.23-.94,4.45-1.39,6.68a4.83,4.83,0,0,0,0,2.37c.23.78-.35,1.31-1.13,1.07a2.32,2.32,0,0,1-.81-.48,5.21,5.21,0,0,1-1.91-3.79,1.89,1.89,0,0,0-.07-.27l-.52.5a16.59,16.59,0,0,1-3.47,2.83,6.39,6.39,0,0,1-3,.91,2.59,2.59,0,0,1-2.89-2.77,9.1,9.1,0,0,1,1-3.49c.29-.7.6-1.39.91-2.08a.73.73,0,0,0-.31-1c-.25-.18-.64-.59-.58-.71a1.54,1.54,0,0,1,.79-.71,4,4,0,0,1,1.4-.24c1.57,0,2.57,1.19,2.38,3-.13,1.22-.48,2.41-.73,3.62l0,.14Z" style="fill:#fff"/><path d="M90.16,24.16a7.61,7.61,0,0,1-.92,3.68c-1,2-2.19,3.84-3.28,5.76-.34.61-.68,1.22-1,1.84a1.68,1.68,0,0,0-.17.68,1.15,1.15,0,0,1-1.47,1.18,2,2,0,0,1-1.38-1.14,5.09,5.09,0,0,1-.43-3.43,11.65,11.65,0,0,1,2.4-4.83c1.06-1.37,2.21-2.68,3.3-4,.31-.38.61-.79.89-1.2a1.1,1.1,0,0,1,1.08-.61,1,1,0,0,1,.87.95A10.53,10.53,0,0,1,90.16,24.16Z" style="fill:#fff"/><path d="M89.82,20.66a1.69,1.69,0,0,1-1.6-1.86,4.09,4.09,0,0,1,.9-2.18,10.15,10.15,0,0,1,6.35-3.73,1.88,1.88,0,0,1,.54,0c.55.06.78.41.57.92a3.3,3.3,0,0,1-.48.82c-1.25,1.53-2.49,3.07-3.78,4.56a6.81,6.81,0,0,1-1.5,1.18A4,4,0,0,1,89.82,20.66Z" style="fill:#fff"/><path d="M1.28,30.25a1.36,1.36,0,0,1,1.3.9A6.39,6.39,0,0,1,3,32.64c.11.81.16,1.62.25,2.43a.79.79,0,0,1-1,.93A2.15,2.15,0,0,1,.3,34.25,15.31,15.31,0,0,1,0,31.66,1.26,1.26,0,0,1,1.28,30.25Z" style="fill:#fff"/></g></g></svg>