<svg xmlns="http://www.w3.org/2000/svg" viewBox="0 0 199.33 54.87"><title>shasa</title><g id="Capa_2" data-name="Capa 2"><g id="Capa_1-2" data-name="Capa 1"><path d="M183.9,26.84a24.88,24.88,0,0,1,7,1.35c6.36,2.52,9.44,8.59,8.18,16.29-1,6-5.64,9.81-12.33,10.1-.81,0-1.63.08-2.44.08-5.85,0-6.85-.41-10.84-4.34-4.43,4.41-9.78,5.07-15.55,3.6-4.46-1.14-7.08-4.27-7.3-8.34-.26-4.71,1.8-7.91,6.31-9.73,3.95-1.6,8.16-1.66,12.31-2.08,1.29-.13,2.66.16,3.94-.62a41.72,41.72,0,0,0,.15-6.66c0-5.86-2.39-7.76-8.48-6.75,0,1.72,1.18,3.15,1.37,4.84.37,3.29-1.06,6.12-3.85,7.23a6.27,6.27,0,0,1-7.58-2.28,6.21,6.21,0,0,1,.9-7.85c1.43-1.5,3.37-2.21,5.17-3.18a10.21,10.21,0,0,0-15.74,0,6.35,6.35,0,0,0-1.25,4,42,42,0,0,1-.16,6c-1.08.65-1.51,0-1.89-.79A22.7,22.7,0,0,0,139,23.05a10,10,0,0,0-11.84-3,6,6,0,0,0-3,2.46c-1.63,2.72-.58,5.45,2.51,6.51,2.92,1,6,.94,9,1.6.5.11,1,.1,1.51.21,4,.91,7.79,2.14,9.11,6.63a12.85,12.85,0,0,1-3.1,13c-3.69,4-8.39,4.72-13.48,3.8a20.54,20.54,0,0,1-6-2.16,4.29,4.29,0,0,0-5.06.43c-5.45,3.89-14.41,2.8-19-2.3a12.49,12.49,0,0,1-9.88,4.35c-3.79,0-7.29-.65-10.29-3-7.85,3.65-16.1,1.44-24.13,2-.57,0-.92-.35-.88-1.07,1.18-.95,2.75,0,4-.69.56-1.12.27-2.36.27-3.55,0-6.83,0-13.66,0-20.49a12.72,12.72,0,0,0-.22-3c-.92-3.8-3.77-5.17-7.16-3.25-2.9,1.64-5.12,4.21-5.26,7.47-.32,7.6-.1,15.23-.1,22.76,1.46.83,3-.13,4.2.74a.81.81,0,0,1-.75,1.12c-4,.64-17.72.07-19.34-.9,1.28-1.07,2.81-.24,4.3-.84V3.74c-2.87-.09-5.82-.38-8.7.2-4.51.91-6.49,4.91-3.63,8.48,4.11,5.13,2.7,10.72,3,16.15-1.56.72-1.89-.24-2.27-1.08a18.69,18.69,0,0,0-3-4.91A10,10,0,0,0,8.35,20,5.64,5.64,0,0,0,4.56,25.4c.17,2,1.53,3.36,4.43,3.94,2.6.52,5.23.83,7.85,1.23l.91.14c6.86,1.2,9.82,3.91,10.24,9.37a13.24,13.24,0,0,1-8.9,13.82,14.59,14.59,0,0,1-9.61-.11c-2.91-1-5.63-1.68-8.19.69-.09.08-.38,0-.8-.12V41.31c1.8-.54,1.7.9,2,1.7,1.67,4,4.17,7.23,8.19,9.07A9.71,9.71,0,0,0,19.27,52a6.22,6.22,0,0,0,3.33-3.81c1-3-.12-5-3.11-5.85a66.25,66.25,0,0,0-7.24-1.16c-1.2-.21-2.42-.35-3.6-.64-6.44-1.57-9.1-5.32-8.59-12A11.78,11.78,0,0,1,10.53,17.8a19.8,19.8,0,0,1,8.12,1c1.48.47,3.12,1.15,4.55-.22.3-1.45-.62-2.37-1.21-3.4A34.41,34.41,0,0,1,20.16,12C18.3,7.8,20,4,24.45,2.62A13.62,13.62,0,0,1,28.67,2C32,2,35.4,2,38.76,2a12.25,12.25,0,0,0,7.12-2V23.58c1.23-.16,1.41-1,1.89-1.43,4.53-4.42,9.9-5.38,15.81-3.73a7.77,7.77,0,0,1,5.27,5.13,18.47,18.47,0,0,1,1.06,6.6c0,6.22,0,12.44,0,18.66,0,1,0,2,0,3.06,3.08.51,5.65.13,7.9-1.7-2.69-9,0-13.56,9.22-15.47a68.83,68.83,0,0,1,8.8-1c1.09-.08,2.26.16,3.45-.69,0-3,.16-6.16-.05-9.29-.16-2.46-1.65-3.76-4.13-4.21a8.93,8.93,0,0,0-4.18.11c.47,1.43,1,2.8,1.38,4.21a6.52,6.52,0,0,1-5.68,8.39,6,6,0,0,1-6-3.4A6.3,6.3,0,0,1,82,21.56,13.24,13.24,0,0,1,89.67,18a28,28,0,0,1,13,1c5,1.69,7.46,4.93,7.51,10.26.07,6.52,0,13.05,0,19.58,0,1.1-.22,2.25.44,3.26,4.24,2.07,8.25-.2,8.31-4.7,0-2,0-4.06,0-6,1.73-.81,1.94.38,2.29,1.31a17.47,17.47,0,0,0,5.44,7.62,10.67,10.67,0,0,0,9.44,2.32c3.29-.75,5.38-3.11,5.47-6.1.07-2.41-.72-3.55-3.07-4.25s-5-.77-7.54-1.21c-1.1-.19-2.21-.34-3.3-.6-6.61-1.56-9.47-5.5-8.85-12.15A12,12,0,0,1,130,17.76a20.62,20.62,0,0,1,7.83,1,5.18,5.18,0,0,0,6-1.4c5.38-5.36,11.86-5.49,17.87-.79l1.53,1.22c3.25.06,6.6-.25,9.94.37C178.34,19.16,182.5,21.25,183.9,26.84Zm.42,25.26a9.21,9.21,0,0,0,10.47-2.45c3.25-3.46,3.83-9.82,1.51-14.63-1.78-3.71-7.31-7-12-6Zm-11.17-17c-2.48.26-4.61.41-6.72.72s-3.95,1.31-4.41,3.62a18,18,0,0,0,.31,9.34,4.87,4.87,0,0,0,7,2.79,6.92,6.92,0,0,0,3.85-5.87A60.2,60.2,0,0,0,173.16,35.07Zm-73.91,0c-2.55.29-4.86.47-7.13.83A4.63,4.63,0,0,0,88,40.13a19.36,19.36,0,0,0,.33,8.15,5.07,5.07,0,0,0,8.47,2.38,7,7,0,0,0,2.41-4.47A73,73,0,0,0,99.25,35.07Z" style="fill:#fff"/></g></g></svg>