<svg xmlns="http://www.w3.org/2000/svg" viewBox="0 0 85.52 148.75"><title>Tabasco</title><g id="Capa_2" data-name="Capa 2"><g id="Capa_1-2" data-name="Capa 1"><path d="M14.71,125.36a3.88,3.88,0,0,0-.51-.29l-2.43-.91a.16.16,0,0,0-.11,0l-.2-.13-2.61-1.8-.58-.49L6.14,119.3l-.29-.49-.33-.72-1-2.89-.05-.3L4.18,114l-.06-.44L4,113.21,4,112.46l-.1-.47-.2-1.82c0-.65-.11-1.3-.12-1.95,0-1.13,0-2.25,0-3.38,0-.81,0-1.62,0-2.42a4,4,0,0,0-.11-.65l0-.45c0-1.33.12-2.67.14-4,0-1.56,0-3.13,0-4.69l.05-10.35V80.44a.8.8,0,0,0,.11-.27q0-3.84,0-7.67l0-3.65,0-2.59V64.88q0-2.26,0-4.53c0-.13,0-.25,0-.38q0-.75.06-1.5l.06-7.91v-2.3a.17.17,0,0,0,0-.15l-.05-1.82C3.63,45.2,3.47,44.1,3.3,43c0,0-.12-.08-.18-.12l-.21-.54L2.65,42h0A7.4,7.4,0,0,0,.72,39.64c-.26-.25-.48-.55-.72-.82l.37-.4c.69-.5,1.4-1,2.05-1.5q4.12-3.33,8.2-6.69c.7-.57,1.36-1.18,2-1.77h0l.32-.29.44-.33,1.77-1.38,1.37-1.11c.43.23.84.42,1.23.64a18.67,18.67,0,0,0,5.7,1.95,9.47,9.47,0,0,0,6.67-1.06,3.06,3.06,0,0,0,.49-.45c-.72-1-.12-1.72.38-2.53l-1.57-1-.17,0L29,22.76a.18.18,0,0,0,0-.1,1,1,0,0,1,1-.85,2.14,2.14,0,0,0,1.92-1.65c.7.47,1.32,1.06,2.22.8a2.38,2.38,0,0,0,1.57-1.67c.25.17.49.3.7.47,1.42,1.07,2.71.74,3.39-.87,0,0,.07-.07.12-.11L41.33,20a2.73,2.73,0,0,0,2.5-1.16c.7.58,1.23,1.53,2.63,1.06l1.25-1.11c.48.66.88,1.49,1.91,1.54a3,3,0,0,0,2.25-1.05c.87,1.84,1.89,2.31,3.83,1a2.46,2.46,0,0,0,2.11,1.55c.28,0,.52.33.94.62a5.26,5.26,0,0,0-2.31,1.34c.16.74,1.08,1.19.83,2.16H55l-.07.19,1.63,1,1.45.52.54.2L59,28l1.08.22,1.64,0c1.36-.21,2.73-.37,4.08-.64a22.73,22.73,0,0,0,2.58-.81,1.86,1.86,0,0,0,.41-.27l.71-.23.85-.27c.79.7,1.62,1.4,2.42,2.12L80,34.7c.52.48,1.06.93,1.59,1.39h0l.16.16,1.5,1.38.18.15,2.12,2c0,.58-.53.7-.83,1a9.65,9.65,0,0,0-2.64,4c-.3.85-.44,1.74-.66,2.62a3.58,3.58,0,0,0-.26.78c-.12,1.16-.27,2.31-.27,3.47,0,2.15.09,4.3.14,6.44v3.52l0,4.09.06.33,0,2.89,0,2.11V72.5C81,73.23,81,74,81,74.69c0,.5.07,1,.11,1.49l.07,3.64q0,4,0,7.94v1.5q0,2.66,0,5.31c0,.06.07.13.1.19v.9c0,.91-.09,1.82-.11,2.73a6.45,6.45,0,0,0,.11.94q0,3.81,0,7.61c0,.44-.1.88-.12,1.33-.11,2.41.2,4.83-.28,7.23l-.19.75-.13.31-.07.7-2,3.7h0l-1.88,1.95-1,.65-1.7,1-.87.3-2.75.73-.29,0c-1.55.15-3.11.25-4.66.47a19.22,19.22,0,0,1-6-.26c-2.19-.38-4.34-1-6.5-1.6a9.05,9.05,0,0,0-4.26-.32,5.1,5.1,0,0,0-2.8,1.53l-.16.13a2.23,2.23,0,0,0-.49.32c-.42.47-.83.95-1.22,1.45s-.76,1-1.18,1.62l-.47-.68c-.4-.58-.78-1.18-1.22-1.73a7.42,7.42,0,0,0-5.06-2.58,12.76,12.76,0,0,0-2.39.09l-.6,0-.77.12-.74.08-.32.08-.29,0-2.53.38-5.29.85a17.17,17.17,0,0,1-6.47,0c-.46-.1-.95-.12-1.42-.17ZM22,97.82l.42-.62,0-.28a14.37,14.37,0,0,0,.31-2.69,5.19,5.19,0,0,1,.2-1.85L23,92c0-1.46-1.33-1.33-2-1.92l-.13-.68c-.56-.13-1-.39-.88-1h0l.75-.42L20,86.84l0-.84.79-.25,1,.68c-.2-.6-.54-1.08-.08-1.68h1.52l.68-.38.9.53a1.6,1.6,0,0,0,.63-1.4c0-1.49-.08-3-.11-4.47,0-.78,0-1.56,0-2.48l-1.4,0h-.75c-.28,0-.55,0-.83,0H14c-.58,0-1.16,0-1.74,0H6.74c-.33,0-.73-.27-1,.22l0,0-.2.51c0,2,0,4.06,0,6.09,0,2.59,0,5.18,0,7.76v11.13l0,3.2c0,.47,0,.93,0,1.4a27.57,27.57,0,0,0,.66,6.91,8.12,8.12,0,0,0,.4,1l0,.25.11.21.17.56L7,116l.07.39.26.47.3.62.32.45,1.53,1.82.58.5,1.19.76.35.27,1.37.62,1.52.61.76.21a12.2,12.2,0,0,0,3.82.83,27.75,27.75,0,0,0,5.77-.68c2.32-.32,4.64-.67,7-1,.58-.09,1.17-.2,1.75-.31l.76,0,3.08.3.45,0,.31.15.24.07.69.35.26.08.35.25.3.16.31.16,1.25.91.28,0a7.84,7.84,0,0,0,.12-1q0-4.62,0-9.24c0-.25,0-.5-.06-.75,0-1.07.07-2.15.08-3.22,0-1.54,0-3.08,0-4.62,0-3.07,0-6.15,0-9.22,0-.88,0-1.75-.07-2.63V91a9,9,0,0,0,0-1.05c0-.11-.19-.21-.29-.32l-.75-.18-.32-.08-.44-.05-1.53-.63a.19.19,0,0,0-.11,0l-1.42-.89-.43-.32-.34-.28-.3-.31-.74-.63h0l-.48-.59-.14-.16-.71-1-.06-.23L33,82.7v0l-.91-3.06-.18,0c0,.59,0,1.17,0,1.76.07,1.08-.28,2.23.48,3.24l.43,0v.79a.15.15,0,0,0,0,.13h0l-.86.8-.17.16H28.68l-1.36,3.36.63.75a4.31,4.31,0,0,1,1.33,2.72c0,.29-.08.63.31.78l.27.33.34.9.15.3a2.3,2.3,0,0,0,.09.43c.22.52.45,1,.76,1.72l1,.92.59,1.52a3.26,3.26,0,0,0,.28,1.16,3.13,3.13,0,0,1,.51,1.86,4.84,4.84,0,0,0,1,3.17,4.44,4.44,0,0,1,.48.77,11.35,11.35,0,0,1,1,4l.88.86.24.07.67.41.73.18.48-.2.81.11-.08,1,.17,1-.3.87.75.68-.22,1.32c-.64.4-.87,1.46-1.87,1.35-.39.54-.35,1.3-1.09,1.47l-.61.27c-.53.26-.77-.38-1.21-.4l-.15.14-.18.43-.29,0a1.68,1.68,0,0,0-1.64-.79L32,119.58l-.13-.36-1-.11.06-.14-.57-.68-1.45,1.52c-.83-.76-1.64.06-2.54-.18l-1-1.56-.64,1.46-.8-.73-.61.14-.35-.66-1,.22-.12-.16-.63-1.08-.12-.16-.26-.61-1.19.55c.1-.36.16-.56.22-.77.4-1.5.77-3,1.2-4.51a2.62,2.62,0,0,0,0-1.77l0-.45a1.49,1.49,0,0,0,.14-.49c0-.68-.13-1.35-.2-2.06a1.38,1.38,0,0,0-.25.17,10.24,10.24,0,0,1-3,2,4.81,4.81,0,0,0-.72.5l-1.33.66-.36.25a.18.18,0,0,0-.11,0l-.77.7c0,.73,0,1.38-.61,1.74H12.58l-.5-.72c-1.06-.14-1.38-1-1.62-2l-.79-.16L9,111l-1.11-1.16-1,.49-.82-1.64L6.34,107l-.23-1,.33-.29h.92c0-.22,0-.31-.07-.4s-.06-.24-.08-.36l.45-.3.61-.46.63-.3.18-.25c.54-.22.9.19,1.32.39a1.12,1.12,0,0,1,.37.07A1.58,1.58,0,0,0,12.6,104c.13-.09.37,0,.62,0l.28,1.78.46.37-.39,1.24.91,1c1.34-1.27,2.27-3.05,4.16-3.68l.63-1.42c.6-1,1.22-1.94,1.8-2.93a2.29,2.29,0,0,0,.14-.73l.06-.54.2-.39.05-.29.45-.61Zm-1,17.56,0,0,0,0c0,.29-.05.65.52.71v-1.34h.29l.2,2c.73.19.24-.64.75-.7l.46,1.42.65-.17.44.34.45-.6v-.69l.08,0,.54-1.69.17,0c.4,1.15.12,2.44.66,3.58l1.48.08.36-.58.23.64A1.53,1.53,0,0,0,29.75,117c.11-.93.11-1.86.16-2.8,0-.26,0-.51,0-.77h.15l.12.25v3.92a3.9,3.9,0,0,1,2.32-2.22,4.35,4.35,0,0,0,.27-3.07l-.16-.46L32,110.32l.07-.85.28-.25-.29-.17-.53-1.16c-.08-.94-.09-1.91-1.11-2.47L31,106.6l-.18.65-.31.42-.47.47a.16.16,0,0,0-.1,0l-1.44.86-.54.07c-.22,0-.45,0-.66.07a5.06,5.06,0,0,1-2.3.06l-1.15-.31-1.06-.77v-.75l.42-1.05-.4.19-.16-2.16-1,1.22.29,1.13a2,2,0,0,0-.25,2.11c0,.11.21.16.31.24l0,.45v.32l-.47,2.27-.4,1.08-.33,1.37-.17.76Zm1.5-25.29.23.25L23,90.1l-.38-.1-.75-.78-.2.73Zm12.3-25.92.58-.64.29-.31,1.21-1.08.16-.14.46-.31.29-.16.45-.07v-.38l0-.45-.11-.93-.05-.6L38,58.18l-.05-.44-.08-.48V57l.26-.77.07-.4.16-.33.33-.64h-1l-.74.92H35.39l-.47-.13-.1-.65-.17-.17-.47,0H32.41l-.15.9-.53.12-1.19,0-.3-1h-.93c-.41,0-.49.08-.32.41l.16.46.3,1.22v.46l-.3,1.49,2.58,1a5.74,5.74,0,0,1,2.11,2.61.17.17,0,0,0,0,.14l.12.46a.18.18,0,0,0,0,.14l.08.9a2,2,0,0,0,.1,1.37l.63-1.14Zm-2,46.16-.16-.22-.08.11.25.11a4.22,4.22,0,0,0,.88,2.09A3.55,3.55,0,0,0,32.8,110.32Zm9.15-49.39-1.38.29-1.23.45-1,.57-.39.2a14.1,14.1,0,0,0-1.43,1.07c-2.61,2.49-3.53,5.75-4,9.16a27.54,27.54,0,0,0-.12,3.22l.14,1.81.41,2.17.63,2,.16.48.21,0L35.39,80h.79c.58-.65.67-.67,2.28-.66l1.38-.67-.18-.92c.91.19,1,1,1.43,1.41s1,.95,1.48,1.47c.48-.56.93-1,1.29-1.52a2.79,2.79,0,0,0,.26-.87l-.2-.9v-.3l.14-.07.76.3a1.05,1.05,0,0,1,.19.28,3.61,3.61,0,0,1,.14.57l-.43.05,0,.9.68.31-.21-1.28h.61l-.06.12,2.54,1.29.06-.12.77.6.29.44a5.26,5.26,0,0,0,1.85,2.23,3.42,3.42,0,0,0,.53-.66,17.24,17.24,0,0,0,.82-2.11,20.27,20.27,0,0,0,.49-7.86c0-.06-.08-.12-.12-.18l0-.29-.09-.32L52.75,71l-.11-.47,0-.44-.37-.84-.18-.7-.12-.21,0-.25a9,9,0,0,0-2-3.69,7.29,7.29,0,0,0-2.77-2.26l-.76-.33-1.21-.45-.32-.14-1.08-.27-.76,0H41.95ZM39.07,117c.28-.08.59-.12.59-.54l-.91-.25a.17.17,0,0,0,0-.1l.51-.31-.39-.36,0-.31.16-.33-.29-.13-.32-.45.2-.75-1.46-.38-.9-.52-.45-.79c-.16.49-.19,1-.44,1.23s-.74.26-1.25.42l-.08,1.87-.18.32-1.41.18c.25,1-.47,1.41-1.12,1.75v.87l.71-.24.38,1,.52-.12.25,0,.25.31.15-.32.37-.14c.06.5.17,1,.94.87l.23-.56a.21.21,0,0,0,.1-.05l.75.61h1.24l.29-1.21.33-.15,1.29-.37-.21-1ZM23.5,98.12l-.29.32-1.09,1.52-.55,1.41,1.16.78-.3.57-1.17-1-.78,1.17A2.71,2.71,0,0,0,22,104.1l.67-.63.72.64.27,3.28a4.49,4.49,0,0,0,4.14.37l.91-.33c1.11-.49,1.36-1.06,1-2.18a1,1,0,0,1-.06-.52c.23-1,0-2,.56-2.92l0,.42c0,.23.06.38.31.18l1.4-.44c.47-.19.35-.5.15-.82l-.06-.29-.26-.93-.15-.31c-.1-.42-.16-.86-.61-1.08l-.26-.17c-.58-.57-1.38-.6-2.06-.93a3.52,3.52,0,0,1-1.9,1.93L25,98.57l-.35-.44.11-.32a2.72,2.72,0,0,0,2.66.66l.76-1.36-1-1.45,0-.44.49-.58h0c.09.09.25.18.26.28,0,.38,0,.75,0,1.14a4.79,4.79,0,0,0,2.26,1.27l-1-2.46.12-.06L28.58,94a4.91,4.91,0,0,0,0-1.47,4.73,4.73,0,0,0-.87-1.31c-.07-.09-.34,0-.52,0h-.29l.29-.64-.28-.41v-.45c0-.09.13-.18.12-.26a2.57,2.57,0,0,1,.69-1.94,3.58,3.58,0,0,0,.39-1H25.58l-.22.88L25,87.6c0-.35.31-.73-.17-1l-.61-.05L24,86l-.1,0,.2,1.74h-.22l-.32-1.19,0-.45-.23-.7H21.88l.52.55.08.29,0,.77-.35.36-1.45-1.1a1.11,1.11,0,0,0,.43,1.11l1.34,1.19,0,.26c0,.1-.09.25,0,.29.37.39.76.76,1.15,1.13l.2.56c-.58.28-.26.6,0,.92l0,.3c-.26.68-.66,1.33-.32,2.11a.62.62,0,0,1,0,.3c-.09.75-.2,1.49-.27,2.24,0,.32,0,.64,0,1.14l1.49-.58-.12-.93c.65.19.68.29.48,1.06l-.79.45Zm-7.15,9.46-.49.57-1.43,1.19-1.82.26.79,1.06,2.69-1.81,2.08-1,.15-.13.62-.45a6.82,6.82,0,0,0,2.58-2.6l-1.37-1.12-1.09,1.87-.73.33-.8.58-.72.65Zm-3.84-2.29-.09-.63-.22.39-.42.12-.94-.14-.75-.2-.31-.22-1.44.29c-.54.48.07,1.33-.52,1.76L7,106.35v1.91l.64-.06-.07,1,.83-.08.44.75.34-.45,1.31.17v-.06l.69.34c.33-.62,1-1.07.62-1.94l.72-.07.23.08,0-.07-.2-.07-.17-.27.17-.41.67-.42-.53-.24,0-.45c.2-.28.28-.53-.15-.67A.19.19,0,0,0,12.51,105.29ZM52.19,63.1l.27-.5.49-1c.38-.28.38-.43,0-.62l-.74-.66a6.4,6.4,0,0,0-1.84-2.1l-1.12-1.3,1-1.16.49-.57.39,0,1.66,1.57a2.06,2.06,0,0,0,1.12,1.14L54,58l0,.16.14.17c.26.31.51.63.8.91a.91.91,0,0,0,.57.3c.54,0,1.08-.17,1.55-.25.39-.51-.14-.66-.31-1l.4-.21-.69-1.28-1.09-.42-.16,0,.4-.65.95-.77.54-.1.87.89a.24.24,0,0,0,.12,0,3.22,3.22,0,0,0,1.92.93l.5-.61a7.29,7.29,0,0,1-.39,3.08c-.45.34-.67-.05-.88-.27l-1.46-.42-.08.87a4.9,4.9,0,0,1,3.7,1.46A5.44,5.44,0,0,1,63,64.48a5.25,5.25,0,0,0,.7-.47c1.15-1.11,2.31-2.2,3.4-3.36A11.77,11.77,0,0,0,68.19,59h0a6.51,6.51,0,0,0,1.57-2.57L70,56c.37-.77.79-1.51,1.09-2.3A26.47,26.47,0,0,0,72.65,48a14.72,14.72,0,0,0-.21-5.78,5.65,5.65,0,0,0-.4-.9c-.71-.07-1.31-.17-1.91-.18a27.47,27.47,0,0,0-5.92.78c-.08,0-.14.13-.21.2l-1.2.33-1,.46-1.45.55-1,.29L59,43.08l.44-.47,4-1.63c.58-.15,1.16-.32,1.75-.45a23.55,23.55,0,0,1,6.34-.45,11.84,11.84,0,0,1,1.65.29,9.64,9.64,0,0,1,1.09,4.4A21.49,21.49,0,0,1,73,52.28a28.25,28.25,0,0,1-3.32,6.54,28.79,28.79,0,0,1-6.35,7,2.56,2.56,0,0,0-.61.67c-.41.69-.78,1.4-1.18,2.12L61,70.1V75l.33.12H78.38l.45,0V72.51l0-4.1c0-.3,0-.6,0-.91q0-7.06,0-14.13c0-.86,0-1.72.08-2.58.09-1.3.23-2.6.34-3.9l0-.28c.38-2.57,1.83-4.65,3.25-7a8.1,8.1,0,0,1-.71-.49c-.8-.69-1.59-1.4-2.39-2.1l-3.17-2.78h0c-.72-.66-1.43-1.33-2.15-2-.48-.43-1-.83-1.49-1.24L72,30.56l-2.06-2a24.83,24.83,0,0,1-7.77,1.55A27.73,27.73,0,0,1,58.94,30a10,10,0,0,1-4.19-1.23,4.37,4.37,0,0,0-2.44-.58c-1.87,0-3.74,0-5.61,0a1.15,1.15,0,0,0-.34.12H43.93l-.42.06V60.13l1.24.31a2.2,2.2,0,0,0,.63-1.51l.11-.53,1.17-2.66c.11-.25.22-.51.34-.76.33-.65.67-1.29,1-1.94.47-.14.51-.58.66-.94l.34-.57a1.67,1.67,0,0,0,.28-.24,23.44,23.44,0,0,1,5.6-5.88c.09-.06.13-.21.19-.31a.23.23,0,0,0,.11,0l.36-.25a.18.18,0,0,0,.11,0L56,44.5l.7-.38.6-.09.3.86-2.57,2-.34.29-1.22,1.19a2.1,2.1,0,0,0-.42.29c-.82.93-1.64,1.86-2.45,2.8l-1.83,2.72-.15.18-.17.41-.26.37-.2.55-.13.2a.13.13,0,0,0,0,.1l-.25.37-.06.24-.21.38-.09.38-.56,1.44,0,.24-.21.38-.05.29-.09.32,0,.29-.23.53.51.08.24,0,.37.25a.19.19,0,0,0,.11,0l.5.28a.22.22,0,0,0,.11,0l.35.26.57.34.5.43h0l.57.3.94,1.25.18.28.28.33.28.46,1.23,2.92c.14.34.28.69.44,1.1l.89-.36a5.69,5.69,0,0,1-2-4.33s-.06-.08-.09-.12Zm-7.5,26.33-.15,0-.61.13-.38.06v34.68a4.74,4.74,0,0,0,1.79-1.39l.87-.43.19-.13a8.72,8.72,0,0,1,4.84-.74l.32.08.44.07.62.1,1.06.34.47.1.29.06a17,17,0,0,0,1.62.55c1.14.27,2.29.48,3.43.72l.75.08.47.09.9.06,2.45.09,2.56,0,2.76-.38.44-.08a2,2,0,0,0,1.46-.48l1.9-.69.67-.4L75,121.3l.93-.76.92-.9A12.16,12.16,0,0,0,78,117.92a14,14,0,0,0,1.08-5.85c0-3.83-.08-7.66-.11-11.49,0-2.2,0-4.4,0-6.6q0-5.9,0-11.8c0-1.81,0-3.63,0-5.5H60.78l.09.87v1.22a1,1,0,0,0-.14.32c0,1.72,0,3.43,0,5.15a2,2,0,0,0,.27.69l.74.16v.75l-1.18,1.08H57.63c-.94,0-1.87,0-2.81,0-.62,0-1.24-.06-1.89-.1V86c.3-.27.57-.55.87-.78a1,1,0,0,0,.39-.93c0-2.08,0-4.17,0-6.25,0-.29,0-.58,0-.87l-.16,0c-.07.34-.15.67-.21,1a14.13,14.13,0,0,1-1.44,4.46c-.61,1.1-1.28,2.17-1.92,3.25a1.89,1.89,0,0,0-.36.25,10.12,10.12,0,0,1-4,2.84c-.1,0-.17.16-.26.24ZM6,67.63,5.86,71l0,3.48v.46H9.93c1,0,2,.12,3,.13,3.58,0,7.16,0,10.73,0a4.37,4.37,0,0,0,.72-.12h.93c.06-.11.1-.15.1-.2a4.15,4.15,0,0,0,0-.53c-.1-2,.29-3.94-.34-5.77L23.86,67l-.08-.23-.16-.31-.26-.77,0-.15-.06-.28-.08-.47V64l.62-2.28a.16.16,0,0,0,0-.1l.39-.52A5.63,5.63,0,0,1,27.61,59c.23-.06.45-.15.61-.21l-.1-1c.65-.42.68-.49.42-1.12l-.2-.75-.26-1.08L27.91,54c.93,0,1.79,0,2.66,0,.09,0,.18.16.27.24,0,.49.14.72.72.57v-.57a.93.93,0,0,0,0-.15L33,53.91l.45,0,2,.14.34,1.06.83-.41.56-.7h2.58v.48l-.21.39-.36.9a7.48,7.48,0,0,0-.48,1,2,2,0,0,0,0,.69l.18,1.67.17,1.81,1.65-.57.44,0,.74-.28,0-7v-.46l0-4.72V28.61c0-.38-.21-.34-.45-.3l-6.56,0c-.81,0-1.62,0-2.43,0a2.12,2.12,0,0,0-.93.27,9.65,9.65,0,0,1-4.31,1.27,1.56,1.56,0,0,0-.4.14l-.6,0H24.42l-3.53-.58-.68-.1-.38-.21L19.54,29l-1.22-.44-.24,0-1.26-.81L15.27,29.2l-.61.46-.91.77h0a1.82,1.82,0,0,0-.39.19Q11.65,32,10,33.39c-.44.36-.85.75-1.28,1.12h0L6.54,36.2l-1,.78-.66.58L3,38.91l1.72,2.22.88,2.11.08.6.11.62,0,.6.1.62Q6,48.84,6,52q0,2.47,0,4.94a2.38,2.38,0,0,0-.06.37q0,4.24,0,8.49ZM41.21,86.24l0,.29-.08.32-.05.29-.41,1.34a2.08,2.08,0,0,0,1.62.32h1.36c.11-.06.3-.1.32-.18.07-.33.09-.68.12-1V86.24l-.11-.62,0-.3A6.32,6.32,0,0,0,42.49,81a20.22,20.22,0,0,0-1,2.59A17.59,17.59,0,0,0,41.21,86.24Zm17.2-13.42.32-.14.75-.46c.54-.3.61-.79.19-1.72L59,70.43l-.44-.06-.63-.07h-.58c-.83-.23-1.56.2-2.39.28v3.77l1.83-1Zm-27.76-2.7-.75-.06H28.07l-.6.05-.47.1-.44,0c-.4,0-.48.21-.46.52,0,.75.09,1.51.14,2.29,1.39,1.25,3.25,1.47,4.88,2.37v-5Zm-6.23-7.67L24.09,64v.47l0,.45a3.66,3.66,0,0,0,1.49,2.78l.15.14c.16.27.34.44.64.16l.44-.08h4.85a4.48,4.48,0,0,0,1.69-4.13,3.38,3.38,0,0,0-1.19-2.52l-.76-.64a3.36,3.36,0,0,0-2.91-.79l-1,.09-.32.1-1.22.62-.35.28-.25.19-.33.43-.33.56ZM54,61.69l-.36.69-.25.38-.2.71-.11.21L52.93,65l.1.21.06.7.13.46.89,1.25.64.66L57.66,68l2.12.06c.36.2.69.26.93-.17l.34-.4.29-.35.45-.78.12-.46.18-.76V64l-.18-.75-.19-.49-.53-.91-.47-.47-.31-.29a4.29,4.29,0,0,0-4-.78,3.5,3.5,0,0,0-2,1ZM27.46,84a4.46,4.46,0,0,0,2.59,0l.44-.05c.53.07.76-.25.75-.71,0-1.36-.08-2.71-.12-3.92-1.09-1.38-2.59-1.66-4-2.16l-.31-.14-.56-.38c-.09.21-.18.32-.18.43q0,3.16,0,6.31c0,.29.12.49.45.48Zm32.38-.6a5.06,5.06,0,0,0,.1-.72q0-3.09,0-6.17a5.55,5.55,0,0,0-.17-.9c-1.63.9-3.57,1-4.7,2.46v5.34A5.63,5.63,0,0,0,59.84,83.37Zm-27,20.81-1.88.27a1.49,1.49,0,0,0,.17.45,4.77,4.77,0,0,1,.92,2.22,5.83,5.83,0,0,0,.54,1.48,16.49,16.49,0,0,1,2,3.92c0,.1.16.16.36.35a3.19,3.19,0,0,0,.21-.78c0-1-.05-2-.17-3a4.44,4.44,0,0,0-.49-1.51C33.85,106.53,33,105.57,32.82,104.19Zm19.71-82c-1.08-.36-2.12-.83-3.16,0-.15.93.25,1.53,1.14,1.6.63.05,1.26,0,1.93,0l.51-.78Zm-17.77.93c.25.22.5.65.78.66a8.1,8.1,0,0,0,2.09-.22.84.84,0,0,0,.63-.93.94.94,0,0,0-.93-.75c-.45,0-.9.11-1.35.13C35.34,22,35,22.38,34.75,23.14Zm10.51-.76a2.85,2.85,0,0,0-1.59-1.26l-1.33,1c.26.71.91.9,1.42,1.44ZM54,23.91l.7-.7.15.11-.08.65.55.41.47-.43-.67-1.65-.67,0-.21.64c-.44,0-.78.1-.82.7ZM57.9,74.37A2.24,2.24,0,0,0,58,76l.17-1.11h.1l.19.82.12,0V73.3l-.17-.08-.66.49c-.34-.32-.68,0-.94.1l.3,2.33h.21V73.92ZM13.56,111.58a6.17,6.17,0,0,1-.8-.51,6,6,0,0,1-.6-.71l-.84.47c.55.79.55.79,1.28.77l.22.63.74.13Zm17-36-.23.07.36,1.83-.42.4.75.55V76ZM54.12,70.1c-.57,0-.64.3-.59.66.16,1.06.34,2.11.51,3.16h.08ZM33,67.75a3.16,3.16,0,0,0-.87,3.06ZM27,76.53l.19,0,.1-.85.45-.42,0-.84L27,74Zm1.32-2-.24,0v2.49c.27.05.43.5.76.11,0,0,0-.09,0-.16l-.56-.21A5,5,0,0,0,28.37,74.54Zm27.6,2c.7,0,.7,0,.72-.6l-.41.3v-2h-.2Zm3.7-1.36L59.4,73h-.17L59,74.7Zm-29.9.1v2.28C30.1,77.46,30.2,76.2,29.77,75.32ZM47.64,22.24A2.83,2.83,0,0,0,48,23c.09.09.35,0,.56,0v-.76Zm3.62,35c-.19.39-.18.66.16.76a.56.56,0,0,0,.49-.2c.08-.12,0-.35,0-.56Zm4.45,17.21h-.14v2.36h.14ZM47,23.09l-.2.19.2.81.74-.52,0-.2Zm-14,.47-.8-.31c-.39.48-.23.72.22.95Zm7.76-2.11c-.54-.47-.59-.47-.91.11C40.24,22.08,40.39,22.07,40.74,21.45Zm.9,1c-.39-.56-.54-.55-.9,0C41.18,23,41.25,23,41.64,22.44Zm-7.29,1-.79-.63-.57.53.68.72Zm-1.54-.29c.5-.39.33-.68,0-1C32.18,22.59,32.18,22.76,32.81,23.17ZM29.46,74.81c-.15.24-.28.35-.27.46,0,.67.11,1.34.17,2h.1Zm9.67-52.56c-.14.38-.08.66.31.69.12,0,.37-.23.37-.35C39.79,22.2,39.51,22.14,39.12,22.26Zm1.14,1.67h.23l.29-.71c-.4-.15-.69-.17-.77.16C40,23.53,40.17,23.74,40.26,23.93Zm7.53-2.49c-.23-.34-.49-.45-.74-.13a.52.52,0,0,0,.08.51C47.47,22,47.69,21.87,47.79,21.44Zm-1.79,1c.16.33.36.54.69.28a.51.51,0,0,0,.05-.5C46.47,21.92,46.22,22,46,22.43ZM55.17,75a9.27,9.27,0,0,0-.06,2.21h.16ZM13.95,108.53v.06h.18v-.08ZM22.1,88.76l0-.05s0,0,0,0,0,0,0,.05Zm-8.44,20,0,0h-.05Z" style="fill:#fff"/><path d="M34.46,18.79c.41.15.38.47.19.72a6.65,6.65,0,0,1-.75.76,1.71,1.71,0,0,1-1.72-.52l-1,.39c-.16.2-.31.41-.47.59a1.05,1.05,0,0,1-1.29.29l-.54-.24h0l-.47-.7,1.1.25.59-.33-.16-.86.48-.6-.27-.87-1-.1-.35-.84c-.83.05-1,.18-1.27,1.27a.73.73,0,0,1-.2.06A1.51,1.51,0,0,1,27,18l.44-1.25c.06-.33-.13-.46-.42-.5l-.17,0c-.4-.18-.48.15-.62.39H24.64a1.63,1.63,0,0,1-.8-2.29l-.7-1,.07-.85.54-1.06-.2,0L23,9.85l0-.3.11-.32.06-.14,1.53-.81-.21-.72L24.6,7l1-.83.45,0,.72.24c.44-1.62,1.46-1.63,2.6-1.07,1.07-.88,1.36-.86,2.45.11l.4-.38A1.53,1.53,0,0,1,34,5.58l1.69.15c.27.32.34,0,.43-.15l.17-.15,1-.16.93,1.06c.57-.32.87.22,1.11.38L41,7l.53-.29L41.18,5v-.3a3,3,0,0,1,2.32-2.2l-.05-1h-.6l-.1,0,0-.43.61-.28.14-.18L43.56,0l.59,0,.1.7.67.23v.5l-.68.23.17.7c2.28,1.12,2.29,2.34,1.81,4.18l.47.3,0-.11c.39,0,.78,0,1.17,0,.06,0,.12-.1.18-.16l1.52-.66c.69-.74.61-1.06,2.05-.36h1.95c.91-.72,1.09-.75,2.09-.27l.08.1.07-.11c.84-.92,1.3-.95,2.52-.09L59,4.86c1-.18,1.49.44,1.87,1.18,1.59,0,2.22.09,2.24,2.17l1.2.69A1.91,1.91,0,0,1,64,11.39a1.81,1.81,0,0,1,.5,1.81l-.67,1.05.19.81-.12.73-.74.66-.32.1-.3,0-.94.23L60.86,16l-.81.44L60.58,18h-.53c-.25-.5-.33-1.13-1.11-1.4l-.55,1h-.28l-.88-.12v1l.13.31c0,.21,0,.42.09.63a3.61,3.61,0,0,0,.18.47l.13.15.17.15h0c.27.45.5.19.74,0l.19-.14c0,.14.07.36,0,.4-.41.28-.84.52-1.39.84L56.3,20.17l.13-.12-.94-.36-1.2.71c-1.21-.4-1.48-.74-1.24-1.64l1.08.82c.49.09.68-.24.85-.59s.18-.47.27-.7l.43-.32c.39-.37.38-.51,0-.88a.21.21,0,0,0-.13-.05l-.11-.47-.09-.42c-.07-.57-.45-.52-.83-.39a5.87,5.87,0,0,0-.77.41l0-.38L55,15.14c-.53-1.06-1.7-1.12-2.22-2L52,13.7l-.84-.14-.54,1.16-.73.09a8.45,8.45,0,0,0-1.17,2.06l.69.57,0,0-.19,1L50,19l1.13-.48a1.39,1.39,0,0,1-1.81,1,3.33,3.33,0,0,1-1-.71.92.92,0,0,0-1.48,0,10.28,10.28,0,0,1-1,.76l-1.52-.83.09-1.09c.79-.51,1,.74,1.82.34l.29-.89a1,1,0,0,0,.86-1c0-.48-.28-.66-.69-.78l.12-.81-.73-.26-.75.59-.24-.37.92-.87c-.24-.72-.31-.76-.9-.76-.74,0-1.48-.06-2.21,0-.44,0-.93-.08-1.29.36v.69l.67.31v.74l-1-.65-.65.38.29.77-.72.18v1l.73.58c0,.49.13,1,.8.86l1.2-.49.38,1.2-1.65.89-1.53-1.1-.78.12a1.76,1.76,0,0,1-2,1,1.2,1.2,0,0,1-1.05-1.11l.1,0,.45.13a.17.17,0,0,0,.11,0l.36.25h.29l.63-.33-.19-.83.32-.49.16-.3c.13-.45.08-.81-.47-.91l-.12-.3c.26-.4,0-.66-.32-.75a4.26,4.26,0,0,0-1.08,0l.2-.67-.36-.61-.49.17H35.3l-.43-.6-.44.61-.28.15-.33.31-.89.46v.5h0l.48.26.59.18v.57c-.22-.1-.44-.2-.67-.28s-.46-.15-.7-.23l-.46.53.13.59-.61.58.24.7.57.27L33,19.62l.88-.45.33-.29Zm25.89-4.91.18.41.27,1,.16,0,.32-1.44v-.3a18.3,18.3,0,0,0,0-2.66,3,3,0,0,0-.75-1.61,5.55,5.55,0,0,0-4.89-1.48c-.11,0-.21.18-.37.32l.87,1-.29,1.58.26.52c.86.41,1.62.75,2.36,1.13.4.2.76.46,1.14.7l.15.16ZM26.63,15.15l.25,0c.57-2.57,2.87-3,4.76-4l.24-.76c-.8-1,0-1.71.55-2.61a7.59,7.59,0,0,0-1.21-.24,6.36,6.36,0,0,0-3,.69A3.31,3.31,0,0,0,26.18,11a12.57,12.57,0,0,0,0,2.34A13.28,13.28,0,0,0,26.63,15.15ZM39.28,9.34V9.2L36,8.63a1.29,1.29,0,0,0-.53,1.49Zm9.18-.13,0,.15,3.93.78L51.84,8.6Zm-3.17-.62a9.54,9.54,0,0,1,.15,1.53,14.1,14.1,0,0,1-.3,1.74C46.17,10.54,46.17,8.81,45.28,8.59ZM42.4,8.43c-1.06.8-.78,2.63,0,3.49a8.52,8.52,0,0,0,0-1.11,7.56,7.56,0,0,0-.27-1Zm-4.34.12c-.43-.58-.75-.63-1.4-.22ZM31.14,7.09l.8.27.12-.13-.3-.67Z" style="fill:#fff"/><path d="M27.31,20.7a.27.27,0,0,0-.13,0l-.59-.5-.33-.41L26,19.39c0-.38-.27-.8.22-1.14a3.14,3.14,0,0,1,1.85,1.82l-.07.57Z" style="fill:#fff"/><path d="M78.08,135.35l1.62,0,1.09.28.77.28.17.11a5.86,5.86,0,0,1,2.44,2.16,7.57,7.57,0,0,1,1,4A6.81,6.81,0,0,1,73.82,147l-.14-.17-1.42-2.41-.1-.33-.05-.43-.1-.48v-2.09l.12-.63a7.05,7.05,0,0,1,1.39-2.9l.12-.15,0,0a10.69,10.69,0,0,1,1.8-1.3A19.25,19.25,0,0,1,78.08,135.35ZM76.25,146l.12.16v0l.34.53.16.2.59.43.57.21h1.3l.27,0,.19-.11a.2.2,0,0,0,.12,0l.17-.12a.28.28,0,0,0,.13-.07l.32-.25.3-.34.46-.88v0a1.93,1.93,0,0,0,.4-1.53l0-.45v-2l0-.31a6.35,6.35,0,0,0-1.21-4,2.56,2.56,0,0,0-2.8-1,2.9,2.9,0,0,0-2.05,2.36.2.2,0,0,0,0,.12l-.09.19-.12.46v.15l0,.31a7.26,7.26,0,0,0,.11,3.53l0,.28.1.2.1.55.22.66.05.27.28.46Z" style="fill:#fff"/><path d="M36.36,17.34l-.05.44-.18.45-.07.14a1.5,1.5,0,0,1-1.37,0,3.18,3.18,0,0,1-.52-2l.52-.87,1,.14Z" style="fill:#fff"/><path d="M43,17a.31.31,0,0,0-.06-.12l-.26-1.08c0-.1,0-.2,0-.3.14-.94.41-1.14,1.5-1.1l.46.66c0,.73.28,1.57-.38,2.1S43.42,17.1,43,17Z" style="fill:#fff"/><path d="M51.42,16.42a.41.41,0,0,0,0-.11l.58-.66h.78a1.78,1.78,0,0,1-.3,2.86h-.7C51.22,17.89,51.4,17.14,51.42,16.42Z" style="fill:#fff"/><path d="M59.62,20.69a2.24,2.24,0,0,1,.88-2,.8.8,0,0,1,1.23-.06,2.21,2.21,0,0,1-2.1,2.05Z" style="fill:#fff"/><path d="M26.85,136.84a7.5,7.5,0,0,0-.78-.6,2.69,2.69,0,0,1-.68-.37,1.24,1.24,0,0,1,.37-.12c2.28,0,4.56,0,6.83,0a3.15,3.15,0,0,1,2.91,1.6,2.91,2.91,0,0,1-1.22,4c-.17.1-.36.18-.72.37,1.57.43,2.75,1.11,3,2.73l0,.76,0,.15-.2.72-.11.19-.31.49-.17.26-.31.3-.26.18a5.44,5.44,0,0,1-2.32.8h-.3l-1.54,0H25.54l-.06-.22.69-.31a1.16,1.16,0,0,0,.82-1.08c0-2.83,0-5.67,0-8.5v-1.07l-.09-.19A.16.16,0,0,0,26.85,136.84ZM30,140.5v.59c.05.09.11.27.16.27a4.59,4.59,0,0,0,1.19-.09c1.45-.43,1.92-2.5.88-3.84a3.19,3.19,0,0,0-.91-.57l-.47-.09H30v3.74Zm3,5.81.11-.17.22-.72c.53-2-1-3.42-3.34-2.94v4.94l2-.18.43-.19.16-.13Z" style="fill:#fff"/><path d="M68.33,135.43c.6.14,1.2.29,1.81.41.26.05.51.07.55.4l0,.31,0,1.51v1.07l-.23.61a4.67,4.67,0,0,1-.36-.61,4.81,4.81,0,0,0-1.17-1.84,2.71,2.71,0,0,0-4.29.35,5.53,5.53,0,0,0-1,2.33,8.84,8.84,0,0,0,1,6.32,2.79,2.79,0,0,0,4.7.11l.9-1.57a3.77,3.77,0,0,1,.24-.33l.18,0,.18,3.52a3.18,3.18,0,0,1-1.91.62,10.07,10.07,0,0,1-5.08-.44A5.89,5.89,0,0,1,61,146l-1-2.72,0-.75V142l0-.75.06-.32.05-.3.22-.9a.24.24,0,0,0,0-.11l.27-.5a.19.19,0,0,0,0-.11l.4-.65.32-.47.42-.46.35-.3.47-.43h0a12.84,12.84,0,0,1,3.62-1.3Z" style="fill:#fff"/><path d="M44.55,137l1.33,2.93.07.27.1.16h0l.12.18.65,1.49.13.32.16.31.13.19.07.26.1.18a.27.27,0,0,0,0,.12c.45,1,.88,2,1.36,3a8.07,8.07,0,0,0,.7,1,.24.24,0,0,0,.06.11l.16.14.12,0,.5.27-.33.37-.74,0h-4l-.9-.06.3-.33.19-.1.59-.47,0-.36-.21-.72-.09-.19-.49-1a1,1,0,0,0-.33-.13q-1.65,0-3.3,0a.94.94,0,0,0-.32.14l-.32.62-.11.15-.13,1.07.07.16c.18.7.93.67,1.49,1.16l-.87.1H38l-.44,0L37,148.2l.68-.53.43-.31,0,0,.19-.26.59-.94L39,146l.83-2.1.1-.19a.35.35,0,0,0,0-.14c.39-.87.79-1.73,1.17-2.6.75-1.75,1.49-3.51,2.23-5.27a1.61,1.61,0,0,1,.17-.24l.63.51Zm-1.69,7h1.2l.4,0-1-1.92a.26.26,0,0,0,0-.12,3.06,3.06,0,0,0-.83-1.73c-.51,1.24-1,2.39-1.46,3.55,0,0,.12.16.19.23l1.35,0Z" style="fill:#fff"/><path d="M51.06,138a4.08,4.08,0,0,1,3.3-2.47c.08,0,.16-.1.24-.16l.31,0,2.44.27,1.09.15.14.31-.13,3,0,.19-.08.11h-.24l-.6-1.34,0,0-.16-.3-.18-.3-.69-.63h0a1.7,1.7,0,0,0-2.75.31h0a1.51,1.51,0,0,0,.62,2.41l.27.2.48.29,1.74,1a5,5,0,0,1,2.18,2.3,8,8,0,0,0,.13.89,3.06,3.06,0,0,1-.65,2.7,4,4,0,0,1-3.34,1.64c-.93,0-1.86-.11-2.79-.17l-.47-.14-.31-.13-.13-.07a13.23,13.23,0,0,1,.24-3.82c.18.27.28.39.36.53.35.61.64,1.27,1,1.84,1,1.4,2.54,1.44,3.69,0v-1.93c-.6-.45-1.16-.91-1.77-1.3-.81-.52-1.69-.93-2.47-1.49a3.11,3.11,0,0,1-1.45-2.85,5.22,5.22,0,0,0-.05-.75Z" style="fill:#fff"/><path d="M1.39,139.43v-.3l0-3.22c.17-.37.5-.25.78-.25l1.11,0h7.59l1.41.07v3.92l-.18,0c-.09-.12-.2-.24-.28-.37a16.12,16.12,0,0,0-1.09-1.72,2.36,2.36,0,0,0-2.14-.88c-.29.76-.22,10,.11,10.75l1.59.61,0,.17H3.57l0-.13,1.53-.68c.47-.21.43-.63.43-1q0-4.61,0-9.21c0-.15,0-.29,0-.5l-.54,0-.45.05c-.52-.07-.82.26-1.11.61l-.42.37-1.3,2Z" style="fill:#fff"/><path d="M36.16,15.77,36,15.65l.28-.74.3,0-.14.62a.21.21,0,0,0,0,.13l-.16.16Z" style="fill:#fff"/><path d="M20.29,148.33h-.91l-.2.05h-.59l-.06-.14,1.16-.75a4.46,4.46,0,0,0-.75-2.44,32.1,32.1,0,0,0-3.92-.11,2.68,2.68,0,0,0-.62,2c.13.81,1,.78,1.62,1.36-.92,0-1.71,0-2.48,0a8.2,8.2,0,0,1-2.36-.1c1.56-.68,2-2.15,2.55-3.48,1.18-2.71,2.33-5.43,3.49-8.15.13-.3.23-.61.34-.92H18l1.48,3.06a.39.39,0,0,0,0,.14l.13.3.16.31.12.18a.27.27,0,0,0,0,.12l.1.2,0,.26.1.19,1.26,2.7.1.2.37.86.22.38,1.32,2.81,1.12.8v.18H20.29ZM17,140.2h-.19a28.29,28.29,0,0,0-1.49,3.74h3.22Z" style="fill:#fff"/><path d="M59,49.57l-.61-.24.11-1.21,0-.15.16-.28.94-.42A2.35,2.35,0,0,0,61,45.95l.29-.08.41-.5a1.49,1.49,0,0,1,.46-.21,2.89,2.89,0,0,1,.64.08l.6.29-.16,1.83H62l.89,1.51L62.22,50l.24,1.2.52.94,0,0,.6.95,1-.77a1.37,1.37,0,0,1,.05,1.61L63.42,54c-1.17-1.09-1.71-2.56-2.6-3.85l-.28.46c-.44-.5.35-.71.14-1.15L62,49.29l.22-.69H59.92Z" style="fill:#fff"/><path d="M58.54,43.82l-7-12,.23-.14a28.37,28.37,0,0,1,1.78,2.92c.62,1,1.14,2.08,1.73,3.1s1.2,2,1.78,3,1.15,2,1.72,3Z" style="fill:#fff"/><path d="M51.31,31.36,50.51,30l.19-.12.85,1.34Z" style="fill:#fff"/><path d="M68,101.78c-.21-1.06-.47-2.11-.6-3.17a3.72,3.72,0,0,1,1.16-2.92A2.25,2.25,0,0,1,71.06,95l.15,0,.24.05a2.6,2.6,0,0,0,1.17,1,1.59,1.59,0,0,1,.7.79,4.6,4.6,0,0,1,0,2.62A1.52,1.52,0,0,1,72,99.07c-.36-.31-.68-.66-1-1a.26.26,0,0,0,0-.12V96.53c-.7-.4-.87-.35-1.58.35l-.49,1.18-.11.36a5.94,5.94,0,0,0,1.33,3.7l1.39,2.71.49,1.52.11.31-.13,2.24-.26.5-.49.58-.16.17a1.71,1.71,0,0,0,.32,1.36c.44.7.82,1.44,1.22,2.16l.14.6,0,2.13-.08.32-.16.9c-.22,1.31-1.22,1.69-2.44,1.93a1.94,1.94,0,0,1-1.35-.81,2.66,2.66,0,0,0,.11-.58,1.2,1.2,0,0,1,.89-1.24c.16-.06.32-.14.47-.22l.15-.14-.75-1.68-.35-.39-.14.36a10.13,10.13,0,0,0-2.1,2.61l-.66.7c-.69.12-1.38.25-2.07.36s-1-.24-1.39-.78l.18-1.17.15-.14.3-.14,1.2-.07.72-.14c.26-.53.56-1,.23-1.51l0-.3-.1-.34,0-.57-.11-.21-.82-1.31-.27-.33h0l-.31-.16a.11.11,0,0,0-.1,0L63,111l-.75-.07-.32-.07-1.2-.23-.32-.1-.29-.05-2.29-1-.72-.52-.77-.55,0,0-.92-.63-.46-.29-.35-.41a11.64,11.64,0,0,0-1.31-.17,4.51,4.51,0,0,0-1.4.13,8.42,8.42,0,0,0-1.38.72H50l-.61-.13-.54-.06-.52-1.88-.32,0-.42-.33-.27-.36-.06-.53,0-.59.46-.58,1.69-.06a.92.92,0,0,0,.27-.1L50,103l1.54-.17.45.05.45.06.18-3.11.49-.43L53.71,98l1.79-1.05-.22-.6-.58-.19a2.54,2.54,0,0,0,0-.7,2.33,2.33,0,0,1,.91-2.8,8.8,8.8,0,0,0,1.26-1c.4-.41,1-.64,1.07-1.35a5.55,5.55,0,0,0-.81-2.44l.63-.32,1.68.75-.17,1.53c.66.26.66.26.94-.18l-.36-1.18,1-.69a1.3,1.3,0,0,1,1.21-.07l.4.78.36.61a7.07,7.07,0,0,1-.68.77c-.24.21-.49.37-.31.77a.7.7,0,0,0,1.12-.3l.08-.75.4-.36a4.31,4.31,0,0,1,.75-.28,5.74,5.74,0,0,1,.94,0c-.18,1.22-1.06,2.07-1.23,3.13,1.6,2.08,2.42,4.29,1.63,6.88l-.41.25a1.08,1.08,0,0,1,.07,1.43,12.82,12.82,0,0,0-.89,2.29,1.64,1.64,0,0,0,.34,1.78A7.57,7.57,0,0,0,68.72,107l.58.47a1.8,1.8,0,0,0,.08-1.73l-.17-.6-.11-.47-.19-.6Zm-4-11.88h-.45l-.8,1.6h.77L64,89.89l.25-.16-.13-.13Zm-14.5,14.87.48-.07,1.2-.07H52l.73,0,.94,0h.48c.26,0,.52,0,.78,0,.92-.1,1.7-.78,2.68-.61l-.29.61-2.92.66H51.72l-.48.06-1.82.33c-.65.3-.45.82-.38,1.35h.39a2.55,2.55,0,0,0,2.37-.59h2.65l2.31,1.42.13-.21.9.92,1.65,1,.95.43.32.11,1.05.2.77.13a4.49,4.49,0,0,1,2,.61l.43,0,.3.92a1,1,0,0,0,.95.74l.61.31.07,0h.07l2.27.9.18.14a3,3,0,0,1,1.36,3.22l-1.32.54v.89c.92.6,1.53-.08,2.23-.44.1-.42.21-.84.3-1.25a5.43,5.43,0,0,0-1-4.87,4,4,0,0,1-.67-1.8,3.18,3.18,0,0,0-1.86-2.58,7.67,7.67,0,0,0-.9-.41,6.64,6.64,0,0,1-2.91-1.68l-.15-.16-.86-1L63.57,103l.13,0,.41-1.53.75-1.62-.22,0,0-1.29.1-.08,0,0-.07.11-.58-.08c.29-.44,1-.27,1-.92l-.7-.12-.2-.7.1,0,.36.52.68-.21L65.09,96H64l-.22-.72.09,0,.47.67.63-.27c.1-.94.1-.94-.51-1.26a6.91,6.91,0,0,1-1.2-.11,1.38,1.38,0,0,1,0-.22l.64.25.54-.48a2.91,2.91,0,0,0-1.53-1.65,22.19,22.19,0,0,0-2.65-.55l-.45,0-.93-.09-.29,0a.74.74,0,0,0-1,.53l-.26.17c-.72.15-1,.81-1.53,1.23l-.31.28-.3.36.13.13.2-.14.29.1-.14.21c-.49,0-.51.36-.59.76a1.65,1.65,0,0,0,1.82.17l.77.14V96l-.59.43-.82.07v.12l.92.32v.44c-.34.05-.68.09-1,.17s-.63.2-.94.3l-.32.75-.27-.44-.18.15-.36.54-.37.84-.18.31c-.49,0-.49.35-.47.68a5.41,5.41,0,0,0,.15.8l-.31.57c.17.33.07.82.62.84h0l-.15.29-.54.32H51.7a5,5,0,0,0-1.08-.11,10.38,10.38,0,0,0-1.38.33l-.45,0h-.3l-.68.24.22.66.24.7.43-.34Zm18.58-4.83a5,5,0,0,0,.12.66q.56,1.61,1.14,3.21a5.84,5.84,0,0,1,.43,3.9l1,1.69a2.3,2.3,0,0,0,.68-1.47,7.59,7.59,0,0,0-1.09-3.81c-.63-1.35-1.36-2.64-2.06-4C68.38,100.1,68.3,100.06,68.14,99.93Zm.38,14.43a4.45,4.45,0,0,0-2.47-.87c.18,1.1.49,2.14-.39,3.1l-2,.27-.28.76c.95.45,1.77.08,2.65,0ZM58.73,90.8l2.48.19.27-1.28.8-.43-.64-1.16-1.13.62c.05.17.08.29.13.41s.12.28.17.39c-.24.92-.53,1.2-1.09,1.11a1.37,1.37,0,0,1-1-1.32l.27-.56-.94-.45Zm13.16,5.73c-.6.91-.25,1.72.87,2.14a2.33,2.33,0,0,0-.11-1.84Z" style="fill:#fff"/><path d="M35.24,53H33.57l-4.27-.14H29c-.93,0-1.86-.07-2.79-.13-.15,0-.29-.2-.44-.3l0-1.69,0-.76,0-.32v-.29l.13-.59h0l.85-.29.32-1.88.06-.44A.66.66,0,0,0,27.3,46c.38-2.14.63-4.3,1.17-6.4A7.63,7.63,0,0,0,28,35v-.28h2.83l.24.84.51,0,.14-.87h4l.09.85.81,0,.74-.91h2.46l-.06.58,0,.26-.1.2-.33.76-.45,1.22v.46l.13.92.05.44L39.21,42l0,.45a6.1,6.1,0,0,0,0,.67c.08.71.18,1.43.28,2.14a2.31,2.31,0,0,0,.13.4l0,.6.11.93,0,.3L40,48.56l.93.16a4.23,4.23,0,0,1,.14.73c0,1.14,0,2.27,0,3.51h-.87l-4.33-.08A2.89,2.89,0,0,0,35.24,53ZM35,36.36h0v-.85H32.33v.86H30.52a.33.33,0,0,0,0-.13l-.19-.73H29c.09.38.17.69.23,1A6.15,6.15,0,0,1,29.41,38c-.05.77-.25,1.54-.38,2.31l-.61,3.56,0,.29-.27,1.53,0,.45-.27,1.08-.19,1.36-.09.32-.35.46c-.23,0-.5-.1-.45.29l0,.45c0,.6-.09,1.2-.11,1.81,0,0,.18.09.28.14h3.79A2.31,2.31,0,0,0,32,51.93l-.86-.27,0-.17.91-.34L32,50.94h-1l0-.7.95.13L33,48.53l-.16-.42.13-.39c.47-.14.83-.11,1,.37l-.52.62,1,1.15.63.19-.42.47.79.12-.43.87.32.62h1.2a19,19,0,0,0,3.62,0V49.38H39.5l-.3-.34-.28-2.75-.06-.59c-.1-1-.2-2-.32-3.05,0-.41-.15-.82-.23-1.23l0-.45c-.07-.78-.13-1.56-.21-2.33a2.43,2.43,0,0,1,.14-1.55,10.22,10.22,0,0,0,.56-1.57H37.51l-.31.71-.14.15Z" style="fill:#fff"/><path d="M8.28,48.76l.81-.27c.22-1.09.47-2.17.67-3.25.34-1.84.58-3.69,1-5.51a7.18,7.18,0,0,0-.22-4.08,8.42,8.42,0,0,1-.2-.88h2.55c.42.22.28.93.95.82l.15-.9h3.88l.22.47,0,.45h1l.55-.89h0l2.13,0,.43.33-.12.32-.06.29L21.36,37a.2.2,0,0,0,0,.11l-.12.19-.13,1.06.27,2,.07.59.08.48.08,1.2.08.63.05.59c.15,1.38.28,2.77.46,4.15,0,.22,0,.6.42.6l.66.28,0,4-1.87,0H19.67l-3,.06h-.92l-3-.11a3.8,3.8,0,0,0-.71-.15c-1,0-1.92,0-2.89,0-.24,0-.49,0-.81-.08L8.2,49Zm14,3.4q.36.14.29-.24l0-2.26c-.07-.1-.12-.27-.21-.29a4,4,0,0,0-.71-.08c0-.33,0-.6-.08-.87-.15-1.07-.3-2.13-.45-3.2l0-.6-.13-1.08-.06-.44-.25-1.69,0-.3c-.06-.7-.09-1.4-.19-2.1a3.36,3.36,0,0,1,.17-2.14c.21-.41.35-.86.54-1.37H20l-.74.93H17.33l-.12-.91H14.72l0,.86H13l-.47-.88H11.21l.57,1.92v.61l-.13.93,0,.3a4.6,4.6,0,0,0-.44,2.29l0,.45-.22.78-.07.59-.08.32-.07.44-.1.62,0,.29-.15.61-.06.44-.09.32,0,.45-.11.62-.21,1.05L9.79,49l-.31.31c-.3-.08-.54,0-.56.34a19.23,19.23,0,0,0,0,2c0,.29.26.42.56.3H14l-.59-.75-.09-.3,0-.47.37-1,.73,0,1.36-.82L16.91,50l.38,0-.49.56.91-.05.06.13V51l-.08.25-.82.12,0,.16.69.17-.27.43h5Zm-8-2.29-.22.27.29.49Z" style="fill:#fff"/><path d="M39.41,68.43l0-.26a3.24,3.24,0,0,1,.44-.12,4.41,4.41,0,0,1,.52,0c.06.49,0,.92-.6,1.06.21.5.55.37.82.29s.06-.85.66-.71l.62.84.77-.4-.11-.91.65-.07a3.06,3.06,0,0,0,.14.89c.13.25.4.48.56,0h0l.31-.47h.55l.47,1.93-4.87.23L40.25,70A1.93,1.93,0,0,1,39.41,68.43Z" style="fill:#fff"/><path d="M41.55,65.86l.11,0,.88-.12c.12,1-.95,1-1.24,1.61l-.35.92-.15,0,.07-1.33.21,0,0-.09-.16.14-.93.79c0-.61.53-1.22,1.39-1.56l-.07.54.61-.45-.55-.08Z" style="fill:#fff"/><path d="M43.25,63.44l.25.54-.33.27c.2.37.69.61.28,1.21l-.85,0a.77.77,0,0,1,.13-1.18l-.17-.66Z" style="fill:#fff"/><path d="M43.93,69c-.09,0-.25-.07-.26-.11,0-.55-.33-1.12.09-1.8l.46.67.7-.43,0,.87-.68-.06-.08.41h0c-.38,0-.3.25-.31.47Z" style="fill:#fff"/><path d="M43.65,66.65c-.45.68-.55.7-1.13.22l.37-1.07C43.61,65.78,43.46,66.35,43.65,66.65Z" style="fill:#fff"/><path d="M44.7,66a3.08,3.08,0,0,1,1.69,1.3l.14.31V68l-.63-.33h0c-.12-.56-.12-.56-1-.9Z" style="fill:#fff"/><path d="M45.91,67.63c0,.33.33.66-.06,1.08l-.65-.28V67.31l.72.33Z" style="fill:#fff"/><path d="M43.65,65.72c.62.14.86.49.86,1.26L44,67Z" style="fill:#fff"/><path d="M42.92,67.66l.3,0v.11l-.3,0Z" style="fill:#fff"/><path d="M8.63,67.69l.25,0c.1-.14.26-.27.3-.42.12-.46.19-.93.28-1.39.31-1.7.62-3.4.94-5.1.18-1,.37-1.92.55-2.88a4.35,4.35,0,0,0,0-.45L11,57l-.16-.61-.13-.47a.18.18,0,0,0,0-.14l0-.29-.1-.32-.18-.6.07-.55.59-.15,2.11.09.24,1,.63-.18,0-.79,3.82,0a3.66,3.66,0,0,0,.15.64c.05.12.2.19.3.29.47.09.81,0,.92-.55l.29-.33h0l2.14-.05.32,0,0,.77-.43,1.07-.22.58-.13.3c-.29.23-.4.48-.1.79l.06.6.09.62.07.75.1.47,0,.45c0,.67,0,1.35.11,2s.28,1.51.42,2.27l0,.3.14,1.53,0,.75c-.07.26-.09.51.26.59l.44,0c.15.25.41.5.42.75,0,1.13,0,2.27,0,3.53h-14l-1.07-.14L8.1,71.6l.13-3.52a.2.2,0,0,0,0-.12Zm12.15-5.85,0-.3-.13-.77L20.57,60c-.06-.72-.1-1.45-.2-2.16a3.13,3.13,0,0,1,.14-1.69c.18-.43.58-.85.36-1.4l-.92.07-.57.73H17.27l-.06-.92L15,54.81c-.5.12-.09.57-.29.8l-1.8,0-.28-.84H11.24c.13.51.26.94.35,1.37a3.73,3.73,0,0,1,.14,1.19c-.18,1.27-.44,2.53-.65,3.79-.18,1.07-.35,2.13-.52,3.2l0,.3a1.1,1.1,0,0,0-.13.26q-.31,1.55-.6,3.11a.47.47,0,0,0,0,.15l-.19.43c-.23.05-.59-.13-.6.32l0,.3a4.37,4.37,0,0,0,0,2.09h4.27l.23-.77.65-.13v-.08l-.76-.1-.11-.4.08-.4.47-.06-.19-.53,1-.16-.72-.39.09-.77.79.64,1.4.09.67,1.06h.67l-.52.61h.81l-.13.62-.41.12.42.71H22l.59,0V70.07l0-.9c0-.57,0-.61-.57-.58l-.28-.06-.14-.46-.08-.89-.07-.33-.07-.74-.08-.32-.09-.74-.06-.33,0-.9-.12-1.08-.06-.59Z" style="fill:#fff"/><path d="M60.43,92.35l.15-.32.43.59,1,.73-.74.95-.77,0,0-.1,1.06-.5c-.28-.58-.28-.58-.67-.41h0l-.65.07Z" style="fill:#fff"/><path d="M63.78,98.58l-.14,1.18C63.39,99.31,63.32,98.95,63.78,98.58Z" style="fill:#fff"/><path d="M53.54,102.85l0,0,0,0Z" style="fill:#fff"/><path d="M60.85,93.25l.05,0,0,0Z" style="fill:#fff"/><path d="M56.88,93.4,56.78,93c.48,0,1-.28,1.34.26l-.45.61Z" style="fill:#fff"/><path d="M35.21,49.61l-.85-.12.58-.66C35.41,48.95,35.24,49.3,35.21,49.61Z" style="fill:#fff"/><path d="M32.19,48.45v.66h-.61v-.66Z" style="fill:#fff"/><path d="M34.68,48.73l-.56.2.06-.81C34.56,48.16,34.64,48.43,34.68,48.73Z" style="fill:#fff"/><path d="M32.8,48.2l-.05.48-.14,0-.2-.45Z" style="fill:#fff"/><path d="M15.88,47.62c.1.23.29.47.26.68s-.35.24-.54.36a.83.83,0,0,1,0-1Z" style="fill:#fff"/><path d="M14.66,48.73l0,.45-.83,0,.25-.75Z" style="fill:#fff"/><path d="M17.6,49.34l-.56.21c-.06-.63,0-.65.56-.51Z" style="fill:#fff"/><path d="M17,48.42l-.23.48-.23-.07.14-.69Z" style="fill:#fff"/><path d="M14.66,48.74v-.46l.3-.09.21.43Z" style="fill:#fff"/><path d="M16.15,67.06c.15.6-.21.67-.67.77l-.08-.77Z" style="fill:#fff"/><path d="M17.6,68.24l-.44.69C16.84,68.3,16.85,68.27,17.6,68.24Z" style="fill:#fff"/></g></g></svg>