<svg xmlns="http://www.w3.org/2000/svg" viewBox="0 0 199.7 54.79"><title>tecMilenio</title><g id="Capa_2" data-name="Capa 2"><g id="Capa_1-2" data-name="Capa 1"><path d="M180.52,23.56a1.74,1.74,0,0,1-.14.82,3.5,3.5,0,0,1-3.29,2.33,2.23,2.23,0,0,1-2.33-2.33c0-2.6,3-3.15,5.75-3ZM183,24.93V19.86c0-2.74-1-5.62-5.2-5.62a8.13,8.13,0,0,0-4.25,1.1v2.05a6.41,6.41,0,0,1,3.84-1.23,2.89,2.89,0,0,1,3.15,3.15v.27c-5.34,0-8.22,1.78-8.22,5.07a3.92,3.92,0,0,0,4.11,4,4.84,4.84,0,0,0,4.11-2.05h.14l.14,1.78H183c0-1.1,0-2.33,0-3.42" style="fill:#fff"/><rect x="95.47" y="9.45" width="2.47" height="2.47" style="fill:#fff"/><rect x="95.47" y="14.52" width="2.47" height="13.7" style="fill:#fff"/><rect x="150.8" y="9.45" width="2.47" height="2.47" style="fill:#fff"/><rect x="150.8" y="14.52" width="2.47" height="13.7" style="fill:#fff"/><path d="M74.1,9.18V20.41c0,4.25-1.78,6-4.66,6-2.6,0-4.38-1.78-4.38-6V9.18H62.59V20.41c0,5.89,2.88,8.08,6.85,8.08S76.7,26,76.7,20.27V9.18Z" style="fill:#fff"/><path d="M87.11,14.24a5,5,0,0,0-4.52,2.6h0l-.14-2.19H80.26a31,31,0,0,1,.14,3.7v10h2.47V20.13A2.67,2.67,0,0,1,83,19a3.53,3.53,0,0,1,3.29-2.6c2.33,0,3.15,1.78,3.15,4v7.94H91.9V20.13c0-4.79-2.88-5.89-4.79-5.89" style="fill:#fff"/><path d="M110.81,14.52l-2.6,7.67a35.37,35.37,0,0,0-1.1,3.56h-.27c-.27-1.1-.68-2.19-1.1-3.56L103,14.52h-2.6l5.2,13.7h2.33l5.34-13.7Z" style="fill:#fff"/><path d="M135.46,14.24a4,4,0,0,0-3.7,2.6h0l-.14-2.19h-2.19a39.89,39.89,0,0,1,.14,4.25v9.45H132V21.09a2.67,2.67,0,0,1,.14-1.1,3.39,3.39,0,0,1,3.29-3.15,1.74,1.74,0,0,1,.82.14V14.66a.82.82,0,0,0-.82-.41" style="fill:#fff"/><path d="M195.86,22.46a3,3,0,0,1-.14,1.1,3.66,3.66,0,0,1-3.7,3c-2.74,0-4-2.6-4-5.34,0-3,1.51-5.2,4.11-5.2a3.81,3.81,0,0,1,3.56,3,2.67,2.67,0,0,1,.14,1.1v2.33Zm2.6,2.19V8.08h-2.6V16.3h0a4.66,4.66,0,0,0-4.11-2.05c-3.29,0-6.16,2.74-6.16,7.26,0,4.11,2.6,7,5.89,7a5,5,0,0,0,4.66-2.74h0l.14,2.33h2.19c0-.82,0-2.19,0-3.42" style="fill:#fff"/><path d="M138.2,27.26V24.93A9.59,9.59,0,0,0,143,26.57c1.64,0,2.74-.82,2.74-2.05s-1.51-1.78-3.29-2.33c-2.19-.68-4.38-1.64-4.38-4.11s2.05-3.84,5.07-3.84a7.49,7.49,0,0,1,3.84,1.1v2.05a7.77,7.77,0,0,0-4-1.23c-1.51,0-2.74.82-2.74,1.92s1.23,1.64,3.15,2.19c2.19.68,4.52,1.51,4.52,4.11s-2.05,4.25-5.2,4.25a13,13,0,0,1-4.52-1.37" style="fill:#fff"/><path d="M129.84,40.13h4.38V54.38h-4.38Zm4.38-2.19h-4.38v-3.7h4.38Z" style="fill:#fff"/><path d="M177.92,40.13h4.38V54.38h-4.38Zm4.52-2.19h-4.38v-3.7h4.38Z" style="fill:#fff"/><rect x="137.79" y="33.69" width="4.38" height="20.68" style="fill:#fff"/><path d="M104.64,44.65a44.07,44.07,0,0,0-.14-4.52h3.84l.14,1.92h.14A4.71,4.71,0,0,1,113,39.72a4.13,4.13,0,0,1,4,2.47h.14a5.49,5.49,0,0,1,4.66-2.47c2.6,0,4.93,2.05,4.93,6.3v8.35h-4.38V46.29c0-2.05-.68-3.29-2.05-3.29s-2.19,1.23-2.19,2.74v8.63h-4.38V46.16c0-1.78-.68-3-2.05-3s-2.19,1.23-2.19,2.74v8.63h-4.38V44.65Z" style="fill:#fff"/><path d="M161.21,44.65a44.07,44.07,0,0,0-.14-4.52h3.84L165,42h.14a4.89,4.89,0,0,1,4.38-2.33c3,0,5.07,2.05,5.07,6.16v8.49h-4.38V46.16c0-1.78-.68-3.15-2.19-3.15a2.53,2.53,0,0,0-2.47,2.74v8.49h-4.38Z" style="fill:#fff"/><path d="M192.44,51.36c-1.92,0-2.88-1.78-2.88-4.11s1-4.11,2.88-4.11,2.88,1.78,2.88,4.11-1,4.11-2.88,4.11m.14-11.64a7.26,7.26,0,0,0-7.67,7.67c0,4.66,3.15,7.4,7.4,7.4,3.84,0,7.4-2.47,7.4-7.67,0-4.38-2.74-7.4-7.12-7.4" style="fill:#fff"/><path d="M166.82,22.46a3,3,0,0,1-.14,1.1,3.66,3.66,0,0,1-3.7,3c-2.74,0-4-2.6-4-5.34,0-3,1.51-5.2,4.11-5.2a3.81,3.81,0,0,1,3.56,3,2.67,2.67,0,0,1,.14,1.1Zm2.47,2.19V8.08h-2.47V16.3h0a4.66,4.66,0,0,0-4.11-2.05c-3.29,0-6.16,2.74-6.16,7.26,0,4.11,2.6,7,5.89,7a5,5,0,0,0,4.66-2.74h0l.14,2.33h2.19a25.37,25.37,0,0,1-.14-3.42" style="fill:#fff"/><polygon points="75.47 34.65 60.4 34.65 60.4 38.49 65.74 38.49 65.74 54.38 70.13 54.38 70.13 38.49 75.47 38.49 75.47 34.65" style="fill:#fff"/><path d="M89.85,47.25c0,4.52,3.15,7.53,7.94,7.53a12.41,12.41,0,0,0,3.7-.55V50.81a6,6,0,0,1-2.88.68,3.81,3.81,0,0,1-4.11-4.11,3.81,3.81,0,0,1,4.11-4.11,6,6,0,0,1,2.88.68V40.54a12.41,12.41,0,0,0-3.7-.55c-4.79-.27-7.94,2.74-7.94,7.26" style="fill:#fff"/><path d="M124.09,20h-7.26c.14-1.78,1.23-4,3.84-4s3.42,2.47,3.42,4m2.33.68c0-2.47-1.23-6.44-5.62-6.44-4,0-6.44,3.29-6.44,7.4s2.47,6.85,6.85,6.85a8.42,8.42,0,0,0,4.25-1V25.2a6.91,6.91,0,0,1-4.11,1.37c-2.19,0-4.52-1.37-4.52-4.79h9.59v-1.1" style="fill:#fff"/><path d="M78.48,46c.14-1.23.82-2.88,2.74-2.88s2.47,1.78,2.47,2.88Zm9.31.82c0-3.56-1.92-7.26-6.57-7.26-4.93,0-7.26,4-7.26,7.67,0,4.38,3.42,7.4,8.08,7.4a10.12,10.12,0,0,0,4.66-1V50.4a7.26,7.26,0,0,1-3.84,1c-2.19,0-4.11-.82-4.38-2.74h9.18c0-.27.14-1,.14-1.78" style="fill:#fff"/><path d="M149.29,46c.14-1.23.82-2.88,2.74-2.88s2.47,1.78,2.47,2.88Zm9.31.82c0-3.56-1.92-7.26-6.57-7.26-4.93,0-7.26,4-7.26,7.67,0,4.38,3.42,7.4,8.08,7.4a10.12,10.12,0,0,0,4.66-1V50.4a7.26,7.26,0,0,1-3.84,1c-2.19,0-4.11-.82-4.38-2.74h9a4.76,4.76,0,0,0,.27-1.78" style="fill:#fff"/><path d="M29.45,20.54A29.24,29.24,0,0,0,26.3,26.3a29.24,29.24,0,0,0-3.15-5.75,34.76,34.76,0,0,1,3.15-4.66,21.43,21.43,0,0,1,3.15,4.66M52.73,3.84V0H51.5A36.34,36.34,0,0,0,26.3,10.14,35.76,35.76,0,0,0,1.23,0H0V3.84H1.23A31.56,31.56,0,0,1,23.7,13a50.84,50.84,0,0,0-3.15,4.38A26.9,26.9,0,0,0,1.23,9.18H0V13H1.23A22.9,22.9,0,0,1,18.63,21a43.28,43.28,0,0,0-2.19,5.89A17.77,17.77,0,0,0,1.1,18.22H0v3.84H1.23A14.09,14.09,0,0,1,15.34,36.16V54.24h3.84V36.3a32.58,32.58,0,0,1,2.19-11.64A22.47,22.47,0,0,1,24.52,36.3V54.38h3.84V36.3A22.47,22.47,0,0,1,31.5,24.65,32.58,32.58,0,0,1,33.69,36.3V54.38h3.84V36.3A14.09,14.09,0,0,1,51.64,22.19h1.23V18.35H51.64A18,18,0,0,0,36.3,27a27.47,27.47,0,0,0-2.19-5.89A23.33,23.33,0,0,1,51.5,13.15h1.23v-4H51.5a27,27,0,0,0-19.45,8.22A50.84,50.84,0,0,0,28.9,13,32.64,32.64,0,0,1,51.36,3.84Z" style="fill:#fff"/></g></g></svg>